<svg xmlns="http://www.w3.org/2000/svg" viewBox="0 0 129.93 129.79"><defs><style>.cls-1{fill:none;stroke:#344154;stroke-linecap:round;stroke-linejoin:round;stroke-width:2px;}</style></defs><title>Ресурс 1</title><g id="Слой_2" data-name="Слой 2"><g id="Режим_изоляции" data-name="Режим изоляции"><path class="cls-1" d="M116.06,90a18,18,0,0,1,5.46,13"/><path class="cls-1" d="M88.8,92.3a18.11,18.11,0,0,1,22.68-5.58"/><path class="cls-1" d="M86.05,110.87a18.14,18.14,0,0,1,.84-14.43"/><path class="cls-1" d="M93.79,95.33l.09-.12a12.32,12.32,0,0,1,9.56-4.46c5,0,8.74,2.68,11,7a17.34,17.34,0,0,1,1.84,7.27,62.19,62.19,0,0,1-.79,12.55"/><path class="cls-1" d="M90.42,115.65c1.93-3.92,1.51-9.05,1.13-11.6a12.1,12.1,0,0,1,0-3.18"/><path class="cls-1" d="M110,111.05a38.53,38.53,0,0,1-1.74,9.6"/><path class="cls-1" d="M95.25,119.37A15.9,15.9,0,0,0,97.58,107S96,99.44,101.1,97.38a6.38,6.38,0,0,1,8.38,4.16,8.4,8.4,0,0,1,.29,1.41c.08.61.19,1.63.27,3"/><path class="cls-1" d="M103.68,113.72a22.91,22.91,0,0,1-2.59,7.87"/><path class="cls-1" d="M103.35,102.34a32.17,32.17,0,0,1,.64,5.4"/><circle class="cls-1" cx="103.23" cy="103.21" r="25.58" transform="translate(-17.71 184.96) rotate(-79.05)"/><path class="cls-1" d="M53.74,71.31A10.21,10.21,0,0,1,52.55,77c-.2.35-.39.67-.6,1a2.62,2.62,0,0,1-4.58-.6l-2.49-6"/><path class="cls-1" d="M92.56,19.94l-8.23,8.23A32.1,32.1,0,0,1,72.16,35.8l-4.64,1.61L54.51,42a6.42,6.42,0,0,0-2.59,2.7L46.57,55.38"/><line class="cls-1" x1="96.78" y1="49.96" x2="109.68" y2="37.06"/><path class="cls-1" d="M75.82,52c-.35,8.83-12.65,11.69-14.23,20.16-.94,5,3.87,8,8.88,1.89,4.07-4.94,3.74-3.72,9.12-6.25C91,62.46,94,56.73,95.62,52.74a11,11,0,0,0-.19-9l-.05-.09"/><path class="cls-1" d="M128.93,28.83,118,39.73a4,4,0,0,1-5.69,0L90.2,17.58a4,4,0,0,1,0-5.69L101.1,1"/><path class="cls-1" d="M26.13,97.83a6,6,0,1,0-8.5,5.44v5.85a2.51,2.51,0,0,0,2.51,2.51h0a2.51,2.51,0,0,0,2.51-2.51v-5.85A6,6,0,0,0,26.13,97.83Z"/><path class="cls-1" d="M38.27,109.65v6.64c0,5.8-4.7,12.5-10.5,12.5H11.5c-5.8,0-10.5-6.7-10.5-12.5V37.94a10.5,10.5,0,0,1,10.5-10.5H27.77a10.5,10.5,0,0,1,10.5,10.5V55"/><line class="cls-1" x1="38.27" y1="75.99" x2="38.27" y2="87.86"/><path class="cls-1" d="M19,75.3a12,12,0,1,1,13.2-12"/><line class="cls-1" x1="61.8" y1="71.31" x2="29.32" y2="71.31"/><line class="cls-1" x1="29.32" y1="55.3" x2="75.08" y2="55.3"/><path class="cls-1" d="M72.92,71.31h21.5A5.26,5.26,0,0,0,99.69,66V60.57a5.26,5.26,0,0,0-5.27-5.27h0"/><polyline class="cls-1" points="20.14 63.3 38.27 103.65 72.09 103.65"/></g></g></svg>