<svg xmlns="http://www.w3.org/2000/svg" viewBox="0 0 129.81 121.1"><defs><style>.cls-1{fill:none;stroke:#344154;stroke-linecap:round;stroke-linejoin:round;stroke-width:2px;}</style></defs><title>Ресурс 1</title><g id="Слой_2" data-name="Слой 2"><g id="Icon_Set" data-name="Icon Set"><path class="cls-1" d="M45.56,16.84a8.71,8.71,0,0,0-5,.12L16.77,24.75a8.67,8.67,0,0,0-5.22,4.7L5.25,43.58A3.52,3.52,0,0,0,9,48.51c.47-.09,1-.2,1.48-.35A14.31,14.31,0,0,0,20,38.38l.44-1.48"/><path class="cls-1" d="M102.71,32H87.06a43.19,43.19,0,0,1-18.81-4.32l-5.93-2.88"/><line class="cls-1" x1="78.19" y1="64.54" x2="102.71" y2="64.54"/><path class="cls-1" d="M56.31,46.59c-8.72,8-23.13-.91-32.68,5.63C18,56.08,19.72,63.49,30.28,62.46c8.55-.83,7.09,0,14.59,2.72,16,5.76,24.23,3.12,29.58.89a14.65,14.65,0,0,0,8.38-8.75s0-.08,0-.13"/><path class="cls-1" d="M72.83,9.62,65.23,2a3.34,3.34,0,0,0-4.74,0l-6.1,6.07L66.73,20.43l6.09-6.07A3.35,3.35,0,0,0,72.83,9.62Z"/><polyline class="cls-1" points="24.38 62.62 17.31 69.67 1 73.91 4.97 57.29 8.37 53.91"/><polyline class="cls-1" points="37.28 49.77 66.72 20.43 54.39 8.05 25.56 36.13"/><path class="cls-1" d="M55.34,39.87a8.69,8.69,0,0,1,6.89,10.34"/><path class="cls-1" d="M22.09,64.9l5,6.67A5.2,5.2,0,0,0,34,73.2h0a5.2,5.2,0,0,0,1.64-7.55l-3.06-3.39"/><path class="cls-1" d="M128.81,75h-20.7a5.4,5.4,0,0,1-5.4-5.4V27.52a5.4,5.4,0,0,1,5.4-5.4h20.7"/><path class="cls-1" d="M36.5,69.74h0a6.27,6.27,0,0,0,8.71.53l4.34-3.57"/><path class="cls-1" d="M53.35,107.76C58,106,62,102.55,63.58,97.89c1.84-5.51-.64-12.44-6-14.62A11.5,11.5,0,0,0,45.42,86.1a15.1,15.1,0,0,0-3.86,12.2,22.16,22.16,0,0,0,5.54,11.79,29,29,0,0,0,44.57-.82"/><path class="cls-1" d="M4.35,82.69a55.52,55.52,0,0,0,29.31,24.13c4.49,1.58,7.88,2.63,12.59,2.24"/><line class="cls-1" x1="4.97" y1="57.29" x2="10.92" y2="63.23"/></g></g></svg>