<svg xmlns="http://www.w3.org/2000/svg" viewBox="0 0 129.92 128.61"><defs><style>.cls-1{fill:none;stroke:#344154;stroke-linecap:round;stroke-linejoin:round;stroke-width:2px;}</style></defs><title>Ресурс 1</title><g id="Слой_2" data-name="Слой 2"><g id="Режим_изоляции" data-name="Режим изоляции"><path class="cls-1" d="M13.34,127.61H128.92V19.31a8,8,0,0,0-8-8h0a8,8,0,0,0-8,8v91.3H30.34a17,17,0,0,0-17,17Z"/><path class="cls-1" d="M101.85,110.61v-3.83A2.88,2.88,0,0,0,99,103.91H39.23a2.88,2.88,0,0,0-2.88,2.87v3.83"/><line class="cls-1" x1="101.85" y1="86.49" x2="101.85" y2="86.49"/><line class="cls-1" x1="94.8" y1="86.49" x2="48.86" y2="86.49"/><line class="cls-1" x1="45.32" y1="86.49" x2="45.32" y2="86.49"/><line class="cls-1" x1="101.85" y1="52.66" x2="101.85" y2="52.66"/><line class="cls-1" x1="94.8" y1="52.66" x2="48.86" y2="52.66"/><line class="cls-1" x1="45.32" y1="52.66" x2="45.32" y2="52.66"/><line class="cls-1" x1="101.85" y1="25.91" x2="101.85" y2="25.91"/><line class="cls-1" x1="94.8" y1="25.91" x2="48.86" y2="25.91"/><line class="cls-1" x1="45.32" y1="25.91" x2="45.32" y2="25.91"/><path class="cls-1" d="M24,23.05c0,1.68-.44,5.74,1.44,8.69,3,4.72,9.55,15.35,11.28,18.09a6.14,6.14,0,0,1,1,2.7c.15,1.61-.36,3.71-3.62,4.59-5.45,1.47-6.36,4.65-6,6.89a15.39,15.39,0,0,1,.57,4.45,3.77,3.77,0,0,1-4,3.27,18,18,0,0,1-10.82-4"/><path class="cls-1" d="M18.44,38.24a9.22,9.22,0,0,1-12.71-.53"/><path class="cls-1" d="M1,19.79A17.78,17.78,0,0,1,14.93,18.1c2.57.77,4.93,2.11,7.45,3s5.39,1.37,7.86.32A8.28,8.28,0,0,0,35,14.06,11.8,11.8,0,0,0,31.4,5.77,20.87,20.87,0,0,0,23.54,1"/><path class="cls-1" d="M22.32,11.37A20.38,20.38,0,0,0,1.7,9.28"/><path class="cls-1" d="M3.68,109a33.25,33.25,0,0,1,2.24-8.7l0-.08a10.59,10.59,0,0,1,9.63-6h1.76c9,0,9.21-4.28,8.61-6.66a8.41,8.41,0,0,1,.44-5.68,10.29,10.29,0,0,1,.76-1.39l0-.06s3-4.76-.45-9.12"/><path class="cls-1" d="M118.92,116.61H30.34a11,11,0,0,0-9.22,5h101.8v-1a4,4,0,0,0-4-4Z"/></g></g></svg>