<svg id="Слой_1" data-name="Слой 1" xmlns="http://www.w3.org/2000/svg" viewBox="0 0 29.74 29.74"><defs><style>.cls-1{fill:#a7a9ac;}</style></defs><title>ico1</title><path class="cls-1" d="M42.32,351.16a3.57,3.57,0,0,1,.64-0.42,4.44,4.44,0,0,1,1.23-.39l0.4,0h0.14v-0.63a5,5,0,0,0-2.06.51,3.76,3.76,0,0,0-2.09,3.63v21.45a5,5,0,0,0,.51,2.06,3.76,3.76,0,0,0,3.63,2.09H66.19a5,5,0,0,0,2.06-.51,3.76,3.76,0,0,0,2.09-3.63V353.82a5.1,5.1,0,0,0-.51-2.06,3.77,3.77,0,0,0-3.63-2.09H44.74v0.63H66.19A3.13,3.13,0,0,1,69.27,352a4.41,4.41,0,0,1,.39,1.23,3.8,3.8,0,0,1,0,.4v21.6A3.13,3.13,0,0,1,68,378.34a4.37,4.37,0,0,1-1.23.39l-0.4,0H44.74A3.13,3.13,0,0,1,41.67,377a4.44,4.44,0,0,1-.39-1.23c0-.17,0-0.31,0-0.41v-21.6a3.23,3.23,0,0,1,1.1-2.66" transform="translate(-40.6 -349.67)"/><path class="cls-1" d="M55.47,358.83l-8.59,7.08a0.15,0.15,0,0,1,0,0,0.28,0.28,0,0,0,0,0v7.17a1,1,0,0,0,1,1h5.73v-5.73h3.82v5.73h5.73a1,1,0,0,0,1-1V366a0.22,0.22,0,0,0,0-.09Zm0,0" transform="translate(-40.6 -349.67)"/><path class="cls-1" d="M67.34,364.3l-3.27-2.72v-6.09a0.46,0.46,0,0,0-.48-0.48H60.72a0.46,0.46,0,0,0-.48.48v2.91l-3.64-3a1.85,1.85,0,0,0-2.27,0L43.6,364.3a0.43,0.43,0,0,0-.16.32,0.48,0.48,0,0,0,.1.35l0.93,1.11a0.51,0.51,0,0,0,.31.16,0.56,0.56,0,0,0,.36-0.11l10.33-8.61,10.33,8.61a0.46,0.46,0,0,0,.31.11h0a0.51,0.51,0,0,0,.31-0.16L67.4,365a0.48,0.48,0,0,0,.1-0.35,0.43,0.43,0,0,0-.16-0.32h0Zm0,0" transform="translate(-40.6 -349.67)"/></svg>