<svg xmlns="http://www.w3.org/2000/svg" viewBox="0 0 115.63 115.63"><defs><style>.cls-1{fill:none;stroke:#344154;stroke-linecap:round;stroke-linejoin:round;stroke-width:2px;}</style></defs><title>Ресурс 1</title><g id="Слой_2" data-name="Слой 2"><g id="Icon_Set" data-name="Icon Set"><polyline class="cls-1" points="50.67 102.69 12.94 102.69 12.94 64.75"/><polyline class="cls-1" points="102.69 64.75 102.69 102.69 64.95 102.69"/><polyline class="cls-1" points="64.95 12.94 102.69 12.94 102.69 50.87"/><polyline class="cls-1" points="12.94 50.87 12.94 12.94 50.67 12.94"/><polyline class="cls-1" points="1 79.5 1 114.63 1 114.63 36.13 114.63"/><polyline class="cls-1" points="114.63 79.5 114.63 114.63 114.63 114.63 79.5 114.63"/><line class="cls-1" x1="1" y1="36.13" x2="1" y2="1"/><line class="cls-1" x1="1" y1="1" x2="36.13" y2="1"/><line class="cls-1" x1="114.63" y1="36.13" x2="114.63" y2="1"/><line class="cls-1" x1="114.63" y1="1" x2="79.5" y2="1"/><line class="cls-1" x1="112.95" y1="57.81" x2="99.56" y2="57.81"/><line class="cls-1" x1="16.06" y1="57.81" x2="2.68" y2="57.81"/><line class="cls-1" x1="57.81" y1="112.95" x2="57.81" y2="99.56"/><line class="cls-1" x1="57.81" y1="16.06" x2="57.81" y2="2.68"/><polygon class="cls-1" points="82.89 40.85 82.89 92.16 32.74 92.16 32.74 24.15 66.19 24.15 82.82 40.78 82.89 40.85"/><polyline class="cls-1" points="65.19 24.15 65.19 40.53 81.89 40.53"/><rect class="cls-1" x="38.89" y="49.16" width="37.27" height="13.98"/><line class="cls-1" x1="38.89" y1="32.34" x2="57.53" y2="32.34"/><line class="cls-1" x1="38.89" y1="38.34" x2="57.53" y2="38.34"/><line class="cls-1" x1="38.89" y1="71.7" x2="76.16" y2="71.7"/><line class="cls-1" x1="38.89" y1="77.7" x2="76.16" y2="77.7"/><line class="cls-1" x1="38.89" y1="83.7" x2="76.16" y2="83.7"/></g></g></svg>