<svg width="388" height="239" viewBox="0 0 388 239" fill="none" xmlns="http://www.w3.org/2000/svg">
<path d="M387.6 1C387.6 0.668629 387.331 0.4 387 0.4C386.669 0.4 386.4 0.668629 386.4 1L387.6 1ZM4.57573 238.424C4.81005 238.659 5.18993 238.659 5.42424 238.424L9.24264 234.606C9.47695 234.372 9.47695 233.992 9.24264 233.757C9.00832 233.523 8.62841 233.523 8.39409 233.757L4.99999 237.151L1.60589 233.757C1.37157 233.523 0.991659 233.523 0.757345 233.757C0.523031 233.992 0.523031 234.372 0.757345 234.606L4.57573 238.424ZM372 28.4001L372 29.0001L372 28.4001ZM20 28.4009L20 29.0009L20 28.4009ZM386.4 1.31C386.4 1.64137 386.669 1.91 387 1.91C387.331 1.91 387.6 1.64137 387.6 1.31L386.4 1.31ZM387.6 3.79003C387.6 3.45866 387.331 3.19003 387 3.19003C386.669 3.19003 386.4 3.45866 386.4 3.79003L387.6 3.79003ZM386.4 4.41003C386.4 4.7414 386.669 5.01003 387 5.01003C387.331 5.01003 387.6 4.74141 387.6 4.41003L386.4 4.41003ZM387.6 6.89006C387.6 6.55869 387.331 6.29006 387 6.29006C386.669 6.29006 386.4 6.55869 386.4 6.89006L387.6 6.89006ZM386.4 7.51007C386.4 7.84144 386.669 8.11007 387 8.11007C387.331 8.11007 387.6 7.84144 387.6 7.51007L386.4 7.51007ZM387.6 9.99009C387.6 9.65872 387.331 9.39009 387 9.39009C386.669 9.39009 386.4 9.65872 386.4 9.99009L387.6 9.99009ZM386.4 10.6101C386.4 10.9415 386.669 11.2101 387 11.2101C387.331 11.2101 387.6 10.9415 387.6 10.6101L386.4 10.6101ZM387.6 13.0901C387.6 12.7588 387.331 12.4901 387 12.4901C386.669 12.4901 386.4 12.7588 386.4 13.0901L387.6 13.0901ZM386.397 13.6841C386.391 14.0154 386.654 14.2892 386.986 14.2956C387.317 14.302 387.591 14.0386 387.597 13.7073L386.397 13.6841ZM387.36 16.1433C387.417 15.817 387.2 15.5056 386.874 15.4477C386.547 15.3898 386.236 15.6073 386.178 15.9336L387.36 16.1433ZM386.068 16.4881C385.998 16.8118 386.203 17.1316 386.526 17.2023C386.85 17.273 387.17 17.0679 387.241 16.7442L386.068 16.4881ZM386.531 19.0878C386.651 18.7792 386.499 18.4311 386.191 18.3103C385.882 18.1894 385.534 18.3416 385.413 18.6501L386.531 19.0878ZM385.197 19.1722C385.064 19.4758 385.202 19.8296 385.506 19.9626C385.809 20.0955 386.163 19.9572 386.296 19.6537L385.197 19.1722ZM385.14 21.812C385.319 21.5331 385.238 21.162 384.959 20.9831C384.68 20.8041 384.309 20.8852 384.13 21.1641L385.14 21.812ZM383.815 21.6341C383.626 21.9058 383.692 22.2798 383.964 22.4695C384.235 22.6592 384.609 22.5927 384.799 22.3211L383.815 21.6341ZM383.245 24.2123C383.475 23.9735 383.468 23.5937 383.229 23.364C382.99 23.1343 382.61 23.1417 382.38 23.3805L383.245 24.2123ZM381.98 23.7805C381.742 24.0102 381.734 24.39 381.964 24.6289C382.194 24.8677 382.573 24.8751 382.812 24.6454L381.98 23.7805ZM380.921 26.1992C381.193 26.0095 381.259 25.6355 381.069 25.3638C380.88 25.0921 380.506 25.0256 380.234 25.2154L380.921 26.1992ZM379.764 25.53C379.485 25.7089 379.404 26.08 379.583 26.3589C379.762 26.6379 380.133 26.7189 380.412 26.54L379.764 25.53ZM378.254 27.696C378.557 27.563 378.695 27.2092 378.562 26.9056C378.429 26.6021 378.076 26.4638 377.772 26.5968L378.254 27.696ZM377.25 26.8133C376.941 26.9342 376.789 27.2823 376.91 27.5908C377.031 27.8994 377.379 28.0515 377.688 27.9306L377.25 26.8133ZM375.344 28.6407C375.668 28.57 375.873 28.2502 375.802 27.9265C375.731 27.6028 375.412 27.3977 375.088 27.4684L375.344 28.6407ZM374.534 27.5781C374.207 27.636 373.99 27.9474 374.048 28.2737C374.105 28.6 374.417 28.8175 374.743 28.7596L374.534 27.5781ZM372.307 28.9972C372.639 28.9908 372.902 28.717 372.895 28.3857C372.889 28.0544 372.615 27.791 372.284 27.7974L372.307 28.9972ZM371.699 27.8001C371.368 27.8001 371.099 28.0688 371.099 28.4001C371.099 28.7315 371.368 29.0001 371.699 29.0001L371.699 27.8001ZM369.292 29.0001C369.624 29.0001 369.892 28.7315 369.892 28.4001C369.892 28.0688 369.624 27.8001 369.292 27.8001L369.292 29.0001ZM368.691 27.8001C368.359 27.8001 368.091 28.0688 368.091 28.4001C368.091 28.7315 368.359 29.0001 368.691 29.0001L368.691 27.8001ZM366.284 29.0001C366.615 29.0001 366.884 28.7315 366.884 28.4001C366.884 28.0688 366.615 27.8001 366.284 27.8001L366.284 29.0001ZM365.682 27.8001C365.351 27.8001 365.082 28.0688 365.082 28.4001C365.082 28.7315 365.351 29.0001 365.682 29.0001L365.682 27.8001ZM363.275 29.0001C363.607 29.0001 363.875 28.7315 363.875 28.4001C363.875 28.0688 363.607 27.8001 363.275 27.8001L363.275 29.0001ZM362.674 27.8001C362.342 27.8001 362.074 28.0688 362.074 28.4001C362.074 28.7315 362.342 29.0001 362.674 29.0001L362.674 27.8001ZM360.267 29.0002C360.598 29.0002 360.867 28.7315 360.867 28.4002C360.867 28.0688 360.598 27.8002 360.267 27.8002L360.267 29.0002ZM359.665 27.8002C359.334 27.8002 359.065 28.0688 359.065 28.4002C359.065 28.7315 359.334 29.0002 359.665 29.0002L359.665 27.8002ZM357.258 29.0002C357.59 29.0002 357.858 28.7315 357.858 28.4002C357.858 28.0688 357.59 27.8002 357.258 27.8002L357.258 29.0002ZM356.656 27.8002C356.325 27.8002 356.056 28.0688 356.056 28.4002C356.056 28.7315 356.325 29.0002 356.656 29.0002L356.656 27.8002ZM354.25 29.0002C354.581 29.0002 354.85 28.7315 354.85 28.4002C354.85 28.0688 354.581 27.8002 354.25 27.8002L354.25 29.0002ZM353.648 27.8002C353.317 27.8002 353.048 28.0688 353.048 28.4002C353.048 28.7315 353.317 29.0002 353.648 29.0002L353.648 27.8002ZM351.241 29.0002C351.572 29.0002 351.841 28.7315 351.841 28.4002C351.841 28.0688 351.572 27.8002 351.241 27.8002L351.241 29.0002ZM350.639 27.8002C350.308 27.8002 350.039 28.0688 350.039 28.4002C350.039 28.7315 350.308 29.0002 350.639 29.0002L350.639 27.8002ZM348.233 29.0002C348.564 29.0002 348.833 28.7315 348.833 28.4002C348.833 28.0688 348.564 27.8002 348.233 27.8002L348.233 29.0002ZM347.631 27.8002C347.299 27.8002 347.031 28.0688 347.031 28.4002C347.031 28.7316 347.299 29.0002 347.631 29.0002L347.631 27.8002ZM345.224 29.0002C345.555 29.0002 345.824 28.7316 345.824 28.4002C345.824 28.0688 345.555 27.8002 345.224 27.8002L345.224 29.0002ZM344.622 27.8002C344.291 27.8002 344.022 28.0688 344.022 28.4002C344.022 28.7316 344.291 29.0002 344.622 29.0002L344.622 27.8002ZM342.215 29.0002C342.547 29.0002 342.815 28.7316 342.815 28.4002C342.815 28.0688 342.547 27.8002 342.215 27.8002L342.215 29.0002ZM341.614 27.8002C341.282 27.8002 341.014 28.0688 341.014 28.4002C341.014 28.7316 341.282 29.0002 341.614 29.0002L341.614 27.8002ZM339.207 29.0002C339.538 29.0002 339.807 28.7316 339.807 28.4002C339.807 28.0688 339.538 27.8002 339.207 27.8002L339.207 29.0002ZM338.605 27.8002C338.274 27.8002 338.005 28.0688 338.005 28.4002C338.005 28.7316 338.274 29.0002 338.605 29.0002L338.605 27.8002ZM336.198 29.0002C336.53 29.0002 336.798 28.7316 336.798 28.4002C336.798 28.0688 336.53 27.8002 336.198 27.8002L336.198 29.0002ZM335.597 27.8002C335.265 27.8002 334.997 28.0688 334.997 28.4002C334.997 28.7316 335.265 29.0002 335.597 29.0002L335.597 27.8002ZM333.19 29.0002C333.521 29.0002 333.79 28.7316 333.79 28.4002C333.79 28.0688 333.521 27.8002 333.19 27.8002L333.19 29.0002ZM332.588 27.8002C332.257 27.8002 331.988 28.0688 331.988 28.4002C331.988 28.7316 332.257 29.0002 332.588 29.0002L332.588 27.8002ZM330.181 29.0002C330.513 29.0002 330.781 28.7316 330.781 28.4002C330.781 28.0688 330.513 27.8002 330.181 27.8002L330.181 29.0002ZM329.58 27.8002C329.248 27.8002 328.98 28.0689 328.98 28.4002C328.98 28.7316 329.248 29.0002 329.58 29.0002L329.58 27.8002ZM327.173 29.0002C327.504 29.0002 327.773 28.7316 327.773 28.4002C327.773 28.0689 327.504 27.8002 327.173 27.8002L327.173 29.0002ZM326.571 27.8002C326.24 27.8002 325.971 28.0689 325.971 28.4002C325.971 28.7316 326.24 29.0002 326.571 29.0002L326.571 27.8002ZM324.164 29.0002C324.495 29.0002 324.764 28.7316 324.764 28.4002C324.764 28.0689 324.495 27.8002 324.164 27.8002L324.164 29.0002ZM323.562 27.8002C323.231 27.8002 322.962 28.0689 322.962 28.4002C322.962 28.7316 323.231 29.0002 323.562 29.0002L323.562 27.8002ZM321.156 29.0002C321.487 29.0002 321.756 28.7316 321.756 28.4002C321.756 28.0689 321.487 27.8002 321.156 27.8002L321.156 29.0002ZM320.554 27.8002C320.222 27.8002 319.954 28.0689 319.954 28.4002C319.954 28.7316 320.222 29.0002 320.554 29.0002L320.554 27.8002ZM318.147 29.0002C318.478 29.0002 318.747 28.7316 318.747 28.4002C318.747 28.0689 318.478 27.8002 318.147 27.8002L318.147 29.0002ZM317.545 27.8002C317.214 27.8002 316.945 28.0689 316.945 28.4002C316.945 28.7316 317.214 29.0002 317.545 29.0002L317.545 27.8002ZM315.138 29.0003C315.47 29.0003 315.738 28.7316 315.738 28.4003C315.738 28.0689 315.47 27.8003 315.138 27.8003L315.138 29.0003ZM314.537 27.8003C314.205 27.8003 313.937 28.0689 313.937 28.4003C313.937 28.7316 314.205 29.0003 314.537 29.0003L314.537 27.8003ZM312.13 29.0003C312.461 29.0003 312.73 28.7316 312.73 28.4003C312.73 28.0689 312.461 27.8003 312.13 27.8003L312.13 29.0003ZM311.528 27.8003C311.197 27.8003 310.928 28.0689 310.928 28.4003C310.928 28.7316 311.197 29.0003 311.528 29.0003L311.528 27.8003ZM309.121 29.0003C309.453 29.0003 309.721 28.7316 309.721 28.4003C309.721 28.0689 309.453 27.8003 309.121 27.8003L309.121 29.0003ZM308.52 27.8003C308.188 27.8003 307.92 28.0689 307.92 28.4003C307.92 28.7316 308.188 29.0003 308.52 29.0003L308.52 27.8003ZM306.113 29.0003C306.444 29.0003 306.713 28.7316 306.713 28.4003C306.713 28.0689 306.444 27.8003 306.113 27.8003L306.113 29.0003ZM305.511 27.8003C305.18 27.8003 304.911 28.0689 304.911 28.4003C304.911 28.7316 305.18 29.0003 305.511 29.0003L305.511 27.8003ZM303.104 29.0003C303.436 29.0003 303.704 28.7316 303.704 28.4003C303.704 28.0689 303.436 27.8003 303.104 27.8003L303.104 29.0003ZM302.503 27.8003C302.171 27.8003 301.903 28.0689 301.903 28.4003C301.903 28.7317 302.171 29.0003 302.503 29.0003L302.503 27.8003ZM300.096 29.0003C300.427 29.0003 300.696 28.7317 300.696 28.4003C300.696 28.0689 300.427 27.8003 300.096 27.8003L300.096 29.0003ZM299.494 27.8003C299.163 27.8003 298.894 28.0689 298.894 28.4003C298.894 28.7317 299.163 29.0003 299.494 29.0003L299.494 27.8003ZM297.087 29.0003C297.419 29.0003 297.687 28.7317 297.687 28.4003C297.687 28.0689 297.419 27.8003 297.087 27.8003L297.087 29.0003ZM296.485 27.8003C296.154 27.8003 295.885 28.0689 295.885 28.4003C295.885 28.7317 296.154 29.0003 296.485 29.0003L296.485 27.8003ZM294.079 29.0003C294.41 29.0003 294.679 28.7317 294.679 28.4003C294.679 28.0689 294.41 27.8003 294.079 27.8003L294.079 29.0003ZM293.477 27.8003C293.146 27.8003 292.877 28.0689 292.877 28.4003C292.877 28.7317 293.146 29.0003 293.477 29.0003L293.477 27.8003ZM291.07 29.0003C291.401 29.0003 291.67 28.7317 291.67 28.4003C291.67 28.0689 291.401 27.8003 291.07 27.8003L291.07 29.0003ZM290.468 27.8003C290.137 27.8003 289.868 28.0689 289.868 28.4003C289.868 28.7317 290.137 29.0003 290.468 29.0003L290.468 27.8003ZM288.062 29.0003C288.393 29.0003 288.662 28.7317 288.662 28.4003C288.662 28.0689 288.393 27.8003 288.062 27.8003L288.062 29.0003ZM287.46 27.8003C287.128 27.8003 286.86 28.0689 286.86 28.4003C286.86 28.7317 287.128 29.0003 287.46 29.0003L287.46 27.8003ZM285.053 29.0003C285.384 29.0003 285.653 28.7317 285.653 28.4003C285.653 28.0689 285.384 27.8003 285.053 27.8003L285.053 29.0003ZM284.451 27.8003C284.12 27.8003 283.851 28.069 283.851 28.4003C283.851 28.7317 284.12 29.0003 284.451 29.0003L284.451 27.8003ZM282.044 29.0003C282.376 29.0003 282.644 28.7317 282.644 28.4003C282.644 28.069 282.376 27.8003 282.044 27.8003L282.044 29.0003ZM281.443 27.8003C281.111 27.8003 280.843 28.069 280.843 28.4003C280.843 28.7317 281.111 29.0003 281.443 29.0003L281.443 27.8003ZM279.036 29.0003C279.367 29.0003 279.636 28.7317 279.636 28.4003C279.636 28.069 279.367 27.8003 279.036 27.8003L279.036 29.0003ZM278.434 27.8003C278.103 27.8003 277.834 28.069 277.834 28.4003C277.834 28.7317 278.103 29.0003 278.434 29.0003L278.434 27.8003ZM276.027 29.0003C276.359 29.0003 276.627 28.7317 276.627 28.4003C276.627 28.069 276.359 27.8003 276.027 27.8003L276.027 29.0003ZM275.426 27.8003C275.094 27.8003 274.826 28.069 274.826 28.4003C274.826 28.7317 275.094 29.0003 275.426 29.0003L275.426 27.8003ZM273.019 29.0003C273.35 29.0003 273.619 28.7317 273.619 28.4003C273.619 28.069 273.35 27.8003 273.019 27.8003L273.019 29.0003ZM272.417 27.8003C272.086 27.8003 271.817 28.069 271.817 28.4003C271.817 28.7317 272.086 29.0003 272.417 29.0003L272.417 27.8003ZM270.01 29.0004C270.342 29.0004 270.61 28.7317 270.61 28.4004C270.61 28.069 270.342 27.8004 270.01 27.8004L270.01 29.0004ZM269.409 27.8004C269.077 27.8004 268.809 28.069 268.809 28.4004C268.809 28.7317 269.077 29.0004 269.409 29.0004L269.409 27.8004ZM267.002 29.0004C267.333 29.0004 267.602 28.7317 267.602 28.4004C267.602 28.069 267.333 27.8004 267.002 27.8004L267.002 29.0004ZM266.4 27.8004C266.069 27.8004 265.8 28.069 265.8 28.4004C265.8 28.7317 266.069 29.0004 266.4 29.0004L266.4 27.8004ZM263.993 29.0004C264.325 29.0004 264.593 28.7317 264.593 28.4004C264.593 28.069 264.325 27.8004 263.993 27.8004L263.993 29.0004ZM263.391 27.8004C263.06 27.8004 262.791 28.069 262.791 28.4004C262.791 28.7317 263.06 29.0004 263.391 29.0004L263.391 27.8004ZM260.985 29.0004C261.316 29.0004 261.585 28.7317 261.585 28.4004C261.585 28.069 261.316 27.8004 260.985 27.8004L260.985 29.0004ZM260.383 27.8004C260.052 27.8004 259.783 28.069 259.783 28.4004C259.783 28.7317 260.052 29.0004 260.383 29.0004L260.383 27.8004ZM257.976 29.0004C258.307 29.0004 258.576 28.7317 258.576 28.4004C258.576 28.069 258.307 27.8004 257.976 27.8004L257.976 29.0004ZM257.374 27.8004C257.043 27.8004 256.774 28.069 256.774 28.4004C256.774 28.7318 257.043 29.0004 257.374 29.0004L257.374 27.8004ZM254.968 29.0004C255.299 29.0004 255.568 28.7318 255.568 28.4004C255.568 28.069 255.299 27.8004 254.968 27.8004L254.968 29.0004ZM254.366 27.8004C254.034 27.8004 253.766 28.069 253.766 28.4004C253.766 28.7318 254.034 29.0004 254.366 29.0004L254.366 27.8004ZM251.959 29.0004C252.29 29.0004 252.559 28.7318 252.559 28.4004C252.559 28.069 252.29 27.8004 251.959 27.8004L251.959 29.0004ZM251.357 27.8004C251.026 27.8004 250.757 28.069 250.757 28.4004C250.757 28.7318 251.026 29.0004 251.357 29.0004L251.357 27.8004ZM248.95 29.0004C249.282 29.0004 249.55 28.7318 249.55 28.4004C249.55 28.069 249.282 27.8004 248.95 27.8004L248.95 29.0004ZM248.349 27.8004C248.017 27.8004 247.749 28.069 247.749 28.4004C247.749 28.7318 248.017 29.0004 248.349 29.0004L248.349 27.8004ZM245.942 29.0004C246.273 29.0004 246.542 28.7318 246.542 28.4004C246.542 28.069 246.273 27.8004 245.942 27.8004L245.942 29.0004ZM245.34 27.8004C245.009 27.8004 244.74 28.069 244.74 28.4004C244.74 28.7318 245.009 29.0004 245.34 29.0004L245.34 27.8004ZM242.933 29.0004C243.265 29.0004 243.533 28.7318 243.533 28.4004C243.533 28.069 243.265 27.8004 242.933 27.8004L242.933 29.0004ZM242.332 27.8004C242 27.8004 241.732 28.069 241.732 28.4004C241.732 28.7318 242 29.0004 242.332 29.0004L242.332 27.8004ZM239.925 29.0004C240.256 29.0004 240.525 28.7318 240.525 28.4004C240.525 28.069 240.256 27.8004 239.925 27.8004L239.925 29.0004ZM239.323 27.8004C238.992 27.8004 238.723 28.0691 238.723 28.4004C238.723 28.7318 238.992 29.0004 239.323 29.0004L239.323 27.8004ZM236.916 29.0004C237.248 29.0004 237.516 28.7318 237.516 28.4004C237.516 28.0691 237.248 27.8004 236.916 27.8004L236.916 29.0004ZM236.315 27.8004C235.983 27.8004 235.715 28.0691 235.715 28.4004C235.715 28.7318 235.983 29.0004 236.315 29.0004L236.315 27.8004ZM233.908 29.0004C234.239 29.0004 234.508 28.7318 234.508 28.4004C234.508 28.0691 234.239 27.8004 233.908 27.8004L233.908 29.0004ZM233.306 27.8004C232.975 27.8004 232.706 28.0691 232.706 28.4004C232.706 28.7318 232.975 29.0004 233.306 29.0004L233.306 27.8004ZM230.899 29.0004C231.231 29.0004 231.499 28.7318 231.499 28.4004C231.499 28.0691 231.231 27.8004 230.899 27.8004L230.899 29.0004ZM230.297 27.8004C229.966 27.8004 229.697 28.0691 229.697 28.4004C229.697 28.7318 229.966 29.0004 230.297 29.0004L230.297 27.8004ZM227.891 29.0004C228.222 29.0004 228.491 28.7318 228.491 28.4004C228.491 28.0691 228.222 27.8004 227.891 27.8004L227.891 29.0004ZM227.289 27.8004C226.957 27.8004 226.689 28.0691 226.689 28.4005C226.689 28.7318 226.957 29.0004 227.289 29.0004L227.289 27.8004ZM224.882 29.0005C225.213 29.0005 225.482 28.7318 225.482 28.4005C225.482 28.0691 225.213 27.8005 224.882 27.8005L224.882 29.0005ZM224.28 27.8005C223.949 27.8005 223.68 28.0691 223.68 28.4005C223.68 28.7318 223.949 29.0005 224.28 29.0005L224.28 27.8005ZM221.873 29.0005C222.205 29.0005 222.473 28.7318 222.473 28.4005C222.473 28.0691 222.205 27.8005 221.873 27.8005L221.873 29.0005ZM221.272 27.8005C220.94 27.8005 220.672 28.0691 220.672 28.4005C220.672 28.7318 220.94 29.0005 221.272 29.0005L221.272 27.8005ZM218.865 29.0005C219.196 29.0005 219.465 28.7318 219.465 28.4005C219.465 28.0691 219.196 27.8005 218.865 27.8005L218.865 29.0005ZM218.263 27.8005C217.932 27.8005 217.663 28.0691 217.663 28.4005C217.663 28.7318 217.932 29.0005 218.263 29.0005L218.263 27.8005ZM215.856 29.0005C216.188 29.0005 216.456 28.7318 216.456 28.4005C216.456 28.0691 216.188 27.8005 215.856 27.8005L215.856 29.0005ZM215.255 27.8005C214.923 27.8005 214.655 28.0691 214.655 28.4005C214.655 28.7318 214.923 29.0005 215.255 29.0005L215.255 27.8005ZM212.848 29.0005C213.179 29.0005 213.448 28.7318 213.448 28.4005C213.448 28.0691 213.179 27.8005 212.848 27.8005L212.848 29.0005ZM212.246 27.8005C211.915 27.8005 211.646 28.0691 211.646 28.4005C211.646 28.7319 211.915 29.0005 212.246 29.0005L212.246 27.8005ZM209.839 29.0005C210.171 29.0005 210.439 28.7319 210.439 28.4005C210.439 28.0691 210.171 27.8005 209.839 27.8005L209.839 29.0005ZM209.238 27.8005C208.906 27.8005 208.638 28.0691 208.638 28.4005C208.638 28.7319 208.906 29.0005 209.238 29.0005L209.238 27.8005ZM206.831 29.0005C207.162 29.0005 207.431 28.7319 207.431 28.4005C207.431 28.0691 207.162 27.8005 206.831 27.8005L206.831 29.0005ZM206.229 27.8005C205.898 27.8005 205.629 28.0691 205.629 28.4005C205.629 28.7319 205.898 29.0005 206.229 29.0005L206.229 27.8005ZM203.822 29.0005C204.153 29.0005 204.422 28.7319 204.422 28.4005C204.422 28.0691 204.153 27.8005 203.822 27.8005L203.822 29.0005ZM203.22 27.8005C202.889 27.8005 202.62 28.0691 202.62 28.4005C202.62 28.7319 202.889 29.0005 203.22 29.0005L203.22 27.8005ZM200.814 29.0005C201.145 29.0005 201.414 28.7319 201.414 28.4005C201.414 28.0691 201.145 27.8005 200.814 27.8005L200.814 29.0005ZM200.212 27.8005C199.88 27.8005 199.612 28.0691 199.612 28.4005C199.612 28.7319 199.88 29.0005 200.212 29.0005L200.212 27.8005ZM197.805 29.0005C198.136 29.0005 198.405 28.7319 198.405 28.4005C198.405 28.0691 198.136 27.8005 197.805 27.8005L197.805 29.0005ZM197.203 27.8005C196.872 27.8005 196.603 28.0691 196.603 28.4005C196.603 28.7319 196.872 29.0005 197.203 29.0005L197.203 27.8005ZM194.796 29.0005C195.128 29.0005 195.396 28.7319 195.396 28.4005C195.396 28.0691 195.128 27.8005 194.796 27.8005L194.796 29.0005ZM194.195 27.8005C193.863 27.8005 193.595 28.0692 193.595 28.4005C193.595 28.7319 193.863 29.0005 194.195 29.0005L194.195 27.8005ZM191.788 29.0005C192.119 29.0005 192.388 28.7319 192.388 28.4005C192.388 28.0692 192.119 27.8005 191.788 27.8005L191.788 29.0005ZM191.186 27.8005C190.855 27.8005 190.586 28.0692 190.586 28.4005C190.586 28.7319 190.855 29.0005 191.186 29.0005L191.186 27.8005ZM188.779 29.0005C189.111 29.0005 189.379 28.7319 189.379 28.4005C189.379 28.0692 189.111 27.8005 188.779 27.8005L188.779 29.0005ZM188.178 27.8005C187.846 27.8005 187.578 28.0692 187.578 28.4005C187.578 28.7319 187.846 29.0005 188.178 29.0005L188.178 27.8005ZM185.771 29.0005C186.102 29.0005 186.371 28.7319 186.371 28.4005C186.371 28.0692 186.102 27.8005 185.771 27.8005L185.771 29.0005ZM185.169 27.8005C184.838 27.8005 184.569 28.0692 184.569 28.4005C184.569 28.7319 184.838 29.0005 185.169 29.0005L185.169 27.8005ZM182.762 29.0005C183.094 29.0005 183.362 28.7319 183.362 28.4005C183.362 28.0692 183.094 27.8005 182.762 27.8005L182.762 29.0005ZM182.16 27.8005C181.829 27.8005 181.56 28.0692 181.56 28.4005C181.56 28.7319 181.829 29.0005 182.16 29.0005L182.16 27.8005ZM179.754 29.0006C180.085 29.0006 180.354 28.7319 180.354 28.4006C180.354 28.0692 180.085 27.8006 179.754 27.8006L179.754 29.0006ZM179.152 27.8006C178.821 27.8006 178.552 28.0692 178.552 28.4006C178.552 28.7319 178.821 29.0006 179.152 29.0006L179.152 27.8006ZM176.745 29.0006C177.076 29.0006 177.345 28.7319 177.345 28.4006C177.345 28.0692 177.076 27.8006 176.745 27.8006L176.745 29.0006ZM176.143 27.8006C175.812 27.8006 175.543 28.0692 175.543 28.4006C175.543 28.7319 175.812 29.0006 176.143 29.0006L176.143 27.8006ZM173.736 29.0006C174.068 29.0006 174.337 28.7319 174.337 28.4006C174.337 28.0692 174.068 27.8006 173.736 27.8006L173.736 29.0006ZM173.135 27.8006C172.803 27.8006 172.535 28.0692 172.535 28.4006C172.535 28.7319 172.803 29.0006 173.135 29.0006L173.135 27.8006ZM170.728 29.0006C171.059 29.0006 171.328 28.7319 171.328 28.4006C171.328 28.0692 171.059 27.8006 170.728 27.8006L170.728 29.0006ZM170.126 27.8006C169.795 27.8006 169.526 28.0692 169.526 28.4006C169.526 28.7319 169.795 29.0006 170.126 29.0006L170.126 27.8006ZM167.719 29.0006C168.051 29.0006 168.319 28.732 168.319 28.4006C168.319 28.0692 168.051 27.8006 167.719 27.8006L167.719 29.0006ZM167.118 27.8006C166.786 27.8006 166.518 28.0692 166.518 28.4006C166.518 28.732 166.786 29.0006 167.118 29.0006L167.118 27.8006ZM164.711 29.0006C165.042 29.0006 165.311 28.732 165.311 28.4006C165.311 28.0692 165.042 27.8006 164.711 27.8006L164.711 29.0006ZM164.109 27.8006C163.778 27.8006 163.509 28.0692 163.509 28.4006C163.509 28.732 163.778 29.0006 164.109 29.0006L164.109 27.8006ZM161.702 29.0006C162.034 29.0006 162.302 28.732 162.302 28.4006C162.302 28.0692 162.034 27.8006 161.702 27.8006L161.702 29.0006ZM161.101 27.8006C160.769 27.8006 160.501 28.0692 160.501 28.4006C160.501 28.732 160.769 29.0006 161.101 29.0006L161.101 27.8006ZM158.694 29.0006C159.025 29.0006 159.294 28.732 159.294 28.4006C159.294 28.0692 159.025 27.8006 158.694 27.8006L158.694 29.0006ZM158.092 27.8006C157.761 27.8006 157.492 28.0692 157.492 28.4006C157.492 28.732 157.761 29.0006 158.092 29.0006L158.092 27.8006ZM155.685 29.0006C156.017 29.0006 156.285 28.732 156.285 28.4006C156.285 28.0692 156.017 27.8006 155.685 27.8006L155.685 29.0006ZM155.083 27.8006C154.752 27.8006 154.483 28.0692 154.483 28.4006C154.483 28.732 154.752 29.0006 155.083 29.0006L155.083 27.8006ZM152.677 29.0006C153.008 29.0006 153.277 28.732 153.277 28.4006C153.277 28.0692 153.008 27.8006 152.677 27.8006L152.677 29.0006ZM152.075 27.8006C151.743 27.8006 151.475 28.0692 151.475 28.4006C151.475 28.732 151.743 29.0006 152.075 29.0006L152.075 27.8006ZM149.668 29.0006C149.999 29.0006 150.268 28.732 150.268 28.4006C150.268 28.0692 149.999 27.8006 149.668 27.8006L149.668 29.0006ZM149.066 27.8006C148.735 27.8006 148.466 28.0693 148.466 28.4006C148.466 28.732 148.735 29.0006 149.066 29.0006L149.066 27.8006ZM146.659 29.0006C146.991 29.0006 147.259 28.732 147.259 28.4006C147.259 28.0693 146.991 27.8006 146.659 27.8006L146.659 29.0006ZM146.058 27.8006C145.726 27.8006 145.458 28.0693 145.458 28.4006C145.458 28.732 145.726 29.0006 146.058 29.0006L146.058 27.8006ZM143.651 29.0006C143.982 29.0006 144.251 28.732 144.251 28.4006C144.251 28.0693 143.982 27.8006 143.651 27.8006L143.651 29.0006ZM143.049 27.8006C142.718 27.8006 142.449 28.0693 142.449 28.4006C142.449 28.732 142.718 29.0006 143.049 29.0006L143.049 27.8006ZM140.642 29.0006C140.974 29.0006 141.242 28.732 141.242 28.4006C141.242 28.0693 140.974 27.8006 140.642 27.8006L140.642 29.0006ZM140.041 27.8006C139.709 27.8006 139.441 28.0693 139.441 28.4006C139.441 28.732 139.709 29.0006 140.041 29.0006L140.041 27.8006ZM137.634 29.0006C137.965 29.0006 138.234 28.732 138.234 28.4006C138.234 28.0693 137.965 27.8006 137.634 27.8006L137.634 29.0006ZM137.032 27.8006C136.701 27.8007 136.432 28.0693 136.432 28.4007C136.432 28.732 136.701 29.0006 137.032 29.0006L137.032 27.8006ZM134.625 29.0007C134.957 29.0007 135.225 28.732 135.225 28.4007C135.225 28.0693 134.957 27.8007 134.625 27.8007L134.625 29.0007ZM134.024 27.8007C133.692 27.8007 133.424 28.0693 133.424 28.4007C133.424 28.732 133.692 29.0007 134.024 29.0007L134.024 27.8007ZM131.617 29.0007C131.948 29.0007 132.217 28.732 132.217 28.4007C132.217 28.0693 131.948 27.8007 131.617 27.8007L131.617 29.0007ZM131.015 27.8007C130.684 27.8007 130.415 28.0693 130.415 28.4007C130.415 28.732 130.684 29.0007 131.015 29.0007L131.015 27.8007ZM128.608 29.0007C128.939 29.0007 129.208 28.732 129.208 28.4007C129.208 28.0693 128.939 27.8007 128.608 27.8007L128.608 29.0007ZM128.006 27.8007C127.675 27.8007 127.406 28.0693 127.406 28.4007C127.406 28.732 127.675 29.0007 128.006 29.0007L128.006 27.8007ZM125.6 29.0007C125.931 29.0007 126.2 28.732 126.2 28.4007C126.2 28.0693 125.931 27.8007 125.6 27.8007L125.6 29.0007ZM124.998 27.8007C124.666 27.8007 124.398 28.0693 124.398 28.4007C124.398 28.732 124.666 29.0007 124.998 29.0007L124.998 27.8007ZM122.591 29.0007C122.922 29.0007 123.191 28.732 123.191 28.4007C123.191 28.0693 122.922 27.8007 122.591 27.8007L122.591 29.0007ZM121.989 27.8007C121.658 27.8007 121.389 28.0693 121.389 28.4007C121.389 28.7321 121.658 29.0007 121.989 29.0007L121.989 27.8007ZM119.582 29.0007C119.914 29.0007 120.182 28.7321 120.182 28.4007C120.182 28.0693 119.914 27.8007 119.582 27.8007L119.582 29.0007ZM118.981 27.8007C118.649 27.8007 118.381 28.0693 118.381 28.4007C118.381 28.7321 118.649 29.0007 118.981 29.0007L118.981 27.8007ZM116.574 29.0007C116.905 29.0007 117.174 28.7321 117.174 28.4007C117.174 28.0693 116.905 27.8007 116.574 27.8007L116.574 29.0007ZM115.972 27.8007C115.641 27.8007 115.372 28.0693 115.372 28.4007C115.372 28.7321 115.641 29.0007 115.972 29.0007L115.972 27.8007ZM113.565 29.0007C113.897 29.0007 114.165 28.7321 114.165 28.4007C114.165 28.0693 113.897 27.8007 113.565 27.8007L113.565 29.0007ZM112.964 27.8007C112.632 27.8007 112.364 28.0693 112.364 28.4007C112.364 28.7321 112.632 29.0007 112.964 29.0007L112.964 27.8007ZM110.557 29.0007C110.888 29.0007 111.157 28.7321 111.157 28.4007C111.157 28.0693 110.888 27.8007 110.557 27.8007L110.557 29.0007ZM109.955 27.8007C109.624 27.8007 109.355 28.0693 109.355 28.4007C109.355 28.7321 109.624 29.0007 109.955 29.0007L109.955 27.8007ZM107.548 29.0007C107.88 29.0007 108.148 28.7321 108.148 28.4007C108.148 28.0693 107.88 27.8007 107.548 27.8007L107.548 29.0007ZM106.947 27.8007C106.615 27.8007 106.346 28.0693 106.346 28.4007C106.346 28.7321 106.615 29.0007 106.947 29.0007L106.947 27.8007ZM104.54 29.0007C104.871 29.0007 105.14 28.7321 105.14 28.4007C105.14 28.0693 104.871 27.8007 104.54 27.8007L104.54 29.0007ZM103.938 27.8007C103.607 27.8007 103.338 28.0694 103.338 28.4007C103.338 28.7321 103.607 29.0007 103.938 29.0007L103.938 27.8007ZM101.531 29.0007C101.863 29.0007 102.131 28.7321 102.131 28.4007C102.131 28.0694 101.863 27.8007 101.531 27.8007L101.531 29.0007ZM100.929 27.8007C100.598 27.8007 100.329 28.0694 100.329 28.4007C100.329 28.7321 100.598 29.0007 100.929 29.0007L100.929 27.8007ZM98.5226 29.0007C98.854 29.0007 99.1226 28.7321 99.1226 28.4007C99.1226 28.0694 98.8539 27.8007 98.5226 27.8007L98.5226 29.0007ZM97.9209 27.8007C97.5895 27.8007 97.3209 28.0694 97.3209 28.4007C97.3209 28.7321 97.5895 29.0007 97.9209 29.0007L97.9209 27.8007ZM95.514 29.0007C95.8454 29.0007 96.114 28.7321 96.114 28.4007C96.114 28.0694 95.8454 27.8007 95.514 27.8007L95.514 29.0007ZM94.9123 27.8007C94.581 27.8007 94.3123 28.0694 94.3123 28.4007C94.3123 28.7321 94.581 29.0007 94.9123 29.0007L94.9123 27.8007ZM92.5055 29.0007C92.8369 29.0007 93.1055 28.7321 93.1055 28.4007C93.1055 28.0694 92.8369 27.8007 92.5055 27.8007L92.5055 29.0007ZM91.9038 27.8007C91.5724 27.8007 91.3038 28.0694 91.3038 28.4007C91.3038 28.7321 91.5724 29.0008 91.9038 29.0008L91.9038 27.8007ZM89.4969 29.0008C89.8283 29.0008 90.097 28.7321 90.097 28.4008C90.097 28.0694 89.8283 27.8008 89.4969 27.8008L89.4969 29.0008ZM88.8952 27.8008C88.5639 27.8008 88.2952 28.0694 88.2952 28.4008C88.2952 28.7321 88.5639 29.0008 88.8952 29.0008L88.8952 27.8008ZM86.4884 29.0008C86.8198 29.0008 87.0884 28.7321 87.0884 28.4008C87.0884 28.0694 86.8198 27.8008 86.4884 27.8008L86.4884 29.0008ZM85.8867 27.8008C85.5553 27.8008 85.2867 28.0694 85.2867 28.4008C85.2867 28.7321 85.5553 29.0008 85.8867 29.0008L85.8867 27.8008ZM83.4799 29.0008C83.8112 29.0008 84.0799 28.7321 84.0799 28.4008C84.0799 28.0694 83.8112 27.8008 83.4799 27.8008L83.4799 29.0008ZM82.8781 27.8008C82.5468 27.8008 82.2781 28.0694 82.2781 28.4008C82.2781 28.7321 82.5468 29.0008 82.8781 29.0008L82.8781 27.8008ZM80.4713 29.0008C80.8027 29.0008 81.0713 28.7321 81.0713 28.4008C81.0713 28.0694 80.8027 27.8008 80.4713 27.8008L80.4713 29.0008ZM79.8696 27.8008C79.5382 27.8008 79.2696 28.0694 79.2696 28.4008C79.2696 28.7321 79.5382 29.0008 79.8696 29.0008L79.8696 27.8008ZM77.4628 29.0008C77.7942 29.0008 78.0628 28.7322 78.0628 28.4008C78.0628 28.0694 77.7942 27.8008 77.4628 27.8008L77.4628 29.0008ZM76.8611 27.8008C76.5297 27.8008 76.2611 28.0694 76.2611 28.4008C76.2611 28.7322 76.5297 29.0008 76.8611 29.0008L76.8611 27.8008ZM74.4542 29.0008C74.7856 29.0008 75.0542 28.7322 75.0542 28.4008C75.0542 28.0694 74.7856 27.8008 74.4542 27.8008L74.4542 29.0008ZM73.8525 27.8008C73.5211 27.8008 73.2525 28.0694 73.2525 28.4008C73.2525 28.7322 73.5211 29.0008 73.8525 29.0008L73.8525 27.8008ZM71.4457 29.0008C71.777 29.0008 72.0457 28.7322 72.0457 28.4008C72.0457 28.0694 71.777 27.8008 71.4457 27.8008L71.4457 29.0008ZM70.844 27.8008C70.5126 27.8008 70.244 28.0694 70.244 28.4008C70.244 28.7322 70.5126 29.0008 70.844 29.0008L70.844 27.8008ZM68.4371 29.0008C68.7685 29.0008 69.0371 28.7322 69.0371 28.4008C69.0371 28.0694 68.7685 27.8008 68.4371 27.8008L68.4371 29.0008ZM67.8354 27.8008C67.5041 27.8008 67.2354 28.0694 67.2354 28.4008C67.2354 28.7322 67.5041 29.0008 67.8354 29.0008L67.8354 27.8008ZM65.4286 29.0008C65.7599 29.0008 66.0286 28.7322 66.0286 28.4008C66.0286 28.0694 65.7599 27.8008 65.4286 27.8008L65.4286 29.0008ZM64.8269 27.8008C64.4955 27.8008 64.2269 28.0694 64.2269 28.4008C64.2269 28.7322 64.4955 29.0008 64.8269 29.0008L64.8269 27.8008ZM62.42 29.0008C62.7514 29.0008 63.02 28.7322 63.02 28.4008C63.02 28.0694 62.7514 27.8008 62.42 27.8008L62.42 29.0008ZM61.8183 27.8008C61.487 27.8008 61.2183 28.0694 61.2183 28.4008C61.2183 28.7322 61.487 29.0008 61.8183 29.0008L61.8183 27.8008ZM59.4115 29.0008C59.7429 29.0008 60.0115 28.7322 60.0115 28.4008C60.0115 28.0694 59.7429 27.8008 59.4115 27.8008L59.4115 29.0008ZM58.8098 27.8008C58.4784 27.8008 58.2098 28.0695 58.2098 28.4008C58.2098 28.7322 58.4784 29.0008 58.8098 29.0008L58.8098 27.8008ZM56.403 29.0008C56.7343 29.0008 57.003 28.7322 57.003 28.4008C57.003 28.0695 56.7343 27.8008 56.403 27.8008L56.403 29.0008ZM55.8012 27.8008C55.4698 27.8008 55.2012 28.0695 55.2012 28.4008C55.2012 28.7322 55.4699 29.0008 55.8012 29.0008L55.8012 27.8008ZM53.3944 29.0008C53.7258 29.0008 53.9944 28.7322 53.9944 28.4008C53.9944 28.0695 53.7258 27.8008 53.3944 27.8008L53.3944 29.0008ZM52.7927 27.8008C52.4613 27.8008 52.1927 28.0695 52.1927 28.4008C52.1927 28.7322 52.4613 29.0008 52.7927 29.0008L52.7927 27.8008ZM50.3859 29.0008C50.7173 29.0008 50.9859 28.7322 50.9859 28.4008C50.9859 28.0695 50.7173 27.8008 50.3859 27.8008L50.3859 29.0008ZM49.7841 27.8008C49.4528 27.8008 49.1842 28.0695 49.1842 28.4008C49.1842 28.7322 49.4528 29.0008 49.7841 29.0008L49.7841 27.8008ZM47.3773 29.0008C47.7087 29.0008 47.9773 28.7322 47.9773 28.4008C47.9773 28.0695 47.7087 27.8008 47.3773 27.8008L47.3773 29.0008ZM46.7756 27.8009C46.4442 27.8009 46.1756 28.0695 46.1756 28.4009C46.1756 28.7322 46.4442 29.0009 46.7756 29.0008L46.7756 27.8009ZM44.3688 29.0009C44.7001 29.0009 44.9688 28.7322 44.9688 28.4009C44.9688 28.0695 44.7001 27.8009 44.3688 27.8009L44.3688 29.0009ZM43.7671 27.8009C43.4357 27.8009 43.1671 28.0695 43.1671 28.4009C43.1671 28.7322 43.4357 29.0009 43.7671 29.0009L43.7671 27.8009ZM41.3602 29.0009C41.6916 29.0009 41.9602 28.7322 41.9602 28.4009C41.9602 28.0695 41.6916 27.8009 41.3602 27.8009L41.3602 29.0009ZM40.7585 27.8009C40.4272 27.8009 40.1585 28.0695 40.1585 28.4009C40.1585 28.7322 40.4272 29.0009 40.7585 29.0009L40.7585 27.8009ZM38.3517 29.0009C38.683 29.0009 38.9517 28.7322 38.9517 28.4009C38.9517 28.0695 38.683 27.8009 38.3517 27.8009L38.3517 29.0009ZM37.75 27.8009C37.4186 27.8009 37.15 28.0695 37.15 28.4009C37.15 28.7322 37.4186 29.0009 37.75 29.0009L37.75 27.8009ZM35.3431 29.0009C35.6745 29.0009 35.9431 28.7322 35.9431 28.4009C35.9431 28.0695 35.6745 27.8009 35.3431 27.8009L35.3431 29.0009ZM34.7414 27.8009C34.4101 27.8009 34.1414 28.0695 34.1414 28.4009C34.1414 28.7322 34.4101 29.0009 34.7414 29.0009L34.7414 27.8009ZM32.3346 29.0009C32.666 29.0009 32.9346 28.7323 32.9346 28.4009C32.9346 28.0695 32.666 27.8009 32.3346 27.8009L32.3346 29.0009ZM31.7329 27.8009C31.4015 27.8009 31.1329 28.0695 31.1329 28.4009C31.1329 28.7323 31.4015 29.0009 31.7329 29.0009L31.7329 27.8009ZM29.326 29.0009C29.6574 29.0009 29.9261 28.7323 29.9261 28.4009C29.9261 28.0695 29.6574 27.8009 29.326 27.8009L29.326 29.0009ZM28.7243 27.8009C28.3929 27.8009 28.1243 28.0695 28.1243 28.4009C28.1243 28.7323 28.393 29.0009 28.7243 29.0009L28.7243 27.8009ZM26.3175 29.0009C26.6489 29.0009 26.9175 28.7323 26.9175 28.4009C26.9175 28.0695 26.6489 27.8009 26.3175 27.8009L26.3175 29.0009ZM25.7158 27.8009C25.3844 27.8009 25.1158 28.0695 25.1158 28.4009C25.1158 28.7323 25.3844 29.0009 25.7158 29.0009L25.7158 27.8009ZM23.309 29.0009C23.6403 29.0009 23.909 28.7323 23.909 28.4009C23.909 28.0695 23.6403 27.8009 23.309 27.8009L23.309 29.0009ZM22.7072 27.8009C22.3759 27.8009 22.1073 28.0695 22.1073 28.4009C22.1073 28.7323 22.3759 29.0009 22.7072 29.0009L22.7072 27.8009ZM20.3004 29.0009C20.6318 29.0009 20.9004 28.7323 20.9004 28.4009C20.9004 28.0695 20.6318 27.8009 20.3004 27.8009L20.3004 29.0009ZM19.6928 27.8039C19.3615 27.8103 19.0981 28.0841 19.1045 28.4154C19.1109 28.7467 19.3847 29.0101 19.716 29.0037L19.6928 27.8039ZM17.4665 29.223C17.7928 29.1651 18.0103 28.8536 17.9524 28.5274C17.8945 28.2011 17.5831 27.9835 17.2568 28.0414L17.4665 29.223ZM16.6559 28.1603C16.3322 28.231 16.1271 28.5508 16.1978 28.8745C16.2685 29.1983 16.5883 29.4034 16.912 29.3327L16.6559 28.1603ZM14.75 29.9877C15.0585 29.8669 15.2107 29.5188 15.0898 29.2102C14.969 28.9017 14.6209 28.7495 14.3123 28.8704L14.75 29.9877ZM13.7464 29.1051C13.4429 29.238 13.3046 29.5919 13.4376 29.8954C13.5705 30.1989 13.9243 30.3372 14.2279 30.2043L13.7464 29.1051ZM12.236 31.2711C12.5149 31.0922 12.5959 30.721 12.417 30.4421C12.2381 30.1632 11.867 30.0821 11.588 30.261L12.236 31.2711ZM11.079 30.6018C10.8073 30.7915 10.7409 31.1655 10.9306 31.4372C11.1203 31.7089 11.4944 31.7754 11.7661 31.5857L11.079 30.6018ZM10.0196 33.0205C10.2584 32.7909 10.2658 32.411 10.0361 32.1722C9.80646 31.9333 9.42663 31.9259 9.18777 32.1556L10.0196 33.0205ZM8.7547 32.5887C8.52499 32.8276 8.53241 33.2074 8.77124 33.4371C9.0101 33.6668 9.38992 33.6594 9.61963 33.4205L8.7547 32.5887ZM8.18475 35.167C8.37445 34.8953 8.30801 34.5212 8.03631 34.3315C7.76462 34.1418 7.39056 34.2083 7.20087 34.48L8.18475 35.167ZM6.86011 34.989C6.68118 35.2679 6.76224 35.6391 7.04117 35.818C7.3201 35.9969 7.69122 35.9158 7.87015 35.6369L6.86011 34.989ZM6.80334 37.6288C6.93628 37.3253 6.798 36.9714 6.49447 36.8385C6.19095 36.7055 5.83713 36.8438 5.70416 37.1473L6.80334 37.6288ZM5.46948 37.7133C5.3486 38.0218 5.50076 38.3699 5.80929 38.4908C6.11786 38.6116 6.46594 38.4595 6.58682 38.1509L5.46948 37.7133ZM5.93173 40.313C6.00247 39.9892 5.79736 39.6695 5.4736 39.5987C5.14987 39.528 4.83011 39.7331 4.7594 40.0569L5.93173 40.313ZM4.6405 40.6578C4.58261 40.984 4.80017 41.2955 5.12643 41.3534C5.45273 41.4113 5.76416 41.1937 5.82205 40.8674L4.6405 40.6578ZM5.60275 43.1169C5.60913 42.7856 5.34576 42.5118 5.01443 42.5054C4.68313 42.499 4.40936 42.7624 4.40295 43.0937L5.60275 43.1169ZM4.39999 43.7003C4.39999 44.0317 4.66864 44.3003 5 44.3003C5.33136 44.3003 5.6 44.0317 5.6 43.7003L4.39999 43.7003ZM5.6 46.0954C5.6 45.764 5.33136 45.4954 5 45.4954C4.66864 45.4954 4.39999 45.764 4.39999 46.0954L5.6 46.0954ZM4.39999 46.6941C4.39999 47.0255 4.66864 47.2941 5 47.2941C5.33136 47.2941 5.6 47.0255 5.6 46.6941L4.39999 46.6941ZM5.6 49.0892C5.6 48.7578 5.33136 48.4892 5 48.4892C4.66864 48.4892 4.39999 48.7578 4.39999 49.0892L5.6 49.0892ZM4.39999 49.688C4.39999 50.0193 4.66864 50.288 5 50.288C5.33136 50.288 5.6 50.0193 5.6 49.688L4.39999 49.688ZM5.6 52.083C5.6 51.7517 5.33136 51.483 5 51.483C4.66864 51.483 4.39999 51.7517 4.39999 52.083L5.6 52.083ZM4.39999 52.6818C4.39999 53.0132 4.66864 53.2818 5 53.2818C5.33136 53.2818 5.6 53.0132 5.6 52.6818L4.39999 52.6818ZM5.6 55.0769C5.6 54.7455 5.33136 54.4769 5 54.4769C4.66864 54.4769 4.39999 54.7455 4.39999 55.0769L5.6 55.0769ZM4.39999 55.6756C4.39999 56.007 4.66864 56.2756 5 56.2756C5.33136 56.2756 5.6 56.007 5.6 55.6756L4.39999 55.6756ZM5.6 58.0707C5.6 57.7393 5.33136 57.4707 5 57.4707C4.66864 57.4707 4.39999 57.7393 4.39999 58.0707L5.6 58.0707ZM4.39999 58.6695C4.39999 59.0008 4.66864 59.2694 5 59.2694C5.33136 59.2694 5.6 59.0008 5.6 58.6695L4.39999 58.6695ZM5.6 61.0645C5.6 60.7331 5.33136 60.4645 5 60.4645C4.66864 60.4645 4.39999 60.7331 4.39999 61.0645L5.6 61.0645ZM4.39999 61.6633C4.39999 61.9947 4.66864 62.2633 5 62.2633C5.33136 62.2633 5.6 61.9947 5.6 61.6633L4.39999 61.6633ZM5.6 64.0583C5.6 63.727 5.33136 63.4583 5 63.4583C4.66864 63.4583 4.39999 63.727 4.39999 64.0583L5.6 64.0583ZM4.39999 64.6571C4.39999 64.9885 4.66864 65.2571 5 65.2571C5.33136 65.2571 5.6 64.9885 5.6 64.6571L4.39999 64.6571ZM5.6 67.0522C5.6 66.7208 5.33136 66.4522 5 66.4522C4.66864 66.4522 4.39999 66.7208 4.39999 67.0522L5.6 67.0522ZM4.39999 67.6509C4.39999 67.9823 4.66864 68.2509 5 68.2509C5.33136 68.2509 5.6 67.9823 5.6 67.6509L4.39999 67.6509ZM5.6 70.046C5.6 69.7146 5.33136 69.446 5 69.446C4.66864 69.446 4.39999 69.7146 4.39999 70.046L5.6 70.046ZM4.39999 70.6448C4.39999 70.9761 4.66864 71.2448 5 71.2448C5.33136 71.2448 5.6 70.9761 5.6 70.6448L4.39999 70.6448ZM5.6 73.0398C5.6 72.7085 5.33136 72.4398 5 72.4398C4.66864 72.4398 4.39999 72.7085 4.39999 73.0398L5.6 73.0398ZM4.39999 73.6386C4.39999 73.97 4.66864 74.2386 5 74.2386C5.33136 74.2386 5.6 73.97 5.6 73.6386L4.39999 73.6386ZM5.6 76.0337C5.6 75.7023 5.33136 75.4337 5 75.4337C4.66864 75.4337 4.39999 75.7023 4.39999 76.0337L5.6 76.0337ZM4.39999 76.6324C4.39999 76.9638 4.66864 77.2324 5 77.2324C5.33136 77.2324 5.6 76.9638 5.6 76.6324L4.39999 76.6324ZM5.6 79.0275C5.6 78.6961 5.33136 78.4275 5 78.4275C4.66864 78.4275 4.39999 78.6961 4.39999 79.0275L5.6 79.0275ZM4.39999 79.6263C4.39999 79.9576 4.66864 80.2263 5 80.2263C5.33136 80.2263 5.6 79.9576 5.6 79.6263L4.39999 79.6263ZM5.6 82.0213C5.6 81.69 5.33136 81.4213 5 81.4213C4.66864 81.4213 4.39999 81.69 4.39999 82.0213L5.6 82.0213ZM4.39999 82.6201C4.39999 82.9515 4.66864 83.2201 5 83.2201C5.33136 83.2201 5.6 82.9515 5.6 82.6201L4.39999 82.6201ZM5.6 85.0152C5.6 84.6838 5.33136 84.4152 5 84.4152C4.66864 84.4152 4.39999 84.6838 4.39999 85.0152L5.6 85.0152ZM4.39999 85.6139C4.39999 85.9453 4.66864 86.2139 5 86.2139C5.33136 86.2139 5.6 85.9453 5.6 85.6139L4.39999 85.6139ZM5.6 88.009C5.6 87.6776 5.33136 87.409 5 87.409C4.66864 87.409 4.39999 87.6776 4.39999 88.009L5.6 88.009ZM4.39999 88.6078C4.39999 88.9391 4.66864 89.2078 5 89.2078C5.33136 89.2078 5.6 88.9391 5.6 88.6078L4.39999 88.6078ZM5.6 91.0028C5.6 90.6715 5.33136 90.4028 5 90.4028C4.66864 90.4028 4.39999 90.6715 4.39999 91.0028L5.6 91.0028ZM4.39999 91.6016C4.39999 91.933 4.66864 92.2016 5 92.2016C5.33136 92.2016 5.6 91.933 5.6 91.6016L4.39999 91.6016ZM5.6 93.9967C5.6 93.6653 5.33136 93.3967 5 93.3967C4.66864 93.3967 4.39999 93.6653 4.39999 93.9967L5.6 93.9967ZM4.39999 94.5954C4.39999 94.9268 4.66864 95.1954 5 95.1954C5.33136 95.1954 5.6 94.9268 5.6 94.5954L4.39999 94.5954ZM5.6 96.9905C5.6 96.6591 5.33136 96.3905 5 96.3905C4.66864 96.3905 4.39999 96.6591 4.39999 96.9905L5.6 96.9905ZM4.39999 97.5893C4.39999 97.9206 4.66864 98.1893 5 98.1893C5.33136 98.1893 5.6 97.9206 5.6 97.5893L4.39999 97.5893ZM5.6 99.9843C5.6 99.653 5.33136 99.3843 5 99.3843C4.66864 99.3843 4.39999 99.653 4.39999 99.9843L5.6 99.9843ZM4.39999 100.583C4.39999 100.914 4.66864 101.183 5 101.183C5.33136 101.183 5.6 100.914 5.6 100.583L4.39999 100.583ZM5.6 102.978C5.6 102.647 5.33136 102.378 5 102.378C4.66864 102.378 4.39999 102.647 4.39999 102.978L5.6 102.978ZM4.39999 103.577C4.39999 103.908 4.66864 104.177 5 104.177C5.33136 104.177 5.6 103.908 5.6 103.577L4.39999 103.577ZM5.6 105.972C5.6 105.641 5.33136 105.372 5 105.372C4.66864 105.372 4.39999 105.641 4.39999 105.972L5.6 105.972ZM4.39999 106.571C4.39999 106.902 4.66864 107.171 5 107.171C5.33136 107.171 5.6 106.902 5.6 106.571L4.39999 106.571ZM5.6 108.966C5.6 108.634 5.33136 108.366 5 108.366C4.66864 108.366 4.39999 108.634 4.39999 108.966L5.6 108.966ZM4.39999 109.565C4.39999 109.896 4.66864 110.165 5 110.165C5.33136 110.165 5.6 109.896 5.6 109.565L4.39999 109.565ZM5.6 111.96C5.6 111.628 5.33136 111.36 5 111.36C4.66864 111.36 4.39999 111.628 4.39999 111.96L5.6 111.96ZM4.39999 112.558C4.39999 112.89 4.66864 113.158 5 113.158C5.33135 113.158 5.6 112.89 5.6 112.558L4.39999 112.558ZM5.6 114.953C5.6 114.622 5.33135 114.353 5 114.353C4.66864 114.353 4.39999 114.622 4.39999 114.953L5.6 114.953ZM4.39999 115.552C4.39999 115.884 4.66864 116.152 4.99999 116.152C5.33135 116.152 5.6 115.884 5.6 115.552L4.39999 115.552ZM5.6 117.947C5.6 117.616 5.33135 117.347 4.99999 117.347C4.66864 117.347 4.39999 117.616 4.39999 117.947L5.6 117.947ZM4.39999 118.546C4.39999 118.877 4.66863 119.146 4.99999 119.146C5.33135 119.146 5.6 118.877 5.6 118.546L4.39999 118.546ZM5.6 120.941C5.6 120.61 5.33135 120.341 4.99999 120.341C4.66863 120.341 4.39999 120.61 4.39999 120.941L5.6 120.941ZM4.39999 121.54C4.39999 121.871 4.66863 122.14 4.99999 122.14C5.33135 122.14 5.6 121.871 5.6 121.54L4.39999 121.54ZM5.6 123.935C5.6 123.604 5.33135 123.335 4.99999 123.335C4.66863 123.335 4.39999 123.604 4.39999 123.935L5.6 123.935ZM4.39999 124.534C4.39999 124.865 4.66863 125.134 4.99999 125.134C5.33135 125.134 5.6 124.865 5.6 124.534L4.39999 124.534ZM5.6 126.929C5.6 126.597 5.33135 126.329 4.99999 126.329C4.66863 126.329 4.39999 126.597 4.39999 126.929L5.6 126.929ZM4.39999 127.528C4.39999 127.859 4.66863 128.128 4.99999 128.128C5.33135 128.128 5.6 127.859 5.6 127.528L4.39999 127.528ZM5.6 129.923C5.6 129.591 5.33135 129.323 4.99999 129.323C4.66863 129.323 4.39999 129.591 4.39999 129.923L5.6 129.923ZM4.39999 130.521C4.39999 130.853 4.66863 131.121 4.99999 131.121C5.33135 131.121 5.6 130.853 5.6 130.521L4.39999 130.521ZM5.6 132.917C5.6 132.585 5.33135 132.317 4.99999 132.317C4.66863 132.317 4.39999 132.585 4.39999 132.917L5.6 132.917ZM4.39999 133.515C4.39999 133.847 4.66863 134.115 4.99999 134.115C5.33135 134.115 5.6 133.847 5.6 133.515L4.39999 133.515ZM5.6 135.91C5.6 135.579 5.33135 135.31 4.99999 135.31C4.66863 135.31 4.39999 135.579 4.39999 135.91L5.6 135.91ZM4.39999 136.509C4.39999 136.84 4.66863 137.109 4.99999 137.109C5.33135 137.109 5.6 136.84 5.6 136.509L4.39999 136.509ZM5.6 138.904C5.6 138.573 5.33135 138.304 4.99999 138.304C4.66863 138.304 4.39999 138.573 4.39999 138.904L5.6 138.904ZM4.39999 139.503C4.39999 139.834 4.66863 140.103 4.99999 140.103C5.33135 140.103 5.6 139.834 5.6 139.503L4.39999 139.503ZM5.6 141.898C5.6 141.567 5.33135 141.298 4.99999 141.298C4.66863 141.298 4.39999 141.567 4.39999 141.898L5.6 141.898ZM4.39999 142.497C4.39999 142.828 4.66863 143.097 4.99999 143.097C5.33135 143.097 5.6 142.828 5.6 142.497L4.39999 142.497ZM5.6 144.892C5.6 144.56 5.33135 144.292 4.99999 144.292C4.66863 144.292 4.39999 144.56 4.39999 144.892L5.6 144.892ZM4.39999 145.491C4.39999 145.822 4.66863 146.091 4.99999 146.091C5.33135 146.091 5.6 145.822 5.6 145.491L4.39999 145.491ZM5.6 147.886C5.6 147.554 5.33135 147.286 4.99999 147.286C4.66863 147.286 4.39999 147.554 4.39999 147.886L5.6 147.886ZM4.39999 148.484C4.39999 148.816 4.66863 149.084 4.99999 149.084C5.33135 149.084 5.6 148.816 5.6 148.484L4.39999 148.484ZM5.6 150.88C5.6 150.548 5.33135 150.28 4.99999 150.28C4.66863 150.28 4.39999 150.548 4.39999 150.88L5.6 150.88ZM4.39999 151.478C4.39999 151.81 4.66863 152.078 4.99999 152.078C5.33135 152.078 5.6 151.81 5.6 151.478L4.39999 151.478ZM5.6 153.873C5.6 153.542 5.33135 153.273 4.99999 153.273C4.66863 153.273 4.39999 153.542 4.39999 153.873L5.6 153.873ZM4.39999 154.472C4.39999 154.803 4.66863 155.072 4.99999 155.072C5.33135 155.072 5.6 154.803 5.6 154.472L4.39999 154.472ZM5.6 156.867C5.6 156.536 5.33135 156.267 4.99999 156.267C4.66863 156.267 4.39999 156.536 4.39999 156.867L5.6 156.867ZM4.39999 157.466C4.39999 157.797 4.66863 158.066 4.99999 158.066C5.33135 158.066 5.6 157.797 5.6 157.466L4.39999 157.466ZM5.6 159.861C5.6 159.53 5.33135 159.261 4.99999 159.261C4.66863 159.261 4.39999 159.53 4.39999 159.861L5.6 159.861ZM4.39999 160.46C4.39999 160.791 4.66863 161.06 4.99999 161.06C5.33135 161.06 5.6 160.791 5.6 160.46L4.39999 160.46ZM5.6 162.855C5.6 162.523 5.33135 162.255 4.99999 162.255C4.66863 162.255 4.39999 162.523 4.39999 162.855L5.6 162.855ZM4.39999 163.454C4.39999 163.785 4.66863 164.054 4.99999 164.054C5.33135 164.054 5.6 163.785 5.6 163.454L4.39999 163.454ZM5.6 165.849C5.6 165.517 5.33135 165.249 4.99999 165.249C4.66863 165.249 4.39999 165.517 4.39999 165.849L5.6 165.849ZM4.39999 166.447C4.39999 166.779 4.66863 167.047 4.99999 167.047C5.33135 167.047 5.6 166.779 5.6 166.447L4.39999 166.447ZM5.6 168.843C5.6 168.511 5.33135 168.243 4.99999 168.243C4.66863 168.243 4.39999 168.511 4.39999 168.843L5.6 168.843ZM4.39999 169.441C4.39999 169.773 4.66863 170.041 4.99999 170.041C5.33135 170.041 5.6 169.773 5.6 169.441L4.39999 169.441ZM5.6 171.836C5.6 171.505 5.33135 171.236 4.99999 171.236C4.66863 171.236 4.39999 171.505 4.39999 171.836L5.6 171.836ZM4.39999 172.435C4.39999 172.767 4.66863 173.035 4.99999 173.035C5.33135 173.035 5.6 172.767 5.6 172.435L4.39999 172.435ZM5.6 174.83C5.6 174.499 5.33135 174.23 4.99999 174.23C4.66863 174.23 4.39999 174.499 4.39999 174.83L5.6 174.83ZM4.39999 175.429C4.39999 175.76 4.66863 176.029 4.99999 176.029C5.33135 176.029 5.6 175.76 5.6 175.429L4.39999 175.429ZM5.6 177.824C5.6 177.493 5.33135 177.224 4.99999 177.224C4.66863 177.224 4.39999 177.493 4.39999 177.824L5.6 177.824ZM4.39999 178.423C4.39999 178.754 4.66863 179.023 4.99999 179.023C5.33135 179.023 5.6 178.754 5.6 178.423L4.39999 178.423ZM5.6 180.818C5.6 180.487 5.33135 180.218 4.99999 180.218C4.66863 180.218 4.39999 180.487 4.39999 180.818L5.6 180.818ZM4.39999 181.417C4.39999 181.748 4.66863 182.017 4.99999 182.017C5.33135 182.017 5.6 181.748 5.6 181.417L4.39999 181.417ZM5.6 183.812C5.6 183.48 5.33135 183.212 4.99999 183.212C4.66863 183.212 4.39999 183.48 4.39999 183.812L5.6 183.812ZM4.39999 184.41C4.39999 184.742 4.66863 185.01 4.99999 185.01C5.33135 185.01 5.6 184.742 5.6 184.41L4.39999 184.41ZM5.6 186.806C5.6 186.474 5.33135 186.206 4.99999 186.206C4.66863 186.206 4.39999 186.474 4.39999 186.806L5.6 186.806ZM4.39999 187.404C4.39999 187.736 4.66863 188.004 4.99999 188.004C5.33135 188.004 5.6 187.736 5.6 187.404L4.39999 187.404ZM5.6 189.799C5.6 189.468 5.33135 189.199 4.99999 189.199C4.66863 189.199 4.39999 189.468 4.39999 189.799L5.6 189.799ZM4.39999 190.398C4.39999 190.73 4.66863 190.998 4.99999 190.998C5.33135 190.998 5.6 190.73 5.6 190.398L4.39999 190.398ZM5.6 192.793C5.6 192.462 5.33135 192.193 4.99999 192.193C4.66863 192.193 4.39999 192.462 4.39999 192.793L5.6 192.793ZM4.39999 193.392C4.39999 193.723 4.66863 193.992 4.99999 193.992C5.33135 193.992 5.6 193.723 5.6 193.392L4.39999 193.392ZM5.6 195.787C5.6 195.456 5.33135 195.187 4.99999 195.187C4.66863 195.187 4.39999 195.456 4.39999 195.787L5.6 195.787ZM4.39999 196.386C4.39999 196.717 4.66863 196.986 4.99999 196.986C5.33135 196.986 5.6 196.717 5.6 196.386L4.39999 196.386ZM5.6 198.781C5.6 198.45 5.33135 198.181 4.99999 198.181C4.66863 198.181 4.39999 198.45 4.39999 198.781L5.6 198.781ZM4.39999 199.38C4.39999 199.711 4.66863 199.98 4.99999 199.98C5.33135 199.98 5.6 199.711 5.6 199.38L4.39999 199.38ZM5.6 201.775C5.6 201.443 5.33135 201.175 4.99999 201.175C4.66863 201.175 4.39999 201.443 4.39999 201.775L5.6 201.775ZM4.39999 202.374C4.39999 202.705 4.66863 202.973 4.99999 202.973C5.33135 202.973 5.6 202.705 5.6 202.374L4.39999 202.374ZM5.6 204.769C5.6 204.437 5.33135 204.169 4.99999 204.169C4.66863 204.169 4.39999 204.437 4.39998 204.769L5.6 204.769ZM4.39998 205.367C4.39998 205.699 4.66863 205.967 4.99999 205.967C5.33135 205.967 5.6 205.699 5.6 205.367L4.39998 205.367ZM5.6 207.762C5.6 207.431 5.33135 207.162 4.99999 207.162C4.66863 207.162 4.39998 207.431 4.39998 207.762L5.6 207.762ZM4.39998 208.361C4.39998 208.693 4.66863 208.961 4.99999 208.961C5.33135 208.961 5.6 208.693 5.6 208.361L4.39998 208.361ZM5.6 210.756C5.6 210.425 5.33135 210.156 4.99999 210.156C4.66863 210.156 4.39998 210.425 4.39998 210.756L5.6 210.756ZM4.39998 211.355C4.39998 211.686 4.66863 211.955 4.99999 211.955C5.33135 211.955 5.6 211.686 5.6 211.355L4.39998 211.355ZM5.6 213.75C5.6 213.419 5.33135 213.15 4.99999 213.15C4.66863 213.15 4.39998 213.419 4.39998 213.75L5.6 213.75ZM4.39998 214.349C4.39998 214.68 4.66863 214.949 4.99999 214.949C5.33135 214.949 5.6 214.68 5.6 214.349L4.39998 214.349ZM5.6 216.744C5.6 216.413 5.33135 216.144 4.99999 216.144C4.66863 216.144 4.39998 216.413 4.39998 216.744L5.6 216.744ZM4.39998 217.343C4.39998 217.674 4.66863 217.943 4.99999 217.943C5.33135 217.943 5.6 217.674 5.6 217.343L4.39998 217.343ZM5.6 219.738C5.6 219.406 5.33135 219.138 4.99999 219.138C4.66863 219.138 4.39998 219.406 4.39998 219.738L5.6 219.738ZM4.39998 220.337C4.39998 220.668 4.66863 220.937 4.99999 220.937C5.33135 220.937 5.6 220.668 5.6 220.337L4.39998 220.337ZM5.6 222.732C5.6 222.4 5.33135 222.132 4.99999 222.132C4.66863 222.132 4.39998 222.4 4.39998 222.732L5.6 222.732ZM4.39998 223.33C4.39998 223.662 4.66863 223.93 4.99999 223.93C5.33135 223.93 5.6 223.662 5.6 223.33L4.39998 223.33ZM5.6 225.725C5.6 225.394 5.33135 225.125 4.99999 225.125C4.66863 225.125 4.39998 225.394 4.39998 225.725L5.6 225.725ZM4.39998 226.324C4.39998 226.656 4.66863 226.924 4.99999 226.924C5.33135 226.924 5.6 226.656 5.6 226.324L4.39998 226.324ZM5.6 228.719C5.6 228.388 5.33135 228.119 4.99999 228.119C4.66863 228.119 4.39998 228.388 4.39998 228.719L5.6 228.719ZM4.39998 229.318C4.39998 229.649 4.66863 229.918 4.99999 229.918C5.33135 229.918 5.6 229.649 5.6 229.318L4.39998 229.318ZM5.6 231.713C5.6 231.382 5.33135 231.113 4.99999 231.113C4.66863 231.113 4.39998 231.382 4.39998 231.713L5.6 231.713ZM4.39998 232.312C4.39998 232.643 4.66863 232.912 4.99999 232.912C5.33135 232.912 5.6 232.643 5.6 232.312L4.39998 232.312ZM5.6 234.707C5.6 234.376 5.33135 234.107 4.99999 234.107C4.66863 234.107 4.39998 234.376 4.39998 234.707L5.6 234.707ZM4.39998 235.306C4.39998 235.637 4.66863 235.906 4.99999 235.906C5.33135 235.906 5.6 235.637 5.6 235.306L4.39998 235.306ZM5.6 237.701C5.6 237.369 5.33135 237.101 4.99999 237.101C4.66863 237.101 4.39998 237.369 4.39998 237.701L5.6 237.701ZM386.4 1L386.4 1.31L387.6 1.31L387.6 1L386.4 1ZM386.4 3.79003L386.4 4.41003L387.6 4.41003L387.6 3.79003L386.4 3.79003ZM386.4 6.89006L386.4 7.51007L387.6 7.51007L387.6 6.89006L386.4 6.89006ZM386.4 9.99009L386.4 10.6101L387.6 10.6101L387.6 9.99009L386.4 9.99009ZM386.4 13.0901L386.4 13.4001L387.6 13.4001L387.6 13.0901L386.4 13.0901ZM386.4 13.4001C386.4 13.495 386.399 13.5897 386.397 13.6841L387.597 13.7073C387.599 13.6051 387.6 13.5027 387.6 13.4001L386.4 13.4001ZM386.178 15.9336C386.145 16.1197 386.108 16.3045 386.068 16.4881L387.241 16.7442C387.284 16.5452 387.324 16.3449 387.36 16.1433L386.178 15.9336ZM385.413 18.6501C385.344 18.8258 385.272 18.9999 385.197 19.1722L386.296 19.6537C386.378 19.4669 386.456 19.2783 386.531 19.0878L385.413 18.6501ZM384.13 21.1641C384.028 21.3229 383.923 21.4796 383.815 21.6341L384.799 22.3211C384.916 22.1538 385.03 21.9841 385.14 21.812L384.13 21.1641ZM382.38 23.3805C382.25 23.5164 382.116 23.6498 381.98 23.7805L382.812 24.6454C382.959 24.5039 383.104 24.3595 383.245 24.2123L382.38 23.3805ZM380.234 25.2154C380.079 25.3232 379.923 25.4281 379.764 25.53L380.412 26.54C380.584 26.4297 380.754 26.3161 380.921 26.1992L380.234 25.2154ZM377.772 26.5968C377.6 26.6723 377.426 26.7445 377.25 26.8133L377.688 27.9306C377.878 27.856 378.067 27.7778 378.254 27.696L377.772 26.5968ZM375.088 27.4684C374.904 27.5085 374.72 27.5451 374.534 27.5781L374.743 28.7596C374.945 28.7238 375.145 28.6842 375.344 28.6407L375.088 27.4684ZM372.284 27.7974C372.19 27.7992 372.095 27.8001 372 27.8001L372 29.0001C372.103 29.0001 372.205 28.9991 372.307 28.9972L372.284 27.7974ZM372 27.8001L371.699 27.8001L371.699 29.0001L372 29.0001L372 27.8001ZM369.292 27.8001L368.691 27.8001L368.691 29.0001L369.292 29.0001L369.292 27.8001ZM366.284 27.8001L365.682 27.8001L365.682 29.0001L366.284 29.0001L366.284 27.8001ZM363.275 27.8001L362.674 27.8001L362.674 29.0001L363.275 29.0001L363.275 27.8001ZM360.267 27.8002L359.665 27.8002L359.665 29.0002L360.267 29.0002L360.267 27.8002ZM357.258 27.8002L356.656 27.8002L356.656 29.0002L357.258 29.0002L357.258 27.8002ZM354.25 27.8002L353.648 27.8002L353.648 29.0002L354.25 29.0002L354.25 27.8002ZM351.241 27.8002L350.639 27.8002L350.639 29.0002L351.241 29.0002L351.241 27.8002ZM348.233 27.8002L347.631 27.8002L347.631 29.0002L348.233 29.0002L348.233 27.8002ZM345.224 27.8002L344.622 27.8002L344.622 29.0002L345.224 29.0002L345.224 27.8002ZM342.215 27.8002L341.614 27.8002L341.614 29.0002L342.215 29.0002L342.215 27.8002ZM339.207 27.8002L338.605 27.8002L338.605 29.0002L339.207 29.0002L339.207 27.8002ZM336.198 27.8002L335.597 27.8002L335.597 29.0002L336.198 29.0002L336.198 27.8002ZM333.19 27.8002L332.588 27.8002L332.588 29.0002L333.19 29.0002L333.19 27.8002ZM330.181 27.8002L329.58 27.8002L329.58 29.0002L330.181 29.0002L330.181 27.8002ZM327.173 27.8002L326.571 27.8002L326.571 29.0002L327.173 29.0002L327.173 27.8002ZM324.164 27.8002L323.562 27.8002L323.562 29.0002L324.164 29.0002L324.164 27.8002ZM321.156 27.8002L320.554 27.8002L320.554 29.0002L321.156 29.0002L321.156 27.8002ZM318.147 27.8002L317.545 27.8002L317.545 29.0002L318.147 29.0002L318.147 27.8002ZM315.138 27.8003L314.537 27.8003L314.537 29.0003L315.138 29.0003L315.138 27.8003ZM312.13 27.8003L311.528 27.8003L311.528 29.0003L312.13 29.0003L312.13 27.8003ZM309.121 27.8003L308.52 27.8003L308.52 29.0003L309.121 29.0003L309.121 27.8003ZM306.113 27.8003L305.511 27.8003L305.511 29.0003L306.113 29.0003L306.113 27.8003ZM303.104 27.8003L302.503 27.8003L302.503 29.0003L303.104 29.0003L303.104 27.8003ZM300.096 27.8003L299.494 27.8003L299.494 29.0003L300.096 29.0003L300.096 27.8003ZM297.087 27.8003L296.485 27.8003L296.485 29.0003L297.087 29.0003L297.087 27.8003ZM294.079 27.8003L293.477 27.8003L293.477 29.0003L294.079 29.0003L294.079 27.8003ZM291.07 27.8003L290.468 27.8003L290.468 29.0003L291.07 29.0003L291.07 27.8003ZM288.062 27.8003L287.46 27.8003L287.46 29.0003L288.062 29.0003L288.062 27.8003ZM285.053 27.8003L284.451 27.8003L284.451 29.0003L285.053 29.0003L285.053 27.8003ZM282.044 27.8003L281.443 27.8003L281.443 29.0003L282.044 29.0003L282.044 27.8003ZM279.036 27.8003L278.434 27.8003L278.434 29.0003L279.036 29.0003L279.036 27.8003ZM276.027 27.8003L275.426 27.8003L275.426 29.0003L276.027 29.0003L276.027 27.8003ZM273.019 27.8003L272.417 27.8003L272.417 29.0003L273.019 29.0003L273.019 27.8003ZM270.01 27.8004L269.409 27.8004L269.409 29.0004L270.01 29.0004L270.01 27.8004ZM267.002 27.8004L266.4 27.8004L266.4 29.0004L267.002 29.0004L267.002 27.8004ZM263.993 27.8004L263.391 27.8004L263.391 29.0004L263.993 29.0004L263.993 27.8004ZM260.985 27.8004L260.383 27.8004L260.383 29.0004L260.985 29.0004L260.985 27.8004ZM257.976 27.8004L257.374 27.8004L257.374 29.0004L257.976 29.0004L257.976 27.8004ZM254.968 27.8004L254.366 27.8004L254.366 29.0004L254.968 29.0004L254.968 27.8004ZM251.959 27.8004L251.357 27.8004L251.357 29.0004L251.959 29.0004L251.959 27.8004ZM248.95 27.8004L248.349 27.8004L248.349 29.0004L248.95 29.0004L248.95 27.8004ZM245.942 27.8004L245.34 27.8004L245.34 29.0004L245.942 29.0004L245.942 27.8004ZM242.933 27.8004L242.332 27.8004L242.332 29.0004L242.933 29.0004L242.933 27.8004ZM239.925 27.8004L239.323 27.8004L239.323 29.0004L239.925 29.0004L239.925 27.8004ZM236.916 27.8004L236.315 27.8004L236.315 29.0004L236.916 29.0004L236.916 27.8004ZM233.908 27.8004L233.306 27.8004L233.306 29.0004L233.908 29.0004L233.908 27.8004ZM230.899 27.8004L230.297 27.8004L230.297 29.0004L230.899 29.0004L230.899 27.8004ZM227.891 27.8004L227.289 27.8004L227.289 29.0004L227.891 29.0004L227.891 27.8004ZM224.882 27.8005L224.28 27.8005L224.28 29.0005L224.882 29.0005L224.882 27.8005ZM221.873 27.8005L221.272 27.8005L221.272 29.0005L221.873 29.0005L221.873 27.8005ZM218.865 27.8005L218.263 27.8005L218.263 29.0005L218.865 29.0005L218.865 27.8005ZM215.856 27.8005L215.255 27.8005L215.255 29.0005L215.856 29.0005L215.856 27.8005ZM212.848 27.8005L212.246 27.8005L212.246 29.0005L212.848 29.0005L212.848 27.8005ZM209.839 27.8005L209.238 27.8005L209.238 29.0005L209.839 29.0005L209.839 27.8005ZM206.831 27.8005L206.229 27.8005L206.229 29.0005L206.831 29.0005L206.831 27.8005ZM203.822 27.8005L203.22 27.8005L203.22 29.0005L203.822 29.0005L203.822 27.8005ZM200.814 27.8005L200.212 27.8005L200.212 29.0005L200.814 29.0005L200.814 27.8005ZM197.805 27.8005L197.203 27.8005L197.203 29.0005L197.805 29.0005L197.805 27.8005ZM194.796 27.8005L194.195 27.8005L194.195 29.0005L194.796 29.0005L194.796 27.8005ZM191.788 27.8005L191.186 27.8005L191.186 29.0005L191.788 29.0005L191.788 27.8005ZM188.779 27.8005L188.178 27.8005L188.178 29.0005L188.779 29.0005L188.779 27.8005ZM185.771 27.8005L185.169 27.8005L185.169 29.0005L185.771 29.0005L185.771 27.8005ZM182.762 27.8005L182.16 27.8005L182.16 29.0005L182.762 29.0005L182.762 27.8005ZM179.754 27.8006L179.152 27.8006L179.152 29.0006L179.754 29.0006L179.754 27.8006ZM176.745 27.8006L176.143 27.8006L176.143 29.0006L176.745 29.0006L176.745 27.8006ZM173.736 27.8006L173.135 27.8006L173.135 29.0006L173.736 29.0006L173.736 27.8006ZM170.728 27.8006L170.126 27.8006L170.126 29.0006L170.728 29.0006L170.728 27.8006ZM167.719 27.8006L167.118 27.8006L167.118 29.0006L167.719 29.0006L167.719 27.8006ZM164.711 27.8006L164.109 27.8006L164.109 29.0006L164.711 29.0006L164.711 27.8006ZM161.702 27.8006L161.101 27.8006L161.101 29.0006L161.702 29.0006L161.702 27.8006ZM158.694 27.8006L158.092 27.8006L158.092 29.0006L158.694 29.0006L158.694 27.8006ZM155.685 27.8006L155.083 27.8006L155.083 29.0006L155.685 29.0006L155.685 27.8006ZM152.677 27.8006L152.075 27.8006L152.075 29.0006L152.677 29.0006L152.677 27.8006ZM149.668 27.8006L149.066 27.8006L149.066 29.0006L149.668 29.0006L149.668 27.8006ZM146.659 27.8006L146.058 27.8006L146.058 29.0006L146.659 29.0006L146.659 27.8006ZM143.651 27.8006L143.049 27.8006L143.049 29.0006L143.651 29.0006L143.651 27.8006ZM140.642 27.8006L140.041 27.8006L140.041 29.0006L140.642 29.0006L140.642 27.8006ZM137.634 27.8006L137.032 27.8006L137.032 29.0006L137.634 29.0006L137.634 27.8006ZM134.625 27.8007L134.024 27.8007L134.024 29.0007L134.625 29.0007L134.625 27.8007ZM131.617 27.8007L131.015 27.8007L131.015 29.0007L131.617 29.0007L131.617 27.8007ZM128.608 27.8007L128.006 27.8007L128.006 29.0007L128.608 29.0007L128.608 27.8007ZM125.6 27.8007L124.998 27.8007L124.998 29.0007L125.6 29.0007L125.6 27.8007ZM122.591 27.8007L121.989 27.8007L121.989 29.0007L122.591 29.0007L122.591 27.8007ZM119.582 27.8007L118.981 27.8007L118.981 29.0007L119.582 29.0007L119.582 27.8007ZM116.574 27.8007L115.972 27.8007L115.972 29.0007L116.574 29.0007L116.574 27.8007ZM113.565 27.8007L112.964 27.8007L112.964 29.0007L113.565 29.0007L113.565 27.8007ZM110.557 27.8007L109.955 27.8007L109.955 29.0007L110.557 29.0007L110.557 27.8007ZM107.548 27.8007L106.947 27.8007L106.947 29.0007L107.548 29.0007L107.548 27.8007ZM104.54 27.8007L103.938 27.8007L103.938 29.0007L104.54 29.0007L104.54 27.8007ZM101.531 27.8007L100.929 27.8007L100.929 29.0007L101.531 29.0007L101.531 27.8007ZM98.5226 27.8007L97.9209 27.8007L97.9209 29.0007L98.5226 29.0007L98.5226 27.8007ZM95.514 27.8007L94.9123 27.8007L94.9123 29.0007L95.514 29.0007L95.514 27.8007ZM92.5055 27.8007L91.9038 27.8007L91.9038 29.0008L92.5055 29.0007L92.5055 27.8007ZM89.4969 27.8008L88.8952 27.8008L88.8952 29.0008L89.4969 29.0008L89.4969 27.8008ZM86.4884 27.8008L85.8867 27.8008L85.8867 29.0008L86.4884 29.0008L86.4884 27.8008ZM83.4799 27.8008L82.8781 27.8008L82.8781 29.0008L83.4799 29.0008L83.4799 27.8008ZM80.4713 27.8008L79.8696 27.8008L79.8696 29.0008L80.4713 29.0008L80.4713 27.8008ZM77.4628 27.8008L76.8611 27.8008L76.8611 29.0008L77.4628 29.0008L77.4628 27.8008ZM74.4542 27.8008L73.8525 27.8008L73.8525 29.0008L74.4542 29.0008L74.4542 27.8008ZM71.4457 27.8008L70.844 27.8008L70.844 29.0008L71.4457 29.0008L71.4457 27.8008ZM68.4371 27.8008L67.8354 27.8008L67.8354 29.0008L68.4371 29.0008L68.4371 27.8008ZM65.4286 27.8008L64.8269 27.8008L64.8269 29.0008L65.4286 29.0008L65.4286 27.8008ZM62.42 27.8008L61.8183 27.8008L61.8183 29.0008L62.42 29.0008L62.42 27.8008ZM59.4115 27.8008L58.8098 27.8008L58.8098 29.0008L59.4115 29.0008L59.4115 27.8008ZM56.403 27.8008L55.8012 27.8008L55.8012 29.0008L56.403 29.0008L56.403 27.8008ZM53.3944 27.8008L52.7927 27.8008L52.7927 29.0008L53.3944 29.0008L53.3944 27.8008ZM50.3859 27.8008L49.7841 27.8008L49.7841 29.0008L50.3859 29.0008L50.3859 27.8008ZM47.3773 27.8008L46.7756 27.8009L46.7756 29.0008L47.3773 29.0008L47.3773 27.8008ZM44.3688 27.8009L43.7671 27.8009L43.7671 29.0009L44.3688 29.0009L44.3688 27.8009ZM41.3602 27.8009L40.7585 27.8009L40.7585 29.0009L41.3602 29.0009L41.3602 27.8009ZM38.3517 27.8009L37.75 27.8009L37.75 29.0009L38.3517 29.0009L38.3517 27.8009ZM35.3431 27.8009L34.7414 27.8009L34.7414 29.0009L35.3431 29.0009L35.3431 27.8009ZM32.3346 27.8009L31.7329 27.8009L31.7329 29.0009L32.3346 29.0009L32.3346 27.8009ZM29.326 27.8009L28.7243 27.8009L28.7243 29.0009L29.326 29.0009L29.326 27.8009ZM26.3175 27.8009L25.7158 27.8009L25.7158 29.0009L26.3175 29.0009L26.3175 27.8009ZM23.309 27.8009L22.7072 27.8009L22.7072 29.0009L23.309 29.0009L23.309 27.8009ZM20.3004 27.8009L20 27.8009L20 29.0009L20.3004 29.0009L20.3004 27.8009ZM20 27.8009C19.8974 27.8009 19.795 27.8019 19.6928 27.8039L19.716 29.0037C19.8104 29.0018 19.9051 29.0009 20 29.0009L20 27.8009ZM17.2568 28.0414C17.0552 28.0772 16.8549 28.1169 16.6559 28.1603L16.912 29.3327C17.0955 29.2926 17.2804 29.256 17.4665 29.223L17.2568 28.0414ZM14.3123 28.8704C14.1218 28.945 13.9331 29.0233 13.7464 29.1051L14.2279 30.2043C14.4002 30.1288 14.5742 30.0566 14.75 29.9877L14.3123 28.8704ZM11.588 30.261C11.416 30.3714 11.2463 30.485 11.079 30.6018L11.7661 31.5857C11.9205 31.4778 12.0772 31.3729 12.236 31.2711L11.588 30.261ZM9.18777 32.1556C9.04062 32.2972 8.89624 32.4415 8.7547 32.5887L9.61963 33.4205C9.75033 33.2846 9.88367 33.1513 10.0196 33.0205L9.18777 32.1556ZM7.20087 34.48C7.08404 34.6473 6.97043 34.817 6.86011 34.989L7.87015 35.6369C7.97201 35.4781 8.0769 35.3214 8.18475 35.167L7.20087 34.48ZM5.70416 37.1473C5.62234 37.3341 5.5441 37.5228 5.46948 37.7133L6.58682 38.1509C6.65567 37.9752 6.72784 37.8011 6.80334 37.6288L5.70416 37.1473ZM4.7594 40.0569C4.71594 40.2558 4.67627 40.4561 4.6405 40.6578L5.82205 40.8674C5.85507 40.6813 5.89166 40.4965 5.93173 40.313L4.7594 40.0569ZM4.40295 43.0937C4.401 43.1959 4.39999 43.2983 4.39999 43.4009L5.6 43.4009C5.6 43.306 5.60092 43.2114 5.60275 43.1169L4.40295 43.0937ZM4.39999 43.4009L4.39999 43.7003L5.6 43.7003L5.6 43.4009L4.39999 43.4009ZM4.39999 46.0954L4.39999 46.6941L5.6 46.6941L5.6 46.0954L4.39999 46.0954ZM4.39999 49.0892L4.39999 49.688L5.6 49.688L5.6 49.0892L4.39999 49.0892ZM4.39999 52.083L4.39999 52.6818L5.6 52.6818L5.6 52.083L4.39999 52.083ZM4.39999 55.0769L4.39999 55.6756L5.6 55.6756L5.6 55.0769L4.39999 55.0769ZM4.39999 58.0707L4.39999 58.6695L5.6 58.6695L5.6 58.0707L4.39999 58.0707ZM4.39999 61.0645L4.39999 61.6633L5.6 61.6633L5.6 61.0645L4.39999 61.0645ZM4.39999 64.0583L4.39999 64.6571L5.6 64.6571L5.6 64.0583L4.39999 64.0583ZM4.39999 67.0522L4.39999 67.6509L5.6 67.6509L5.6 67.0522L4.39999 67.0522ZM4.39999 70.046L4.39999 70.6448L5.6 70.6448L5.6 70.046L4.39999 70.046ZM4.39999 73.0398L4.39999 73.6386L5.6 73.6386L5.6 73.0398L4.39999 73.0398ZM4.39999 76.0337L4.39999 76.6324L5.6 76.6324L5.6 76.0337L4.39999 76.0337ZM4.39999 79.0275L4.39999 79.6263L5.6 79.6263L5.6 79.0275L4.39999 79.0275ZM4.39999 82.0213L4.39999 82.6201L5.6 82.6201L5.6 82.0213L4.39999 82.0213ZM4.39999 85.0152L4.39999 85.6139L5.6 85.6139L5.6 85.0152L4.39999 85.0152ZM4.39999 88.009L4.39999 88.6078L5.6 88.6078L5.6 88.009L4.39999 88.009ZM4.39999 91.0028L4.39999 91.6016L5.6 91.6016L5.6 91.0028L4.39999 91.0028ZM4.39999 93.9967L4.39999 94.5954L5.6 94.5954L5.6 93.9967L4.39999 93.9967ZM4.39999 96.9905L4.39999 97.5893L5.6 97.5893L5.6 96.9905L4.39999 96.9905ZM4.39999 99.9843L4.39999 100.583L5.6 100.583L5.6 99.9843L4.39999 99.9843ZM4.39999 102.978L4.39999 103.577L5.6 103.577L5.6 102.978L4.39999 102.978ZM4.39999 105.972L4.39999 106.571L5.6 106.571L5.6 105.972L4.39999 105.972ZM4.39999 108.966L4.39999 109.565L5.6 109.565L5.6 108.966L4.39999 108.966ZM4.39999 111.96L4.39999 112.558L5.6 112.558L5.6 111.96L4.39999 111.96ZM4.39999 114.953L4.39999 115.552L5.6 115.552L5.6 114.953L4.39999 114.953ZM4.39999 117.947L4.39999 118.546L5.6 118.546L5.6 117.947L4.39999 117.947ZM4.39999 120.941L4.39999 121.54L5.6 121.54L5.6 120.941L4.39999 120.941ZM4.39999 123.935L4.39999 124.534L5.6 124.534L5.6 123.935L4.39999 123.935ZM4.39999 126.929L4.39999 127.528L5.6 127.528L5.6 126.929L4.39999 126.929ZM4.39999 129.923L4.39999 130.521L5.6 130.521L5.6 129.923L4.39999 129.923ZM4.39999 132.917L4.39999 133.515L5.6 133.515L5.6 132.917L4.39999 132.917ZM4.39999 135.91L4.39999 136.509L5.6 136.509L5.6 135.91L4.39999 135.91ZM4.39999 138.904L4.39999 139.503L5.6 139.503L5.6 138.904L4.39999 138.904ZM4.39999 141.898L4.39999 142.497L5.6 142.497L5.6 141.898L4.39999 141.898ZM4.39999 144.892L4.39999 145.491L5.6 145.491L5.6 144.892L4.39999 144.892ZM4.39999 147.886L4.39999 148.484L5.6 148.484L5.6 147.886L4.39999 147.886ZM4.39999 150.88L4.39999 151.478L5.6 151.478L5.6 150.88L4.39999 150.88ZM4.39999 153.873L4.39999 154.472L5.6 154.472L5.6 153.873L4.39999 153.873ZM4.39999 156.867L4.39999 157.466L5.6 157.466L5.6 156.867L4.39999 156.867ZM4.39999 159.861L4.39999 160.46L5.6 160.46L5.6 159.861L4.39999 159.861ZM4.39999 162.855L4.39999 163.454L5.6 163.454L5.6 162.855L4.39999 162.855ZM4.39999 165.849L4.39999 166.447L5.6 166.447L5.6 165.849L4.39999 165.849ZM4.39999 168.843L4.39999 169.441L5.6 169.441L5.6 168.843L4.39999 168.843ZM4.39999 171.836L4.39999 172.435L5.6 172.435L5.6 171.836L4.39999 171.836ZM4.39999 174.83L4.39999 175.429L5.6 175.429L5.6 174.83L4.39999 174.83ZM4.39999 177.824L4.39999 178.423L5.6 178.423L5.6 177.824L4.39999 177.824ZM4.39999 180.818L4.39999 181.417L5.6 181.417L5.6 180.818L4.39999 180.818ZM4.39999 183.812L4.39999 184.41L5.6 184.41L5.6 183.812L4.39999 183.812ZM4.39999 186.806L4.39999 187.404L5.6 187.404L5.6 186.806L4.39999 186.806ZM4.39999 189.799L4.39999 190.398L5.6 190.398L5.6 189.799L4.39999 189.799ZM4.39999 192.793L4.39999 193.392L5.6 193.392L5.6 192.793L4.39999 192.793ZM4.39999 195.787L4.39999 196.386L5.6 196.386L5.6 195.787L4.39999 195.787ZM4.39999 198.781L4.39999 199.38L5.6 199.38L5.6 198.781L4.39999 198.781ZM4.39999 201.775L4.39999 202.374L5.6 202.374L5.6 201.775L4.39999 201.775ZM4.39998 204.769L4.39998 205.367L5.6 205.367L5.6 204.769L4.39998 204.769ZM4.39998 207.762L4.39998 208.361L5.6 208.361L5.6 207.762L4.39998 207.762ZM4.39998 210.756L4.39998 211.355L5.6 211.355L5.6 210.756L4.39998 210.756ZM4.39998 213.75L4.39998 214.349L5.6 214.349L5.6 213.75L4.39998 213.75ZM4.39998 216.744L4.39998 217.343L5.6 217.343L5.6 216.744L4.39998 216.744ZM4.39998 219.738L4.39998 220.337L5.6 220.337L5.6 219.738L4.39998 219.738ZM4.39998 222.732L4.39998 223.33L5.6 223.33L5.6 222.732L4.39998 222.732ZM4.39998 225.725L4.39998 226.324L5.6 226.324L5.6 225.725L4.39998 225.725ZM4.39998 228.719L4.39998 229.318L5.6 229.318L5.6 228.719L4.39998 228.719ZM4.39998 231.713L4.39998 232.312L5.6 232.312L5.6 231.713L4.39998 231.713ZM4.39998 234.707L4.39998 235.306L5.6 235.306L5.6 234.707L4.39998 234.707ZM4.39998 237.701L4.39998 238L5.6 238L5.6 237.701L4.39998 237.701Z" fill="#6B6B6B"/>
</svg>
