<svg width="138" height="201" viewBox="0 0 138 201" fill="none" xmlns="http://www.w3.org/2000/svg">
<path d="M137 2.1C137.331 2.1 137.6 1.83137 137.6 1.5C137.6 1.16863 137.331 0.9 137 0.9L137 2.1ZM4.57572 199.924C4.81003 200.159 5.18995 200.159 5.42426 199.924L9.24263 196.106C9.47695 195.872 9.47695 195.492 9.24263 195.257C9.00832 195.023 8.62842 195.023 8.39411 195.257L4.99999 198.651L1.60587 195.257C1.37156 195.023 0.99166 195.023 0.757346 195.257C0.523032 195.492 0.523032 195.872 0.757346 196.106L4.57572 199.924ZM136.7 0.9C136.369 0.9 136.1 1.16863 136.1 1.5C136.1 1.83137 136.369 2.1 136.7 2.1L136.7 0.9ZM134.3 2.1C134.631 2.1 134.9 1.83137 134.9 1.5C134.9 1.16863 134.631 0.9 134.3 0.9L134.3 2.1ZM133.7 0.9C133.369 0.9 133.1 1.16863 133.1 1.5C133.1 1.83137 133.369 2.1 133.7 2.1L133.7 0.9ZM131.3 2.1C131.631 2.1 131.9 1.83137 131.9 1.5C131.9 1.16863 131.631 0.9 131.3 0.9L131.3 2.1ZM130.7 0.9C130.369 0.9 130.1 1.16863 130.1 1.5C130.1 1.83137 130.369 2.1 130.7 2.1L130.7 0.9ZM128.3 2.1C128.631 2.1 128.9 1.83137 128.9 1.5C128.9 1.16863 128.631 0.9 128.3 0.9L128.3 2.1ZM127.7 0.9C127.369 0.9 127.1 1.16863 127.1 1.5C127.1 1.83137 127.369 2.1 127.7 2.1L127.7 0.9ZM125.3 2.1C125.631 2.1 125.9 1.83137 125.9 1.5C125.9 1.16863 125.631 0.9 125.3 0.9L125.3 2.1ZM124.7 0.9C124.369 0.9 124.1 1.16863 124.1 1.5C124.1 1.83137 124.369 2.1 124.7 2.1L124.7 0.9ZM122.3 2.1C122.631 2.1 122.9 1.83137 122.9 1.5C122.9 1.16863 122.631 0.9 122.3 0.9L122.3 2.1ZM121.7 0.9C121.369 0.9 121.1 1.16863 121.1 1.5C121.1 1.83137 121.369 2.1 121.7 2.1L121.7 0.9ZM119.3 2.1C119.631 2.1 119.9 1.83137 119.9 1.5C119.9 1.16863 119.631 0.9 119.3 0.9L119.3 2.1ZM118.7 0.9C118.369 0.9 118.1 1.16863 118.1 1.5C118.1 1.83137 118.369 2.1 118.7 2.1L118.7 0.9ZM116.3 2.1C116.631 2.1 116.9 1.83137 116.9 1.5C116.9 1.16863 116.631 0.9 116.3 0.9L116.3 2.1ZM115.7 0.9C115.369 0.9 115.1 1.16863 115.1 1.5C115.1 1.83137 115.369 2.1 115.7 2.1L115.7 0.9ZM113.3 2.1C113.631 2.1 113.9 1.83137 113.9 1.5C113.9 1.16863 113.631 0.9 113.3 0.9L113.3 2.1ZM112.7 0.9C112.369 0.9 112.1 1.16863 112.1 1.5C112.1 1.83137 112.369 2.1 112.7 2.1L112.7 0.9ZM110.3 2.1C110.631 2.1 110.9 1.83137 110.9 1.5C110.9 1.16863 110.631 0.900001 110.3 0.900001L110.3 2.1ZM109.7 0.900001C109.369 0.900001 109.1 1.16863 109.1 1.5C109.1 1.83137 109.369 2.1 109.7 2.1L109.7 0.900001ZM107.3 2.1C107.631 2.1 107.9 1.83137 107.9 1.5C107.9 1.16863 107.631 0.900001 107.3 0.900001L107.3 2.1ZM106.7 0.900001C106.369 0.900001 106.1 1.16863 106.1 1.5C106.1 1.83137 106.369 2.1 106.7 2.1L106.7 0.900001ZM104.3 2.1C104.631 2.1 104.9 1.83137 104.9 1.5C104.9 1.16863 104.631 0.900001 104.3 0.900001L104.3 2.1ZM103.7 0.900001C103.369 0.900001 103.1 1.16863 103.1 1.5C103.1 1.83137 103.369 2.1 103.7 2.1L103.7 0.900001ZM101.3 2.1C101.631 2.1 101.9 1.83137 101.9 1.5C101.9 1.16863 101.631 0.900001 101.3 0.900001L101.3 2.1ZM100.7 0.900001C100.369 0.900001 100.1 1.16863 100.1 1.5C100.1 1.83137 100.369 2.1 100.7 2.1L100.7 0.900001ZM98.3 2.1C98.6314 2.1 98.9 1.83137 98.9 1.5C98.9 1.16863 98.6314 0.900001 98.3 0.900001L98.3 2.1ZM97.7 0.900001C97.3686 0.900001 97.1 1.16863 97.1 1.5C97.1 1.83137 97.3686 2.1 97.7 2.1L97.7 0.900001ZM95.3 2.1C95.6314 2.1 95.9 1.83137 95.9 1.5C95.9 1.16863 95.6314 0.900001 95.3 0.900001L95.3 2.1ZM94.7 0.900001C94.3686 0.900001 94.1 1.16863 94.1 1.5C94.1 1.83137 94.3686 2.1 94.7 2.1L94.7 0.900001ZM92.3 2.1C92.6314 2.1 92.9 1.83137 92.9 1.5C92.9 1.16863 92.6314 0.900001 92.3 0.900001L92.3 2.1ZM91.7 0.900001C91.3686 0.900001 91.1 1.16863 91.1 1.5C91.1 1.83137 91.3686 2.1 91.7 2.1L91.7 0.900001ZM89.3 2.1C89.6314 2.1 89.9 1.83137 89.9 1.5C89.9 1.16863 89.6314 0.900001 89.3 0.900001L89.3 2.1ZM88.7 0.900001C88.3686 0.900001 88.1 1.16863 88.1 1.5C88.1 1.83137 88.3686 2.1 88.7 2.1L88.7 0.900001ZM86.3 2.1C86.6314 2.1 86.9 1.83137 86.9 1.5C86.9 1.16863 86.6314 0.900001 86.3 0.900001L86.3 2.1ZM85.7 0.900001C85.3686 0.900001 85.1 1.16863 85.1 1.5C85.1 1.83137 85.3686 2.1 85.7 2.1L85.7 0.900001ZM83.3 2.1C83.6314 2.1 83.9 1.83137 83.9 1.5C83.9 1.16863 83.6314 0.900001 83.3 0.900001L83.3 2.1ZM82.7 0.900001C82.3686 0.900001 82.1 1.16863 82.1 1.5C82.1 1.83137 82.3686 2.1 82.7 2.1L82.7 0.900001ZM80.3 2.1C80.6314 2.1 80.9 1.83137 80.9 1.5C80.9 1.16863 80.6314 0.900001 80.3 0.900001L80.3 2.1ZM79.7 0.900001C79.3686 0.900001 79.1 1.16863 79.1 1.5C79.1 1.83137 79.3686 2.1 79.7 2.1L79.7 0.900001ZM77.3 2.1C77.6314 2.1 77.9 1.83137 77.9 1.5C77.9 1.16863 77.6314 0.900001 77.3 0.900001L77.3 2.1ZM76.7 0.900001C76.3686 0.900001 76.1 1.16863 76.1 1.5C76.1 1.83137 76.3686 2.1 76.7 2.1L76.7 0.900001ZM74.3 2.1C74.6314 2.1 74.9 1.83137 74.9 1.5C74.9 1.16863 74.6314 0.900001 74.3 0.900001L74.3 2.1ZM73.7 0.900001C73.3686 0.900001 73.1 1.16863 73.1 1.5C73.1 1.83137 73.3686 2.1 73.7 2.1L73.7 0.900001ZM71.3 2.1C71.6314 2.1 71.9 1.83137 71.9 1.5C71.9 1.16863 71.6314 0.900001 71.3 0.900001L71.3 2.1ZM70.7 0.900001C70.3686 0.900001 70.1 1.16863 70.1 1.5C70.1 1.83137 70.3686 2.1 70.7 2.1L70.7 0.900001ZM68.3 2.1C68.6314 2.1 68.9 1.83137 68.9 1.5C68.9 1.16863 68.6314 0.900001 68.3 0.900001L68.3 2.1ZM67.7 0.900001C67.3686 0.900001 67.1 1.16863 67.1 1.5C67.1 1.83137 67.3686 2.1 67.7 2.1L67.7 0.900001ZM65.3 2.1C65.6314 2.1 65.9 1.83137 65.9 1.5C65.9 1.16863 65.6314 0.900001 65.3 0.900001L65.3 2.1ZM64.7 0.900001C64.3686 0.900001 64.1 1.16863 64.1 1.5C64.1 1.83137 64.3686 2.1 64.7 2.1L64.7 0.900001ZM62.3 2.1C62.6314 2.1 62.9 1.83137 62.9 1.5C62.9 1.16863 62.6314 0.900001 62.3 0.900001L62.3 2.1ZM61.7 0.900002C61.3686 0.900002 61.1 1.16863 61.1 1.5C61.1 1.83137 61.3686 2.1 61.7 2.1L61.7 0.900002ZM59.3 2.1C59.6314 2.1 59.9 1.83137 59.9 1.5C59.9 1.16863 59.6314 0.900002 59.3 0.900002L59.3 2.1ZM58.7 0.900002C58.3686 0.900002 58.1 1.16863 58.1 1.5C58.1 1.83137 58.3686 2.1 58.7 2.1L58.7 0.900002ZM56.3 2.1C56.6314 2.1 56.9 1.83137 56.9 1.5C56.9 1.16863 56.6314 0.900002 56.3 0.900002L56.3 2.1ZM55.7 0.900002C55.3686 0.900002 55.1 1.16863 55.1 1.5C55.1 1.83137 55.3686 2.1 55.7 2.1L55.7 0.900002ZM53.3 2.1C53.6314 2.1 53.9 1.83137 53.9 1.5C53.9 1.16863 53.6314 0.900002 53.3 0.900002L53.3 2.1ZM52.7 0.900002C52.3686 0.900002 52.1 1.16863 52.1 1.5C52.1 1.83137 52.3686 2.1 52.7 2.1L52.7 0.900002ZM50.3 2.1C50.6314 2.1 50.9 1.83137 50.9 1.5C50.9 1.16863 50.6314 0.900002 50.3 0.900002L50.3 2.1ZM49.7 0.900002C49.3686 0.900002 49.1 1.16863 49.1 1.5C49.1 1.83137 49.3686 2.1 49.7 2.1L49.7 0.900002ZM47.3 2.1C47.6314 2.1 47.9 1.83137 47.9 1.5C47.9 1.16863 47.6314 0.900002 47.3 0.900002L47.3 2.1ZM46.7 0.900002C46.3686 0.900002 46.1 1.16863 46.1 1.5C46.1 1.83137 46.3686 2.1 46.7 2.1L46.7 0.900002ZM44.3 2.1C44.6314 2.1 44.9 1.83137 44.9 1.5C44.9 1.16863 44.6314 0.900002 44.3 0.900002L44.3 2.1ZM43.7 0.900002C43.3686 0.900002 43.1 1.16863 43.1 1.5C43.1 1.83137 43.3686 2.1 43.7 2.1L43.7 0.900002ZM41.3 2.1C41.6314 2.1 41.9 1.83137 41.9 1.5C41.9 1.16863 41.6314 0.900002 41.3 0.900002L41.3 2.1ZM40.7 0.900002C40.3686 0.900002 40.1 1.16863 40.1 1.5C40.1 1.83137 40.3686 2.1 40.7 2.1L40.7 0.900002ZM38.3 2.1C38.6314 2.1 38.9 1.83137 38.9 1.5C38.9 1.16863 38.6314 0.900002 38.3 0.900002L38.3 2.1ZM37.7 0.900002C37.3686 0.900002 37.1 1.16863 37.1 1.5C37.1 1.83137 37.3686 2.1 37.7 2.1L37.7 0.900002ZM35.3 2.1C35.6314 2.1 35.9 1.83137 35.9 1.5C35.9 1.16863 35.6314 0.900002 35.3 0.900002L35.3 2.1ZM34.7 0.900002C34.3686 0.900002 34.1 1.16863 34.1 1.5C34.1 1.83137 34.3686 2.1 34.7 2.1L34.7 0.900002ZM32.3 2.1C32.6314 2.1 32.9 1.83137 32.9 1.5C32.9 1.16863 32.6314 0.900002 32.3 0.900002L32.3 2.1ZM31.7 0.900002C31.3686 0.900002 31.1 1.16863 31.1 1.5C31.1 1.83137 31.3686 2.1 31.7 2.1L31.7 0.900002ZM29.3 2.1C29.6314 2.1 29.9 1.83137 29.9 1.5C29.9 1.16863 29.6314 0.900002 29.3 0.900002L29.3 2.1ZM28.7 0.900002C28.3686 0.900002 28.1 1.16863 28.1 1.5C28.1 1.83137 28.3686 2.1 28.7 2.1L28.7 0.900002ZM26.3 2.1C26.6314 2.1 26.9 1.83137 26.9 1.5C26.9 1.16863 26.6314 0.900002 26.3 0.900002L26.3 2.1ZM25.7 0.900002C25.3686 0.900002 25.1 1.16863 25.1 1.5C25.1 1.83137 25.3686 2.1 25.7 2.1L25.7 0.900002ZM23.3 2.1C23.6314 2.1 23.9 1.83137 23.9 1.5C23.9 1.16863 23.6314 0.900002 23.3 0.900002L23.3 2.1ZM22.7 0.900002C22.3686 0.900002 22.1 1.16863 22.1 1.5C22.1 1.83137 22.3686 2.1 22.7 2.1L22.7 0.900002ZM20.3 2.1C20.6314 2.1 20.9 1.83137 20.9 1.5C20.9 1.16863 20.6314 0.900002 20.3 0.900002L20.3 2.1ZM19.6928 0.902968C19.3615 0.909372 19.0981 1.18314 19.1045 1.51445C19.1109 1.84576 19.3847 2.10915 19.716 2.10274L19.6928 0.902968ZM17.4665 2.32205C17.7928 2.26415 18.0103 1.95272 17.9524 1.62645C17.8946 1.30017 17.5831 1.08261 17.2569 1.1405L17.4665 2.32205ZM16.656 1.25939C16.3322 1.33011 16.1271 1.64988 16.1978 1.97362C16.2686 2.29735 16.5883 2.50246 16.9121 2.43174L16.656 1.25939ZM14.75 3.08682C15.0586 2.96596 15.2107 2.61785 15.0899 2.30931C14.969 2.00077 14.6209 1.84862 14.3123 1.96948L14.75 3.08682ZM13.7464 2.20417C13.4429 2.33713 13.3046 2.69097 13.4376 2.99449C13.5705 3.29802 13.9244 3.4363 14.2279 3.30334L13.7464 2.20417ZM12.236 4.37016C12.5149 4.19124 12.596 3.82009 12.4171 3.54117C12.2381 3.26225 11.867 3.18119 11.5881 3.3601L12.236 4.37016ZM11.0791 3.70088C10.8074 3.89058 10.7409 4.26463 10.9306 4.53632C11.1203 4.80801 11.4944 4.87447 11.7661 4.68476L11.0791 3.70088ZM10.0196 6.11963C10.2584 5.88993 10.2659 5.51011 10.0362 5.27127C9.80646 5.03242 9.42664 5.02501 9.18779 5.25471L10.0196 6.11963ZM8.7547 5.68779C8.52501 5.92663 8.53242 6.30646 8.77127 6.53616C9.01011 6.76586 9.38993 6.75844 9.61963 6.5196L8.7547 5.68779ZM8.18477 8.26606C8.37447 7.99437 8.30801 7.62033 8.03632 7.43062C7.76462 7.24091 7.39058 7.30737 7.20087 7.57906L8.18477 8.26606ZM6.86009 8.08807C6.68118 8.36699 6.76225 8.73814 7.04117 8.91705C7.32008 9.09597 7.69124 9.0149 7.87015 8.73598L6.86009 8.08807ZM6.80334 10.7279C6.93629 10.4244 6.79802 10.0705 6.49449 9.93757C6.19096 9.80461 5.83713 9.94289 5.70416 10.2464L6.80334 10.7279ZM5.46948 10.8123C5.34862 11.1209 5.50076 11.469 5.80931 11.5899C6.11786 11.7107 6.46596 11.5586 6.58682 11.25L5.46948 10.8123ZM5.93175 13.4121C6.00246 13.0883 5.79735 12.7686 5.47362 12.6978C5.14987 12.6271 4.83011 12.8322 4.75938 13.156L5.93175 13.4121ZM4.6405 13.7569C4.58261 14.0831 4.80017 14.3946 5.12645 14.4524C5.45271 14.5103 5.76414 14.2928 5.82204 13.9665L4.6405 13.7569ZM5.60274 16.216C5.60915 15.8847 5.34576 15.6109 5.01445 15.6045C4.68314 15.5981 4.40936 15.8615 4.40297 16.1928L5.60274 16.216ZM4.39999 16.8C4.39999 17.1314 4.66862 17.4 5 17.4C5.33137 17.4 5.60001 17.1314 5.60001 16.8L4.39999 16.8ZM5.60001 19.2C5.60001 18.8686 5.33137 18.6 5 18.6C4.66862 18.6 4.39999 18.8686 4.39999 19.2L5.60001 19.2ZM4.39999 19.8C4.39999 20.1314 4.66862 20.4 5 20.4C5.33137 20.4 5.60001 20.1314 5.60001 19.8L4.39999 19.8ZM5.60001 22.2C5.60001 21.8686 5.33137 21.6 5 21.6C4.66862 21.6 4.39999 21.8686 4.39999 22.2L5.60001 22.2ZM4.39999 22.8C4.39999 23.1314 4.66862 23.4 5 23.4C5.33137 23.4 5.60001 23.1314 5.60001 22.8L4.39999 22.8ZM5.60001 25.2C5.60001 24.8686 5.33137 24.6 5 24.6C4.66862 24.6 4.39999 24.8686 4.39999 25.2L5.60001 25.2ZM4.39999 25.8C4.39999 26.1314 4.66862 26.4 5 26.4C5.33137 26.4 5.60001 26.1314 5.60001 25.8L4.39999 25.8ZM5.6 28.2C5.6 27.8686 5.33137 27.6 5 27.6C4.66862 27.6 4.39999 27.8686 4.39999 28.2L5.6 28.2ZM4.39999 28.8C4.39999 29.1314 4.66862 29.4 5 29.4C5.33137 29.4 5.6 29.1314 5.6 28.8L4.39999 28.8ZM5.6 31.2C5.6 30.8686 5.33137 30.6 5 30.6C4.66862 30.6 4.39999 30.8686 4.39999 31.2L5.6 31.2ZM4.39999 31.8C4.39999 32.1314 4.66862 32.4 5 32.4C5.33137 32.4 5.6 32.1314 5.6 31.8L4.39999 31.8ZM5.6 34.2C5.6 33.8686 5.33137 33.6 5 33.6C4.66862 33.6 4.39999 33.8686 4.39999 34.2L5.6 34.2ZM4.39999 34.8C4.39999 35.1314 4.66862 35.4 5 35.4C5.33137 35.4 5.6 35.1314 5.6 34.8L4.39999 34.8ZM5.6 37.2C5.6 36.8686 5.33137 36.6 5 36.6C4.66862 36.6 4.39999 36.8686 4.39999 37.2L5.6 37.2ZM4.39999 37.8C4.39999 38.1314 4.66862 38.4 5 38.4C5.33137 38.4 5.6 38.1314 5.6 37.8L4.39999 37.8ZM5.6 40.2C5.6 39.8686 5.33137 39.6 5 39.6C4.66862 39.6 4.39999 39.8686 4.39999 40.2L5.6 40.2ZM4.39999 40.8C4.39999 41.1314 4.66862 41.4 5 41.4C5.33137 41.4 5.6 41.1314 5.6 40.8L4.39999 40.8ZM5.6 43.2C5.6 42.8686 5.33137 42.6 5 42.6C4.66862 42.6 4.39999 42.8686 4.39999 43.2L5.6 43.2ZM4.39999 43.8C4.39999 44.1314 4.66862 44.4 5 44.4C5.33137 44.4 5.6 44.1314 5.6 43.8L4.39999 43.8ZM5.6 46.2C5.6 45.8686 5.33137 45.6 5 45.6C4.66862 45.6 4.39999 45.8686 4.39999 46.2L5.6 46.2ZM4.39999 46.8C4.39999 47.1314 4.66862 47.4 5 47.4C5.33137 47.4 5.6 47.1314 5.6 46.8L4.39999 46.8ZM5.6 49.2C5.6 48.8686 5.33137 48.6 5 48.6C4.66862 48.6 4.39999 48.8686 4.39999 49.2L5.6 49.2ZM4.39999 49.8C4.39999 50.1314 4.66862 50.4 5 50.4C5.33137 50.4 5.6 50.1314 5.6 49.8L4.39999 49.8ZM5.6 52.2C5.6 51.8686 5.33137 51.6 5 51.6C4.66862 51.6 4.39999 51.8686 4.39999 52.2L5.6 52.2ZM4.39999 52.8C4.39999 53.1314 4.66862 53.4 5 53.4C5.33137 53.4 5.6 53.1314 5.6 52.8L4.39999 52.8ZM5.6 55.2C5.6 54.8686 5.33137 54.6 5 54.6C4.66862 54.6 4.39999 54.8686 4.39999 55.2L5.6 55.2ZM4.39999 55.8C4.39999 56.1314 4.66862 56.4 5 56.4C5.33137 56.4 5.6 56.1314 5.6 55.8L4.39999 55.8ZM5.6 58.2C5.6 57.8686 5.33137 57.6 5 57.6C4.66862 57.6 4.39999 57.8686 4.39999 58.2L5.6 58.2ZM4.39999 58.8C4.39999 59.1314 4.66862 59.4 5 59.4C5.33137 59.4 5.6 59.1314 5.6 58.8L4.39999 58.8ZM5.6 61.2C5.6 60.8686 5.33137 60.6 5 60.6C4.66862 60.6 4.39999 60.8686 4.39999 61.2L5.6 61.2ZM4.39999 61.8C4.39999 62.1314 4.66862 62.4 5 62.4C5.33137 62.4 5.6 62.1314 5.6 61.8L4.39999 61.8ZM5.6 64.2C5.6 63.8686 5.33137 63.6 5 63.6C4.66862 63.6 4.39999 63.8686 4.39999 64.2L5.6 64.2ZM4.39999 64.8C4.39999 65.1314 4.66862 65.4 5 65.4C5.33137 65.4 5.6 65.1314 5.6 64.8L4.39999 64.8ZM5.6 67.2C5.6 66.8686 5.33137 66.6 5 66.6C4.66862 66.6 4.39999 66.8686 4.39999 67.2L5.6 67.2ZM4.39999 67.8C4.39999 68.1314 4.66862 68.4 5 68.4C5.33137 68.4 5.6 68.1314 5.6 67.8L4.39999 67.8ZM5.6 70.2C5.6 69.8686 5.33137 69.6 5 69.6C4.66862 69.6 4.39999 69.8686 4.39999 70.2L5.6 70.2ZM4.39999 70.8C4.39999 71.1314 4.66862 71.4 5 71.4C5.33137 71.4 5.6 71.1314 5.6 70.8L4.39999 70.8ZM5.6 73.2C5.6 72.8686 5.33137 72.6 5 72.6C4.66862 72.6 4.39999 72.8686 4.39999 73.2L5.6 73.2ZM4.39999 73.8C4.39999 74.1314 4.66862 74.4 5 74.4C5.33137 74.4 5.6 74.1314 5.6 73.8L4.39999 73.8ZM5.6 76.2C5.6 75.8686 5.33137 75.6 5 75.6C4.66862 75.6 4.39999 75.8686 4.39999 76.2L5.6 76.2ZM4.39999 76.8C4.39999 77.1314 4.66862 77.4 5 77.4C5.33137 77.4 5.6 77.1314 5.6 76.8L4.39999 76.8ZM5.6 79.2C5.6 78.8686 5.33137 78.6 5 78.6C4.66862 78.6 4.39999 78.8686 4.39999 79.2L5.6 79.2ZM4.39999 79.8C4.39999 80.1314 4.66862 80.4 5 80.4C5.33137 80.4 5.6 80.1314 5.6 79.8L4.39999 79.8ZM5.6 82.2C5.6 81.8686 5.33137 81.6 5 81.6C4.66862 81.6 4.39999 81.8686 4.39999 82.2L5.6 82.2ZM4.39999 82.8C4.39999 83.1314 4.66862 83.4 5 83.4C5.33137 83.4 5.6 83.1314 5.6 82.8L4.39999 82.8ZM5.6 85.2C5.6 84.8686 5.33137 84.6 5 84.6C4.66862 84.6 4.39999 84.8686 4.39999 85.2L5.6 85.2ZM4.39999 85.8C4.39999 86.1314 4.66862 86.4 5 86.4C5.33137 86.4 5.6 86.1314 5.6 85.8L4.39999 85.8ZM5.6 88.2C5.6 87.8686 5.33137 87.6 5 87.6C4.66862 87.6 4.39999 87.8686 4.39999 88.2L5.6 88.2ZM4.39999 88.8C4.39999 89.1314 4.66862 89.4 5 89.4C5.33137 89.4 5.6 89.1314 5.6 88.8L4.39999 88.8ZM5.6 91.2C5.6 90.8686 5.33137 90.6 5 90.6C4.66862 90.6 4.39999 90.8686 4.39999 91.2L5.6 91.2ZM4.39999 91.8C4.39999 92.1314 4.66862 92.4 5 92.4C5.33137 92.4 5.6 92.1314 5.6 91.8L4.39999 91.8ZM5.6 94.2C5.6 93.8686 5.33137 93.6 5 93.6C4.66862 93.6 4.39999 93.8686 4.39999 94.2L5.6 94.2ZM4.39999 94.8C4.39999 95.1314 4.66862 95.4 5 95.4C5.33137 95.4 5.6 95.1314 5.6 94.8L4.39999 94.8ZM5.6 97.2C5.6 96.8686 5.33137 96.6 5 96.6C4.66862 96.6 4.39999 96.8686 4.39999 97.2L5.6 97.2ZM4.39999 97.8C4.39999 98.1314 4.66862 98.4 5 98.4C5.33137 98.4 5.6 98.1314 5.6 97.8L4.39999 97.8ZM5.6 100.2C5.6 99.8686 5.33137 99.6 5 99.6C4.66862 99.6 4.39999 99.8686 4.39999 100.2L5.6 100.2ZM4.39999 100.8C4.39999 101.131 4.66862 101.4 5 101.4C5.33137 101.4 5.6 101.131 5.6 100.8L4.39999 100.8ZM5.6 103.2C5.6 102.869 5.33137 102.6 5 102.6C4.66862 102.6 4.39999 102.869 4.39999 103.2L5.6 103.2ZM4.39999 103.8C4.39999 104.131 4.66862 104.4 5 104.4C5.33137 104.4 5.6 104.131 5.6 103.8L4.39999 103.8ZM5.6 106.2C5.6 105.869 5.33137 105.6 5 105.6C4.66862 105.6 4.39999 105.869 4.39999 106.2L5.6 106.2ZM4.39999 106.8C4.39999 107.131 4.66862 107.4 5 107.4C5.33137 107.4 5.6 107.131 5.6 106.8L4.39999 106.8ZM5.6 109.2C5.6 108.869 5.33137 108.6 5 108.6C4.66862 108.6 4.39999 108.869 4.39999 109.2L5.6 109.2ZM4.39999 109.8C4.39999 110.131 4.66862 110.4 5 110.4C5.33137 110.4 5.6 110.131 5.6 109.8L4.39999 109.8ZM5.6 112.2C5.6 111.869 5.33137 111.6 5 111.6C4.66862 111.6 4.39999 111.869 4.39999 112.2L5.6 112.2ZM4.39999 112.8C4.39999 113.131 4.66862 113.4 5 113.4C5.33137 113.4 5.6 113.131 5.6 112.8L4.39999 112.8ZM5.6 115.2C5.6 114.869 5.33137 114.6 5 114.6C4.66862 114.6 4.39999 114.869 4.39999 115.2L5.6 115.2ZM4.39999 115.8C4.39999 116.131 4.66862 116.4 4.99999 116.4C5.33137 116.4 5.6 116.131 5.6 115.8L4.39999 115.8ZM5.6 118.2C5.6 117.869 5.33137 117.6 4.99999 117.6C4.66862 117.6 4.39999 117.869 4.39999 118.2L5.6 118.2ZM4.39999 118.8C4.39999 119.131 4.66862 119.4 4.99999 119.4C5.33137 119.4 5.6 119.131 5.6 118.8L4.39999 118.8ZM5.6 121.2C5.6 120.869 5.33137 120.6 4.99999 120.6C4.66862 120.6 4.39999 120.869 4.39999 121.2L5.6 121.2ZM4.39999 121.8C4.39999 122.131 4.66862 122.4 4.99999 122.4C5.33137 122.4 5.6 122.131 5.6 121.8L4.39999 121.8ZM5.6 124.2C5.6 123.869 5.33137 123.6 4.99999 123.6C4.66862 123.6 4.39999 123.869 4.39999 124.2L5.6 124.2ZM4.39999 124.8C4.39999 125.131 4.66862 125.4 4.99999 125.4C5.33137 125.4 5.6 125.131 5.6 124.8L4.39999 124.8ZM5.6 127.2C5.6 126.869 5.33137 126.6 4.99999 126.6C4.66862 126.6 4.39999 126.869 4.39999 127.2L5.6 127.2ZM4.39999 127.8C4.39999 128.131 4.66862 128.4 4.99999 128.4C5.33137 128.4 5.6 128.131 5.6 127.8L4.39999 127.8ZM5.6 130.2C5.6 129.869 5.33137 129.6 4.99999 129.6C4.66862 129.6 4.39999 129.869 4.39999 130.2L5.6 130.2ZM4.39999 130.8C4.39999 131.131 4.66862 131.4 4.99999 131.4C5.33137 131.4 5.6 131.131 5.6 130.8L4.39999 130.8ZM5.6 133.2C5.6 132.869 5.33137 132.6 4.99999 132.6C4.66862 132.6 4.39999 132.869 4.39999 133.2L5.6 133.2ZM4.39999 133.8C4.39999 134.131 4.66862 134.4 4.99999 134.4C5.33137 134.4 5.6 134.131 5.6 133.8L4.39999 133.8ZM5.6 136.2C5.6 135.869 5.33137 135.6 4.99999 135.6C4.66862 135.6 4.39999 135.869 4.39999 136.2L5.6 136.2ZM4.39999 136.8C4.39999 137.131 4.66862 137.4 4.99999 137.4C5.33137 137.4 5.6 137.131 5.6 136.8L4.39999 136.8ZM5.6 139.2C5.6 138.869 5.33137 138.6 4.99999 138.6C4.66862 138.6 4.39999 138.869 4.39999 139.2L5.6 139.2ZM4.39999 139.8C4.39999 140.131 4.66862 140.4 4.99999 140.4C5.33137 140.4 5.6 140.131 5.6 139.8L4.39999 139.8ZM5.6 142.2C5.6 141.869 5.33137 141.6 4.99999 141.6C4.66862 141.6 4.39999 141.869 4.39999 142.2L5.6 142.2ZM4.39999 142.8C4.39999 143.131 4.66862 143.4 4.99999 143.4C5.33137 143.4 5.6 143.131 5.6 142.8L4.39999 142.8ZM5.6 145.2C5.6 144.869 5.33137 144.6 4.99999 144.6C4.66862 144.6 4.39999 144.869 4.39999 145.2L5.6 145.2ZM4.39999 145.8C4.39999 146.131 4.66862 146.4 4.99999 146.4C5.33137 146.4 5.6 146.131 5.6 145.8L4.39999 145.8ZM5.6 148.2C5.6 147.869 5.33137 147.6 4.99999 147.6C4.66862 147.6 4.39999 147.869 4.39999 148.2L5.6 148.2ZM4.39999 148.8C4.39999 149.131 4.66862 149.4 4.99999 149.4C5.33137 149.4 5.6 149.131 5.6 148.8L4.39999 148.8ZM5.6 151.2C5.6 150.869 5.33137 150.6 4.99999 150.6C4.66862 150.6 4.39999 150.869 4.39999 151.2L5.6 151.2ZM4.39999 151.8C4.39999 152.131 4.66862 152.4 4.99999 152.4C5.33137 152.4 5.6 152.131 5.6 151.8L4.39999 151.8ZM5.6 154.2C5.6 153.869 5.33137 153.6 4.99999 153.6C4.66862 153.6 4.39999 153.869 4.39999 154.2L5.6 154.2ZM4.39999 154.8C4.39999 155.131 4.66862 155.4 4.99999 155.4C5.33137 155.4 5.6 155.131 5.6 154.8L4.39999 154.8ZM5.6 157.2C5.6 156.869 5.33137 156.6 4.99999 156.6C4.66862 156.6 4.39999 156.869 4.39999 157.2L5.6 157.2ZM4.39999 157.8C4.39999 158.131 4.66862 158.4 4.99999 158.4C5.33137 158.4 5.6 158.131 5.6 157.8L4.39999 157.8ZM5.6 160.2C5.6 159.869 5.33137 159.6 4.99999 159.6C4.66862 159.6 4.39999 159.869 4.39999 160.2L5.6 160.2ZM4.39999 160.8C4.39999 161.131 4.66862 161.4 4.99999 161.4C5.33137 161.4 5.6 161.131 5.6 160.8L4.39999 160.8ZM5.6 163.2C5.6 162.869 5.33137 162.6 4.99999 162.6C4.66862 162.6 4.39999 162.869 4.39999 163.2L5.6 163.2ZM4.39999 163.8C4.39999 164.131 4.66862 164.4 4.99999 164.4C5.33137 164.4 5.6 164.131 5.6 163.8L4.39999 163.8ZM5.6 166.2C5.6 165.869 5.33137 165.6 4.99999 165.6C4.66862 165.6 4.39999 165.869 4.39999 166.2L5.6 166.2ZM4.39999 166.8C4.39999 167.131 4.66862 167.4 4.99999 167.4C5.33137 167.4 5.6 167.131 5.6 166.8L4.39999 166.8ZM5.6 169.2C5.6 168.869 5.33137 168.6 4.99999 168.6C4.66862 168.6 4.39999 168.869 4.39999 169.2L5.6 169.2ZM4.39999 169.8C4.39999 170.131 4.66862 170.4 4.99999 170.4C5.33137 170.4 5.6 170.131 5.6 169.8L4.39999 169.8ZM5.6 172.2C5.6 171.869 5.33137 171.6 4.99999 171.6C4.66862 171.6 4.39999 171.869 4.39999 172.2L5.6 172.2ZM4.39999 172.8C4.39999 173.131 4.66862 173.4 4.99999 173.4C5.33137 173.4 5.6 173.131 5.6 172.8L4.39999 172.8ZM5.6 175.2C5.6 174.869 5.33137 174.6 4.99999 174.6C4.66862 174.6 4.39999 174.869 4.39999 175.2L5.6 175.2ZM4.39999 175.8C4.39999 176.131 4.66862 176.4 4.99999 176.4C5.33137 176.4 5.6 176.131 5.6 175.8L4.39999 175.8ZM5.6 178.2C5.6 177.869 5.33137 177.6 4.99999 177.6C4.66862 177.6 4.39999 177.869 4.39999 178.2L5.6 178.2ZM4.39999 178.8C4.39999 179.131 4.66862 179.4 4.99999 179.4C5.33137 179.4 5.6 179.131 5.6 178.8L4.39999 178.8ZM5.6 181.2C5.6 180.869 5.33137 180.6 4.99999 180.6C4.66862 180.6 4.39999 180.869 4.39999 181.2L5.6 181.2ZM4.39999 181.8C4.39999 182.131 4.66862 182.4 4.99999 182.4C5.33137 182.4 5.6 182.131 5.6 181.8L4.39999 181.8ZM5.6 184.2C5.6 183.869 5.33137 183.6 4.99999 183.6C4.66862 183.6 4.39999 183.869 4.39999 184.2L5.6 184.2ZM4.39999 184.8C4.39999 185.131 4.66862 185.4 4.99999 185.4C5.33137 185.4 5.6 185.131 5.6 184.8L4.39999 184.8ZM5.6 187.2C5.6 186.869 5.33137 186.6 4.99999 186.6C4.66862 186.6 4.39999 186.869 4.39999 187.2L5.6 187.2ZM4.39999 187.8C4.39999 188.131 4.66862 188.4 4.99999 188.4C5.33137 188.4 5.6 188.131 5.6 187.8L4.39999 187.8ZM5.6 190.2C5.6 189.869 5.33137 189.6 4.99999 189.6C4.66862 189.6 4.39999 189.869 4.39999 190.2L5.6 190.2ZM4.39999 190.8C4.39999 191.131 4.66862 191.4 4.99999 191.4C5.33137 191.4 5.6 191.131 5.6 190.8L4.39999 190.8ZM5.6 193.2C5.6 192.869 5.33137 192.6 4.99999 192.6C4.66862 192.6 4.39999 192.869 4.39999 193.2L5.6 193.2ZM4.39999 193.8C4.39999 194.131 4.66862 194.4 4.99999 194.4C5.33137 194.4 5.6 194.131 5.6 193.8L4.39999 193.8ZM5.6 196.2C5.6 195.869 5.33137 195.6 4.99999 195.6C4.66862 195.6 4.39999 195.869 4.39999 196.2L5.6 196.2ZM4.39999 196.8C4.39999 197.131 4.66862 197.4 4.99999 197.4C5.33137 197.4 5.6 197.131 5.6 196.8L4.39999 196.8ZM5.6 199.2C5.6 198.869 5.33137 198.6 4.99999 198.6C4.66862 198.6 4.39999 198.869 4.39999 199.2L5.6 199.2ZM137 0.9L136.7 0.9L136.7 2.1L137 2.1L137 0.9ZM134.3 0.9L133.7 0.9L133.7 2.1L134.3 2.1L134.3 0.9ZM131.3 0.9L130.7 0.9L130.7 2.1L131.3 2.1L131.3 0.9ZM128.3 0.9L127.7 0.9L127.7 2.1L128.3 2.1L128.3 0.9ZM125.3 0.9L124.7 0.9L124.7 2.1L125.3 2.1L125.3 0.9ZM122.3 0.9L121.7 0.9L121.7 2.1L122.3 2.1L122.3 0.9ZM119.3 0.9L118.7 0.9L118.7 2.1L119.3 2.1L119.3 0.9ZM116.3 0.9L115.7 0.9L115.7 2.1L116.3 2.1L116.3 0.9ZM113.3 0.9L112.7 0.9L112.7 2.1L113.3 2.1L113.3 0.9ZM110.3 0.900001L109.7 0.900001L109.7 2.1L110.3 2.1L110.3 0.900001ZM107.3 0.900001L106.7 0.900001L106.7 2.1L107.3 2.1L107.3 0.900001ZM104.3 0.900001L103.7 0.900001L103.7 2.1L104.3 2.1L104.3 0.900001ZM101.3 0.900001L100.7 0.900001L100.7 2.1L101.3 2.1L101.3 0.900001ZM98.3 0.900001L97.7 0.900001L97.7 2.1L98.3 2.1L98.3 0.900001ZM95.3 0.900001L94.7 0.900001L94.7 2.1L95.3 2.1L95.3 0.900001ZM92.3 0.900001L91.7 0.900001L91.7 2.1L92.3 2.1L92.3 0.900001ZM89.3 0.900001L88.7 0.900001L88.7 2.1L89.3 2.1L89.3 0.900001ZM86.3 0.900001L85.7 0.900001L85.7 2.1L86.3 2.1L86.3 0.900001ZM83.3 0.900001L82.7 0.900001L82.7 2.1L83.3 2.1L83.3 0.900001ZM80.3 0.900001L79.7 0.900001L79.7 2.1L80.3 2.1L80.3 0.900001ZM77.3 0.900001L76.7 0.900001L76.7 2.1L77.3 2.1L77.3 0.900001ZM74.3 0.900001L73.7 0.900001L73.7 2.1L74.3 2.1L74.3 0.900001ZM71.3 0.900001L70.7 0.900001L70.7 2.1L71.3 2.1L71.3 0.900001ZM68.3 0.900001L67.7 0.900001L67.7 2.1L68.3 2.1L68.3 0.900001ZM65.3 0.900001L64.7 0.900001L64.7 2.1L65.3 2.1L65.3 0.900001ZM62.3 0.900001L61.7 0.900002L61.7 2.1L62.3 2.1L62.3 0.900001ZM59.3 0.900002L58.7 0.900002L58.7 2.1L59.3 2.1L59.3 0.900002ZM56.3 0.900002L55.7 0.900002L55.7 2.1L56.3 2.1L56.3 0.900002ZM53.3 0.900002L52.7 0.900002L52.7 2.1L53.3 2.1L53.3 0.900002ZM50.3 0.900002L49.7 0.900002L49.7 2.1L50.3 2.1L50.3 0.900002ZM47.3 0.900002L46.7 0.900002L46.7 2.1L47.3 2.1L47.3 0.900002ZM44.3 0.900002L43.7 0.900002L43.7 2.1L44.3 2.1L44.3 0.900002ZM41.3 0.900002L40.7 0.900002L40.7 2.1L41.3 2.1L41.3 0.900002ZM38.3 0.900002L37.7 0.900002L37.7 2.1L38.3 2.1L38.3 0.900002ZM35.3 0.900002L34.7 0.900002L34.7 2.1L35.3 2.1L35.3 0.900002ZM32.3 0.900002L31.7 0.900002L31.7 2.1L32.3 2.1L32.3 0.900002ZM29.3 0.900002L28.7 0.900002L28.7 2.1L29.3 2.1L29.3 0.900002ZM26.3 0.900002L25.7 0.900002L25.7 2.1L26.3 2.1L26.3 0.900002ZM23.3 0.900002L22.7 0.900002L22.7 2.1L23.3 2.1L23.3 0.900002ZM20.3 0.900002L20 0.900002L20 2.1L20.3 2.1L20.3 0.900002ZM20 0.900002C19.8974 0.900002 19.795 0.900994 19.6928 0.902968L19.716 2.10274C19.8105 2.10092 19.9051 2.1 20 2.1L20 0.900002ZM17.2569 1.1405C17.0552 1.17628 16.8549 1.21594 16.656 1.25939L16.9121 2.43174C17.0956 2.39165 17.2804 2.35506 17.4665 2.32205L17.2569 1.1405ZM14.3123 1.96948C14.1218 2.0441 13.9332 2.12236 13.7464 2.20417L14.2279 3.30334C14.4002 3.22786 14.5743 3.15566 14.75 3.08682L14.3123 1.96948ZM11.5881 3.3601C11.4161 3.47044 11.2464 3.58406 11.0791 3.70088L11.7661 4.68476C11.9205 4.57691 12.0772 4.47202 12.236 4.37016L11.5881 3.3601ZM9.18779 5.25471C9.04063 5.39624 8.89624 5.54063 8.7547 5.68779L9.61963 6.5196C9.75034 6.38369 9.88369 6.25034 10.0196 6.11963L9.18779 5.25471ZM7.20087 7.57906C7.08406 7.74636 6.97044 7.91606 6.86009 8.08807L7.87015 8.73598C7.97202 8.57719 8.0769 8.42052 8.18477 8.26606L7.20087 7.57906ZM5.70416 10.2464C5.62236 10.4332 5.5441 10.6218 5.46948 10.8123L6.58682 11.25C6.65565 11.0743 6.72786 10.9002 6.80334 10.7279L5.70416 10.2464ZM4.75938 13.156C4.71594 13.3549 4.67628 13.5552 4.6405 13.7569L5.82204 13.9665C5.85506 13.7804 5.89165 13.5956 5.93175 13.4121L4.75938 13.156ZM4.40297 16.1928C4.40099 16.295 4.39999 16.3974 4.39999 16.5L5.60001 16.5C5.60001 16.4051 5.60092 16.3105 5.60274 16.216L4.40297 16.1928ZM4.39999 16.5L4.39999 16.8L5.60001 16.8L5.60001 16.5L4.39999 16.5ZM4.39999 19.2L4.39999 19.8L5.60001 19.8L5.60001 19.2L4.39999 19.2ZM4.39999 22.2L4.39999 22.8L5.60001 22.8L5.60001 22.2L4.39999 22.2ZM4.39999 25.2L4.39999 25.8L5.60001 25.8L5.60001 25.2L4.39999 25.2ZM4.39999 28.2L4.39999 28.8L5.6 28.8L5.6 28.2L4.39999 28.2ZM4.39999 31.2L4.39999 31.8L5.6 31.8L5.6 31.2L4.39999 31.2ZM4.39999 34.2L4.39999 34.8L5.6 34.8L5.6 34.2L4.39999 34.2ZM4.39999 37.2L4.39999 37.8L5.6 37.8L5.6 37.2L4.39999 37.2ZM4.39999 40.2L4.39999 40.8L5.6 40.8L5.6 40.2L4.39999 40.2ZM4.39999 43.2L4.39999 43.8L5.6 43.8L5.6 43.2L4.39999 43.2ZM4.39999 46.2L4.39999 46.8L5.6 46.8L5.6 46.2L4.39999 46.2ZM4.39999 49.2L4.39999 49.8L5.6 49.8L5.6 49.2L4.39999 49.2ZM4.39999 52.2L4.39999 52.8L5.6 52.8L5.6 52.2L4.39999 52.2ZM4.39999 55.2L4.39999 55.8L5.6 55.8L5.6 55.2L4.39999 55.2ZM4.39999 58.2L4.39999 58.8L5.6 58.8L5.6 58.2L4.39999 58.2ZM4.39999 61.2L4.39999 61.8L5.6 61.8L5.6 61.2L4.39999 61.2ZM4.39999 64.2L4.39999 64.8L5.6 64.8L5.6 64.2L4.39999 64.2ZM4.39999 67.2L4.39999 67.8L5.6 67.8L5.6 67.2L4.39999 67.2ZM4.39999 70.2L4.39999 70.8L5.6 70.8L5.6 70.2L4.39999 70.2ZM4.39999 73.2L4.39999 73.8L5.6 73.8L5.6 73.2L4.39999 73.2ZM4.39999 76.2L4.39999 76.8L5.6 76.8L5.6 76.2L4.39999 76.2ZM4.39999 79.2L4.39999 79.8L5.6 79.8L5.6 79.2L4.39999 79.2ZM4.39999 82.2L4.39999 82.8L5.6 82.8L5.6 82.2L4.39999 82.2ZM4.39999 85.2L4.39999 85.8L5.6 85.8L5.6 85.2L4.39999 85.2ZM4.39999 88.2L4.39999 88.8L5.6 88.8L5.6 88.2L4.39999 88.2ZM4.39999 91.2L4.39999 91.8L5.6 91.8L5.6 91.2L4.39999 91.2ZM4.39999 94.2L4.39999 94.8L5.6 94.8L5.6 94.2L4.39999 94.2ZM4.39999 97.2L4.39999 97.8L5.6 97.8L5.6 97.2L4.39999 97.2ZM4.39999 100.2L4.39999 100.8L5.6 100.8L5.6 100.2L4.39999 100.2ZM4.39999 103.2L4.39999 103.8L5.6 103.8L5.6 103.2L4.39999 103.2ZM4.39999 106.2L4.39999 106.8L5.6 106.8L5.6 106.2L4.39999 106.2ZM4.39999 109.2L4.39999 109.8L5.6 109.8L5.6 109.2L4.39999 109.2ZM4.39999 112.2L4.39999 112.8L5.6 112.8L5.6 112.2L4.39999 112.2ZM4.39999 115.2L4.39999 115.8L5.6 115.8L5.6 115.2L4.39999 115.2ZM4.39999 118.2L4.39999 118.8L5.6 118.8L5.6 118.2L4.39999 118.2ZM4.39999 121.2L4.39999 121.8L5.6 121.8L5.6 121.2L4.39999 121.2ZM4.39999 124.2L4.39999 124.8L5.6 124.8L5.6 124.2L4.39999 124.2ZM4.39999 127.2L4.39999 127.8L5.6 127.8L5.6 127.2L4.39999 127.2ZM4.39999 130.2L4.39999 130.8L5.6 130.8L5.6 130.2L4.39999 130.2ZM4.39999 133.2L4.39999 133.8L5.6 133.8L5.6 133.2L4.39999 133.2ZM4.39999 136.2L4.39999 136.8L5.6 136.8L5.6 136.2L4.39999 136.2ZM4.39999 139.2L4.39999 139.8L5.6 139.8L5.6 139.2L4.39999 139.2ZM4.39999 142.2L4.39999 142.8L5.6 142.8L5.6 142.2L4.39999 142.2ZM4.39999 145.2L4.39999 145.8L5.6 145.8L5.6 145.2L4.39999 145.2ZM4.39999 148.2L4.39999 148.8L5.6 148.8L5.6 148.2L4.39999 148.2ZM4.39999 151.2L4.39999 151.8L5.6 151.8L5.6 151.2L4.39999 151.2ZM4.39999 154.2L4.39999 154.8L5.6 154.8L5.6 154.2L4.39999 154.2ZM4.39999 157.2L4.39999 157.8L5.6 157.8L5.6 157.2L4.39999 157.2ZM4.39999 160.2L4.39999 160.8L5.6 160.8L5.6 160.2L4.39999 160.2ZM4.39999 163.2L4.39999 163.8L5.6 163.8L5.6 163.2L4.39999 163.2ZM4.39999 166.2L4.39999 166.8L5.6 166.8L5.6 166.2L4.39999 166.2ZM4.39999 169.2L4.39999 169.8L5.6 169.8L5.6 169.2L4.39999 169.2ZM4.39999 172.2L4.39999 172.8L5.6 172.8L5.6 172.2L4.39999 172.2ZM4.39999 175.2L4.39999 175.8L5.6 175.8L5.6 175.2L4.39999 175.2ZM4.39999 178.2L4.39999 178.8L5.6 178.8L5.6 178.2L4.39999 178.2ZM4.39999 181.2L4.39999 181.8L5.6 181.8L5.6 181.2L4.39999 181.2ZM4.39999 184.2L4.39999 184.8L5.6 184.8L5.6 184.2L4.39999 184.2ZM4.39999 187.2L4.39999 187.8L5.6 187.8L5.6 187.2L4.39999 187.2ZM4.39999 190.2L4.39999 190.8L5.6 190.8L5.6 190.2L4.39999 190.2ZM4.39999 193.2L4.39999 193.8L5.6 193.8L5.6 193.2L4.39999 193.2ZM4.39999 196.2L4.39999 196.8L5.6 196.8L5.6 196.2L4.39999 196.2ZM4.39999 199.2L4.39999 199.5L5.6 199.5L5.6 199.2L4.39999 199.2Z" fill="#6B6B6B"/>
</svg>
