<svg width="162" height="10" viewBox="0 0 162 10" fill="none" xmlns="http://www.w3.org/2000/svg">
<path d="M0.575729 4.57574C0.341415 4.81005 0.341415 5.18995 0.575729 5.42426L4.39412 9.24264C4.62843 9.47696 5.00833 9.47696 5.24265 9.24264C5.47696 9.00833 5.47696 8.62843 5.24265 8.39411L1.84853 5L5.24265 1.60589C5.47696 1.37157 5.47696 0.991674 5.24265 0.757359C5.00833 0.523044 4.62843 0.523044 4.39412 0.757359L0.575729 4.57574ZM66 5L66 5.6L66 5ZM161 5.59985C161.331 5.59985 161.6 5.33122 161.6 4.99985C161.6 4.66848 161.331 4.39985 161 4.39985L161 5.59985ZM160.703 4.39985C160.372 4.39985 160.103 4.66848 160.103 4.99985C160.103 5.33122 160.372 5.59985 160.703 5.59985L160.703 4.39985ZM158.328 5.59985C158.659 5.59985 158.928 5.33122 158.928 4.99985C158.928 4.66848 158.659 4.39985 158.328 4.39985L158.328 5.59985ZM157.734 4.39985C157.403 4.39985 157.134 4.66848 157.134 4.99985C157.134 5.33122 157.403 5.59985 157.734 5.59985L157.734 4.39985ZM155.359 5.59986C155.691 5.59986 155.959 5.33123 155.959 4.99986C155.959 4.66848 155.691 4.39986 155.359 4.39986L155.359 5.59986ZM154.766 4.39986C154.434 4.39986 154.166 4.66849 154.166 4.99986C154.166 5.33123 154.434 5.59986 154.766 5.59986L154.766 4.39986ZM152.391 5.59986C152.722 5.59986 152.991 5.33123 152.991 4.99986C152.991 4.66849 152.722 4.39986 152.391 4.39986L152.391 5.59986ZM151.797 4.39986C151.466 4.39986 151.197 4.66849 151.197 4.99986C151.197 5.33123 151.466 5.59986 151.797 5.59986L151.797 4.39986ZM149.422 5.59987C149.753 5.59987 150.022 5.33124 150.022 4.99987C150.022 4.66849 149.753 4.39987 149.422 4.39987L149.422 5.59987ZM148.828 4.39987C148.497 4.39987 148.228 4.6685 148.228 4.99987C148.228 5.33124 148.497 5.59987 148.828 5.59987L148.828 4.39987ZM146.453 5.59987C146.784 5.59987 147.053 5.33124 147.053 4.99987C147.053 4.6685 146.784 4.39987 146.453 4.39987L146.453 5.59987ZM145.859 4.39987C145.528 4.39987 145.259 4.6685 145.259 4.99987C145.259 5.33124 145.528 5.59987 145.859 5.59987L145.859 4.39987ZM143.484 5.59988C143.816 5.59988 144.084 5.33125 144.084 4.99987C144.084 4.6685 143.816 4.39988 143.484 4.39988L143.484 5.59988ZM142.891 4.39988C142.559 4.39988 142.291 4.66851 142.291 4.99988C142.291 5.33125 142.559 5.59988 142.891 5.59988L142.891 4.39988ZM140.516 5.59988C140.847 5.59988 141.116 5.33125 141.116 4.99988C141.116 4.66851 140.847 4.39988 140.516 4.39988L140.516 5.59988ZM139.922 4.39988C139.591 4.39988 139.322 4.66851 139.322 4.99988C139.322 5.33125 139.591 5.59988 139.922 5.59988L139.922 4.39988ZM137.547 5.59989C137.878 5.59988 138.147 5.33125 138.147 4.99988C138.147 4.66851 137.878 4.39988 137.547 4.39989L137.547 5.59989ZM136.953 4.39989C136.622 4.39989 136.353 4.66852 136.353 4.99989C136.353 5.33126 136.622 5.59989 136.953 5.59989L136.953 4.39989ZM134.578 5.59989C134.909 5.59989 135.178 5.33126 135.178 4.99989C135.178 4.66852 134.909 4.39989 134.578 4.39989L134.578 5.59989ZM133.984 4.39989C133.653 4.39989 133.384 4.66852 133.384 4.99989C133.384 5.33126 133.653 5.59989 133.984 5.59989L133.984 4.39989ZM131.609 5.59989C131.941 5.59989 132.209 5.33126 132.209 4.99989C132.209 4.66852 131.941 4.39989 131.609 4.39989L131.609 5.59989ZM131.016 4.3999C130.684 4.3999 130.416 4.66853 130.416 4.9999C130.416 5.33127 130.684 5.5999 131.016 5.5999L131.016 4.3999ZM128.641 5.5999C128.972 5.5999 129.241 5.33127 129.241 4.9999C129.241 4.66853 128.972 4.3999 128.641 4.3999L128.641 5.5999ZM128.047 4.3999C127.716 4.3999 127.447 4.66853 127.447 4.9999C127.447 5.33127 127.716 5.5999 128.047 5.5999L128.047 4.3999ZM125.672 5.5999C126.003 5.5999 126.272 5.33127 126.272 4.9999C126.272 4.66853 126.003 4.3999 125.672 4.3999L125.672 5.5999ZM125.078 4.39991C124.747 4.39991 124.478 4.66854 124.478 4.99991C124.478 5.33128 124.747 5.59991 125.078 5.59991L125.078 4.39991ZM122.703 5.59991C123.034 5.59991 123.303 5.33128 123.303 4.99991C123.303 4.66854 123.034 4.39991 122.703 4.39991L122.703 5.59991ZM122.109 4.39991C121.778 4.39991 121.509 4.66854 121.509 4.99991C121.509 5.33128 121.778 5.59991 122.109 5.59991L122.109 4.39991ZM119.734 5.59991C120.066 5.59991 120.334 5.33128 120.334 4.99991C120.334 4.66854 120.066 4.39991 119.734 4.39991L119.734 5.59991ZM119.141 4.39991C118.809 4.39992 118.541 4.66854 118.541 4.99992C118.541 5.33129 118.809 5.59992 119.141 5.59991L119.141 4.39991ZM116.766 5.59992C117.097 5.59992 117.366 5.33129 117.366 4.99992C117.366 4.66855 117.097 4.39992 116.766 4.39992L116.766 5.59992ZM116.172 4.39992C115.841 4.39992 115.572 4.66855 115.572 4.99992C115.572 5.33129 115.841 5.59992 116.172 5.59992L116.172 4.39992ZM113.797 5.59992C114.128 5.59992 114.397 5.33129 114.397 4.99992C114.397 4.66855 114.128 4.39992 113.797 4.39992L113.797 5.59992ZM113.203 4.39992C112.872 4.39992 112.603 4.66855 112.603 4.99993C112.603 5.3313 112.872 5.59992 113.203 5.59992L113.203 4.39992ZM110.828 5.59993C111.159 5.59993 111.428 5.3313 111.428 4.99993C111.428 4.66856 111.159 4.39993 110.828 4.39993L110.828 5.59993ZM110.234 4.39993C109.903 4.39993 109.634 4.66856 109.634 4.99993C109.634 5.3313 109.903 5.59993 110.234 5.59993L110.234 4.39993ZM107.859 5.59993C108.191 5.59993 108.459 5.3313 108.459 4.99993C108.459 4.66856 108.191 4.39993 107.859 4.39993L107.859 5.59993ZM107.266 4.39993C106.934 4.39993 106.666 4.66856 106.666 4.99993C106.666 5.33131 106.934 5.59993 107.266 5.59993L107.266 4.39993ZM104.891 5.59994C105.222 5.59994 105.491 5.33131 105.491 4.99994C105.491 4.66857 105.222 4.39994 104.891 4.39994L104.891 5.59994ZM104.297 4.39994C103.966 4.39994 103.697 4.66857 103.697 4.99994C103.697 5.33131 103.966 5.59994 104.297 5.59994L104.297 4.39994ZM101.922 5.59994C102.253 5.59994 102.522 5.33131 102.522 4.99994C102.522 4.66857 102.253 4.39994 101.922 4.39994L101.922 5.59994ZM101.328 4.39994C100.997 4.39994 100.728 4.66857 100.728 4.99994C100.728 5.33132 100.997 5.59994 101.328 5.59994L101.328 4.39994ZM98.9531 5.59995C99.2845 5.59995 99.5531 5.33132 99.5531 4.99995C99.5531 4.66858 99.2845 4.39995 98.9531 4.39995L98.9531 5.59995ZM98.3594 4.39995C98.028 4.39995 97.7594 4.66858 97.7594 4.99995C97.7594 5.33132 98.028 5.59995 98.3594 5.59995L98.3594 4.39995ZM95.9844 5.59995C96.3158 5.59995 96.5844 5.33132 96.5844 4.99995C96.5844 4.66858 96.3157 4.39995 95.9844 4.39995L95.9844 5.59995ZM95.3906 4.39995C95.0592 4.39995 94.7906 4.66858 94.7906 4.99995C94.7906 5.33132 95.0593 5.59995 95.3906 5.59995L95.3906 4.39995ZM93.0156 5.59996C93.347 5.59996 93.6156 5.33133 93.6156 4.99996C93.6156 4.66858 93.347 4.39996 93.0156 4.39996L93.0156 5.59996ZM92.4219 4.39996C92.0905 4.39996 91.8219 4.66859 91.8219 4.99996C91.8219 5.33133 92.0905 5.59996 92.4219 5.59996L92.4219 4.39996ZM90.0469 5.59996C90.3783 5.59996 90.6469 5.33133 90.6469 4.99996C90.6469 4.66859 90.3782 4.39996 90.0469 4.39996L90.0469 5.59996ZM89.4531 4.39996C89.1217 4.39996 88.8531 4.66859 88.8531 4.99996C88.8531 5.33133 89.1218 5.59996 89.4531 5.59996L89.4531 4.39996ZM87.0781 5.59997C87.4095 5.59997 87.6781 5.33134 87.6781 4.99997C87.6781 4.66859 87.4095 4.39997 87.0781 4.39997L87.0781 5.59997ZM86.4844 4.39997C86.153 4.39997 85.8844 4.6686 85.8844 4.99997C85.8844 5.33134 86.153 5.59997 86.4844 5.59997L86.4844 4.39997ZM84.1094 5.59997C84.4408 5.59997 84.7094 5.33134 84.7094 4.99997C84.7094 4.6686 84.4407 4.39997 84.1094 4.39997L84.1094 5.59997ZM83.5156 4.39997C83.1842 4.39997 82.9156 4.6686 82.9156 4.99997C82.9156 5.33134 83.1843 5.59997 83.5156 5.59997L83.5156 4.39997ZM81.1406 5.59998C81.472 5.59998 81.7406 5.33135 81.7406 4.99997C81.7406 4.6686 81.472 4.39998 81.1406 4.39998L81.1406 5.59998ZM80.5469 4.39998C80.2155 4.39998 79.9469 4.66861 79.9469 4.99998C79.9469 5.33135 80.2155 5.59998 80.5469 5.59998L80.5469 4.39998ZM78.1719 5.59998C78.5033 5.59998 78.7719 5.33135 78.7719 4.99998C78.7719 4.66861 78.5032 4.39998 78.1719 4.39998L78.1719 5.59998ZM77.5781 4.39998C77.2467 4.39998 76.9781 4.66861 76.9781 4.99998C76.9781 5.33135 77.2468 5.59998 77.5781 5.59998L77.5781 4.39998ZM75.2031 5.59999C75.5345 5.59998 75.8031 5.33136 75.8031 4.99998C75.8031 4.66861 75.5345 4.39998 75.2031 4.39999L75.2031 5.59999ZM74.6094 4.39999C74.278 4.39999 74.0094 4.66862 74.0094 4.99999C74.0094 5.33136 74.278 5.59999 74.6094 5.59999L74.6094 4.39999ZM72.2344 5.59999C72.5658 5.59999 72.8344 5.33136 72.8344 4.99999C72.8344 4.66862 72.5657 4.39999 72.2344 4.39999L72.2344 5.59999ZM71.6406 4.39999C71.3092 4.39999 71.0406 4.66862 71.0406 4.99999C71.0406 5.33136 71.3093 5.59999 71.6406 5.59999L71.6406 4.39999ZM69.2656 5.59999C69.597 5.59999 69.8656 5.33136 69.8656 4.99999C69.8656 4.66862 69.597 4.39999 69.2656 4.39999L69.2656 5.59999ZM68.6719 4.4C68.3405 4.4 68.0719 4.66863 68.0719 5C68.0719 5.33137 68.3405 5.6 68.6719 5.6L68.6719 4.4ZM66.2969 5.6C66.6283 5.6 66.8969 5.33137 66.8969 5C66.8969 4.66863 66.6282 4.4 66.2969 4.4L66.2969 5.6ZM65.7045 4.4C65.3732 4.4 65.1045 4.66863 65.1045 5C65.1045 5.33137 65.3732 5.6 65.7045 5.6L65.7045 4.4ZM63.3409 5.6C63.6723 5.6 63.9409 5.33137 63.9409 5C63.9409 4.66863 63.6723 4.4 63.3409 4.4L63.3409 5.6ZM62.75 4.4C62.4186 4.4 62.15 4.66863 62.15 5C62.15 5.33137 62.4186 5.6 62.75 5.6L62.75 4.4ZM60.3864 5.6C60.7177 5.6 60.9864 5.33137 60.9864 5C60.9864 4.66863 60.7177 4.4 60.3864 4.4L60.3864 5.6ZM59.7955 4.4C59.4641 4.4 59.1955 4.66863 59.1955 5C59.1955 5.33137 59.4641 5.6 59.7955 5.6L59.7955 4.4ZM57.4318 5.6C57.7632 5.6 58.0318 5.33137 58.0318 5C58.0318 4.66863 57.7632 4.4 57.4318 4.4L57.4318 5.6ZM56.8409 4.4C56.5095 4.4 56.2409 4.66863 56.2409 5C56.2409 5.33137 56.5095 5.6 56.8409 5.6L56.8409 4.4ZM54.4773 5.6C54.8086 5.6 55.0773 5.33137 55.0773 5C55.0773 4.66863 54.8086 4.4 54.4773 4.4L54.4773 5.6ZM53.8864 4.4C53.555 4.4 53.2864 4.66863 53.2864 5C53.2864 5.33137 53.555 5.6 53.8864 5.6L53.8864 4.4ZM51.5227 5.6C51.8541 5.6 52.1227 5.33137 52.1227 5C52.1227 4.66863 51.8541 4.4 51.5227 4.4L51.5227 5.6ZM50.9318 4.4C50.6004 4.4 50.3318 4.66863 50.3318 5C50.3318 5.33137 50.6004 5.6 50.9318 5.6L50.9318 4.4ZM48.5682 5.6C48.8996 5.6 49.1682 5.33137 49.1682 5C49.1682 4.66863 48.8996 4.4 48.5682 4.4L48.5682 5.6ZM47.9773 4.4C47.6459 4.4 47.3773 4.66863 47.3773 5C47.3773 5.33137 47.6459 5.6 47.9773 5.6L47.9773 4.4ZM45.6136 5.6C45.945 5.6 46.2136 5.33137 46.2136 5C46.2136 4.66863 45.945 4.4 45.6136 4.4L45.6136 5.6ZM45.0227 4.4C44.6914 4.4 44.4227 4.66863 44.4227 5C44.4227 5.33137 44.6914 5.6 45.0227 5.6L45.0227 4.4ZM42.6591 5.6C42.9905 5.6 43.2591 5.33137 43.2591 5C43.2591 4.66863 42.9905 4.4 42.6591 4.4L42.6591 5.6ZM42.0682 4.4C41.7368 4.4 41.4682 4.66863 41.4682 5C41.4682 5.33137 41.7368 5.6 42.0682 5.6L42.0682 4.4ZM39.7045 5.6C40.0359 5.6 40.3045 5.33137 40.3045 5C40.3045 4.66863 40.0359 4.4 39.7045 4.4L39.7045 5.6ZM39.1136 4.4C38.7823 4.4 38.5136 4.66863 38.5136 5C38.5136 5.33137 38.7823 5.6 39.1136 5.6L39.1136 4.4ZM36.75 5.6C37.0814 5.6 37.35 5.33137 37.35 5C37.35 4.66863 37.0814 4.4 36.75 4.4L36.75 5.6ZM36.1591 4.4C35.8277 4.4 35.5591 4.66863 35.5591 5C35.5591 5.33137 35.8277 5.6 36.1591 5.6L36.1591 4.4ZM33.7954 5.6C34.1268 5.6 34.3954 5.33137 34.3954 5C34.3954 4.66863 34.1268 4.4 33.7954 4.4L33.7954 5.6ZM33.2045 4.4C32.8732 4.4 32.6045 4.66863 32.6045 5C32.6045 5.33137 32.8732 5.6 33.2045 5.6L33.2045 4.4ZM30.8409 5.6C31.1723 5.6 31.4409 5.33137 31.4409 5C31.4409 4.66863 31.1723 4.4 30.8409 4.4L30.8409 5.6ZM30.25 4.4C29.9186 4.4 29.65 4.66863 29.65 5C29.65 5.33137 29.9186 5.6 30.25 5.6L30.25 4.4ZM27.8864 5.6C28.2177 5.6 28.4864 5.33137 28.4864 5C28.4864 4.66863 28.2177 4.4 27.8864 4.4L27.8864 5.6ZM27.2955 4.4C26.9641 4.4 26.6954 4.66863 26.6954 5C26.6954 5.33137 26.9641 5.6 27.2955 5.6L27.2955 4.4ZM24.9318 5.6C25.2632 5.6 25.5318 5.33137 25.5318 5C25.5318 4.66863 25.2632 4.4 24.9318 4.4L24.9318 5.6ZM24.3409 4.4C24.0095 4.4 23.7409 4.66863 23.7409 5C23.7409 5.33137 24.0095 5.6 24.3409 5.6L24.3409 4.4ZM21.9773 5.6C22.3086 5.6 22.5773 5.33137 22.5773 5C22.5773 4.66863 22.3086 4.4 21.9773 4.4L21.9773 5.6ZM21.3864 4.4C21.055 4.4 20.7864 4.66863 20.7864 5C20.7864 5.33137 21.055 5.6 21.3864 5.6L21.3864 4.4ZM19.0227 5.6C19.3541 5.6 19.6227 5.33137 19.6227 5C19.6227 4.66863 19.3541 4.4 19.0227 4.4L19.0227 5.6ZM18.4318 4.4C18.1004 4.4 17.8318 4.66863 17.8318 5C17.8318 5.33137 18.1004 5.6 18.4318 5.6L18.4318 4.4ZM16.0682 5.6C16.3996 5.6 16.6682 5.33137 16.6682 5C16.6682 4.66863 16.3996 4.4 16.0682 4.4L16.0682 5.6ZM15.4773 4.4C15.1459 4.4 14.8773 4.66863 14.8773 5C14.8773 5.33137 15.1459 5.6 15.4773 5.6L15.4773 4.4ZM13.1136 5.6C13.445 5.6 13.7136 5.33137 13.7136 5C13.7136 4.66863 13.445 4.4 13.1136 4.4L13.1136 5.6ZM12.5227 4.4C12.1914 4.4 11.9227 4.66863 11.9227 5C11.9227 5.33137 12.1914 5.6 12.5227 5.6L12.5227 4.4ZM10.1591 5.6C10.4905 5.6 10.7591 5.33137 10.7591 5C10.7591 4.66863 10.4905 4.4 10.1591 4.4L10.1591 5.6ZM9.56819 4.4C9.23682 4.4 8.96819 4.66863 8.96819 5C8.96819 5.33137 9.23682 5.6 9.56819 5.6L9.56819 4.4ZM7.20454 5.6C7.53592 5.6 7.80455 5.33137 7.80455 5C7.80455 4.66863 7.53592 4.4 7.20454 4.4L7.20454 5.6ZM6.61365 4.4C6.28227 4.4 6.01364 4.66863 6.01364 5C6.01364 5.33137 6.28227 5.6 6.61365 5.6L6.61365 4.4ZM4.25002 5.6C4.58138 5.6 4.85001 5.33137 4.85001 5C4.85001 4.66863 4.58138 4.4 4.25002 4.4L4.25002 5.6ZM3.6591 4.4C3.32773 4.4 3.0591 4.66863 3.0591 5C3.0591 5.33137 3.32773 5.6 3.6591 5.6L3.6591 4.4ZM1.29546 5.6C1.62683 5.6 1.89546 5.33137 1.89546 5C1.89546 4.66863 1.62683 4.4 1.29546 4.4L1.29546 5.6ZM161 4.39985L160.703 4.39985L160.703 5.59985L161 5.59985L161 4.39985ZM158.328 4.39985L157.734 4.39985L157.734 5.59985L158.328 5.59985L158.328 4.39985ZM155.359 4.39986L154.766 4.39986L154.766 5.59986L155.359 5.59986L155.359 4.39986ZM152.391 4.39986L151.797 4.39986L151.797 5.59986L152.391 5.59986L152.391 4.39986ZM149.422 4.39987L148.828 4.39987L148.828 5.59987L149.422 5.59987L149.422 4.39987ZM146.453 4.39987L145.859 4.39987L145.859 5.59987L146.453 5.59987L146.453 4.39987ZM143.484 4.39988L142.891 4.39988L142.891 5.59988L143.484 5.59988L143.484 4.39988ZM140.516 4.39988L139.922 4.39988L139.922 5.59988L140.516 5.59988L140.516 4.39988ZM137.547 4.39989L136.953 4.39989L136.953 5.59989L137.547 5.59989L137.547 4.39989ZM134.578 4.39989L133.984 4.39989L133.984 5.59989L134.578 5.59989L134.578 4.39989ZM131.609 4.39989L131.016 4.3999L131.016 5.5999L131.609 5.59989L131.609 4.39989ZM128.641 4.3999L128.047 4.3999L128.047 5.5999L128.641 5.5999L128.641 4.3999ZM125.672 4.3999L125.078 4.39991L125.078 5.59991L125.672 5.5999L125.672 4.3999ZM122.703 4.39991L122.109 4.39991L122.109 5.59991L122.703 5.59991L122.703 4.39991ZM119.734 4.39991L119.141 4.39991L119.141 5.59991L119.734 5.59991L119.734 4.39991ZM116.766 4.39992L116.172 4.39992L116.172 5.59992L116.766 5.59992L116.766 4.39992ZM113.797 4.39992L113.203 4.39992L113.203 5.59992L113.797 5.59992L113.797 4.39992ZM110.828 4.39993L110.234 4.39993L110.234 5.59993L110.828 5.59993L110.828 4.39993ZM107.859 4.39993L107.266 4.39993L107.266 5.59993L107.859 5.59993L107.859 4.39993ZM104.891 4.39994L104.297 4.39994L104.297 5.59994L104.891 5.59994L104.891 4.39994ZM101.922 4.39994L101.328 4.39994L101.328 5.59994L101.922 5.59994L101.922 4.39994ZM98.9531 4.39995L98.3594 4.39995L98.3594 5.59995L98.9531 5.59995L98.9531 4.39995ZM95.9844 4.39995L95.3906 4.39995L95.3906 5.59995L95.9844 5.59995L95.9844 4.39995ZM93.0156 4.39996L92.4219 4.39996L92.4219 5.59996L93.0156 5.59996L93.0156 4.39996ZM90.0469 4.39996L89.4531 4.39996L89.4531 5.59996L90.0469 5.59996L90.0469 4.39996ZM87.0781 4.39997L86.4844 4.39997L86.4844 5.59997L87.0781 5.59997L87.0781 4.39997ZM84.1094 4.39997L83.5156 4.39997L83.5156 5.59997L84.1094 5.59997L84.1094 4.39997ZM81.1406 4.39998L80.5469 4.39998L80.5469 5.59998L81.1406 5.59998L81.1406 4.39998ZM78.1719 4.39998L77.5781 4.39998L77.5781 5.59998L78.1719 5.59998L78.1719 4.39998ZM75.2031 4.39999L74.6094 4.39999L74.6094 5.59999L75.2031 5.59999L75.2031 4.39999ZM72.2344 4.39999L71.6406 4.39999L71.6406 5.59999L72.2344 5.59999L72.2344 4.39999ZM69.2656 4.39999L68.6719 4.4L68.6719 5.6L69.2656 5.59999L69.2656 4.39999ZM66.2969 4.4L66 4.4L66 5.6L66.2969 5.6L66.2969 4.4ZM66 4.4L65.7045 4.4L65.7045 5.6L66 5.6L66 4.4ZM63.3409 4.4L62.75 4.4L62.75 5.6L63.3409 5.6L63.3409 4.4ZM60.3864 4.4L59.7955 4.4L59.7955 5.6L60.3864 5.6L60.3864 4.4ZM57.4318 4.4L56.8409 4.4L56.8409 5.6L57.4318 5.6L57.4318 4.4ZM54.4773 4.4L53.8864 4.4L53.8864 5.6L54.4773 5.6L54.4773 4.4ZM51.5227 4.4L50.9318 4.4L50.9318 5.6L51.5227 5.6L51.5227 4.4ZM48.5682 4.4L47.9773 4.4L47.9773 5.6L48.5682 5.6L48.5682 4.4ZM45.6136 4.4L45.0227 4.4L45.0227 5.6L45.6136 5.6L45.6136 4.4ZM42.6591 4.4L42.0682 4.4L42.0682 5.6L42.6591 5.6L42.6591 4.4ZM39.7045 4.4L39.1136 4.4L39.1136 5.6L39.7045 5.6L39.7045 4.4ZM36.75 4.4L36.1591 4.4L36.1591 5.6L36.75 5.6L36.75 4.4ZM33.7954 4.4L33.2045 4.4L33.2045 5.6L33.7954 5.6L33.7954 4.4ZM30.8409 4.4L30.25 4.4L30.25 5.6L30.8409 5.6L30.8409 4.4ZM27.8864 4.4L27.2955 4.4L27.2955 5.6L27.8864 5.6L27.8864 4.4ZM24.9318 4.4L24.3409 4.4L24.3409 5.6L24.9318 5.6L24.9318 4.4ZM21.9773 4.4L21.3864 4.4L21.3864 5.6L21.9773 5.6L21.9773 4.4ZM19.0227 4.4L18.4318 4.4L18.4318 5.6L19.0227 5.6L19.0227 4.4ZM16.0682 4.4L15.4773 4.4L15.4773 5.6L16.0682 5.6L16.0682 4.4ZM13.1136 4.4L12.5227 4.4L12.5227 5.6L13.1136 5.6L13.1136 4.4ZM10.1591 4.4L9.56819 4.4L9.56819 5.6L10.1591 5.6L10.1591 4.4ZM7.20454 4.4L6.61365 4.4L6.61365 5.6L7.20454 5.6L7.20454 4.4ZM4.25002 4.4L3.6591 4.4L3.6591 5.6L4.25002 5.6L4.25002 4.4ZM1.29546 4.4L1 4.4L1 5.6L1.29546 5.6L1.29546 4.4Z" fill="#6B6B6B"/>
</svg>
