<svg xmlns="http://www.w3.org/2000/svg" viewBox="0 0 125.89 121.22"><defs><style>.cls-1{fill:none;stroke:#344154;stroke-linecap:round;stroke-linejoin:round;stroke-width:2px;}</style></defs><title>Ресурс 1</title><g id="Слой_2" data-name="Слой 2"><g id="Режим_изоляции" data-name="Режим изоляции"><polyline class="cls-1" points="76.15 54.54 111.42 54.54 111.42 41.08"/><polyline class="cls-1" points="54.94 14.04 54.94 1 124.89 1 124.89 41.08 76.15 41.08"/><path class="cls-1" d="M79.48,31.47a14.75,14.75,0,0,1,0-20.86"/><path class="cls-1" d="M100.34,10.61a14.73,14.73,0,0,1,0,20.86"/><path class="cls-1" d="M112.87,22a.84.84,0,1,1,.84.84A.84.84,0,0,1,112.87,22Z"/><path class="cls-1" d="M85.84,25.1a4.08,4.08,0,0,0,8.15,0c0-2.25-1.67-3.29-4.08-4.08-2.14-.69-4.07-1.82-4.07-4.07A4.08,4.08,0,0,1,94,17"/><line class="cls-1" x1="89.91" y1="10.61" x2="89.91" y2="12.9"/><line class="cls-1" x1="89.91" y1="29.17" x2="89.91" y2="31.47"/><path class="cls-1" d="M48.63,120.22H4a3,3,0,0,1-3-3V28.78a3,3,0,0,1,3-3H8.66"/><path class="cls-1" d="M44,25.8h4.68a3,3,0,0,1,3,3V64.94"/><rect class="cls-1" x="8.66" y="51.74" width="35.3" height="16.59"/><path class="cls-1" d="M26.42,105.71a8.3,8.3,0,0,1-8.3-8.29h0a8.3,8.3,0,0,1,8.3-8.29"/><line class="cls-1" x1="8.66" y1="38.45" x2="43.95" y2="38.45"/><path class="cls-1" d="M8.66,14V8.9a7.12,7.12,0,0,1,7.12-7.13h21A7.13,7.13,0,0,1,44,8.9V14"/><line class="cls-1" x1="43.95" y1="14" x2="43.95" y2="32.66"/><line class="cls-1" x1="8.66" y1="32.66" x2="8.66" y2="14"/><line class="cls-1" x1="15.22" y1="15.91" x2="37.39" y2="15.91"/><line class="cls-1" x1="19.61" y1="23.33" x2="33" y2="23.33"/><path class="cls-1" d="M51.61,44.62H62a3.82,3.82,0,0,1,3.82,3.81V58.51"/><path class="cls-1" d="M62.18,93.15H36.79a4.66,4.66,0,0,0-4.66,4.66h0a4.66,4.66,0,0,0,4.66,4.66h33"/><path class="cls-1" d="M62.18,83.83H55a4.66,4.66,0,0,0-4.66,4.66h0"/><path class="cls-1" d="M62.18,74.5H58a4.66,4.66,0,0,0-4.66,4.66h0"/><path class="cls-1" d="M108.12,72.75c-8.59.18-10.23-.52-10.23-.52A45.22,45.22,0,0,1,93,70.94a92.62,92.62,0,0,0-26-4.4l-3.94,0a4.65,4.65,0,0,0-4.66,4.66h0"/><path class="cls-1" d="M57.83,106.66a5.52,5.52,0,0,0-1.92,4.19h0A4.52,4.52,0,0,0,59,115.52c.13,0,.28.08.42.12a7.71,7.71,0,0,0,4.69-.45,29.47,29.47,0,0,1,15.16-1.86,16.79,16.79,0,0,0,11.76-2.79c2.17-1.5,4.64-3.3,6.91-5.17,0,0,4.57-4.63,10.16-4.63"/><line class="cls-1" x1="58.43" y1="71.17" x2="58.43" y2="74.5"/><line class="cls-1" x1="53.38" y1="79.16" x2="53.38" y2="84.1"/><line class="cls-1" x1="50.29" y1="88.49" x2="50.29" y2="93.15"/><path class="cls-1" d="M124,106H110.76a2.64,2.64,0,0,1-2.64-2.64V70.11a2.64,2.64,0,0,1,2.64-2.64H124"/></g></g></svg>