<svg xmlns="http://www.w3.org/2000/svg" viewBox="0 0 128.89 128.29"><defs><style>.cls-1{fill:none;stroke:#344154;stroke-linecap:round;stroke-linejoin:round;stroke-width:2px;}</style></defs><title>Ресурс 1</title><g id="Слой_2" data-name="Слой 2"><g id="Режим_изоляции" data-name="Режим изоляции"><path class="cls-1" d="M115.14,88.46a18,18,0,0,1,5.47,13"/><path class="cls-1" d="M87.89,90.8a18.1,18.1,0,0,1,22.68-5.59"/><path class="cls-1" d="M85.14,109.36A18.16,18.16,0,0,1,86,94.94"/><path class="cls-1" d="M92.87,93.83l.1-.12a12.32,12.32,0,0,1,9.56-4.47c5,0,8.74,2.69,11,7a17.15,17.15,0,0,1,1.83,7.27,62.15,62.15,0,0,1-.78,12.55"/><path class="cls-1" d="M89.51,114.15c1.92-3.93,1.51-9.05,1.13-11.6a11.69,11.69,0,0,1,0-3.18"/><path class="cls-1" d="M109.07,110.17a38.19,38.19,0,0,1-1.7,9"/><path class="cls-1" d="M94.34,117.87a15.92,15.92,0,0,0,2.32-12.37s-1.62-7.56,3.52-9.62a6,6,0,0,1,2.7-.4,6.08,6.08,0,0,1,5.69,4.56,9.67,9.67,0,0,1,.29,1.4c.08.62.19,1.64.26,3"/><path class="cls-1" d="M102.76,112.22a23,23,0,0,1-2.58,7.87"/><path class="cls-1" d="M102.43,100.84a31,31,0,0,1,.62,5"/><circle class="cls-1" cx="102.32" cy="101.71" r="25.58" transform="translate(-20.38 177.6) rotate(-76.57)"/><rect class="cls-1" x="7.12" y="1.44" width="24.38" height="24.11"/><rect class="cls-1" x="1" y="25.55" width="36.63" height="41.7" rx="3.75"/><polyline class="cls-1" points="12.18 16.07 12.18 13.01 16.3 13.01 16.3 16.07"/><polyline class="cls-1" points="22.33 16.07 22.33 13.01 26.45 13.01 26.45 16.07"/><rect class="cls-1" x="11.63" y="67.25" width="15.36" height="7.63"/><rect class="cls-1" x="67.07" y="18.01" width="21.6" height="28.4" rx="2.32"/><rect class="cls-1" x="69.8" y="1" width="16.14" height="17.01"/><line class="cls-1" x1="75.4" y1="7.31" x2="75.4" y2="12.32"/><line class="cls-1" x1="80.34" y1="7.31" x2="80.34" y2="12.32"/><path class="cls-1" d="M65.71,81.92c-1.43-13.26-13.85-17-20.5-9.55-9.1,10.2,3.36,27.6,20.23,19.55,5.19-2.48,8.46-7.71,10.34-14.49a70,70,0,0,0,2.09-18.31V46.4"/><path class="cls-1" d="M19.31,74.88V84.1c0,.43,0,.85,0,1.27,1.09,22,30.48,29.37,42.58,10.87l2.53-3.88"/></g></g></svg>