<svg xmlns="http://www.w3.org/2000/svg" viewBox="0 0 161.56 25.89"><defs><style>.cls-1{fill:#fff;}</style></defs><title>Ресурс 3</title><g id="Слой_2" data-name="Слой 2"><g id="Layer_1" data-name="Layer 1"><path class="cls-1" d="M33.22,7.07,31.34,5.19,24,12.52,11.49,0,0,11.49l14.4,14.4L25.89,14.4h0ZM14.4,21.42l-2.14-2.15,5.89-5.88-1.88-1.88-5.89,5.88L8.11,15.12,14.27,9,12.39,7.07,6.23,13.24,4.47,11.49l7-7,9.93,9.93Z"/><path class="cls-1" d="M34.91,13.8h7.33v2H36.9v2.9h4.73v2H36.9v2.9h5.34v2H34.91Z"/><path class="cls-1" d="M43,13.8h2.35l3,7.48,3-7.48h2.35L48.31,25.86Z"/><path class="cls-1" d="M53.6,19.68a6,6,0,0,1,10.26-4.32l-1.42,1.42a3.9,3.9,0,0,0-2.76-1.11A4,4,0,1,0,62,22.92V20.67H59.66v-2h4.23v5.43a6.45,6.45,0,0,1-4.2,1.59A6,6,0,0,1,53.6,19.68Z"/><path class="cls-1" d="M65.9,13.8h7.32v2H67.88v2.9h4.73v2H67.88v2.9h5.34v2H65.9Z"/><path class="cls-1" d="M77,18.34v7.21H75v-12l7.06,7.55V13.8h2V25.89Z"/><path class="cls-1" d="M86.28,13.8h2V25.55h-2Z"/><path class="cls-1" d="M92.89,20,89.27,13.8h2.46L93.88,18l2.17-4.23h2.44L94.87,20v5.6h-2Z"/><path class="cls-1" d="M103.76,13.8h2v9.77h4.42v2h-6.41Z"/><path class="cls-1" d="M111.44,13.8h7.32v2h-5.34v2.9h4.73v2h-4.73v2.9h5.34v2h-7.32Z"/><path class="cls-1" d="M122.56,18.34v7.21h-2v-12l7.06,7.55V13.8h2V25.89Z"/><path class="cls-1" d="M131.42,19.68a6,6,0,1,1,6,6A6,6,0,0,1,131.42,19.68Zm10.08,0a4,4,0,1,0-4.05,4A4,4,0,0,0,141.5,19.68Z"/><path class="cls-1" d="M144.26,23l1.8-.81A2,2,0,0,0,148,23.74a1.62,1.62,0,0,0,1.72-1.66c0-2.36-4.85-1.74-4.85-5.32a3,3,0,0,1,3.21-3.11,3.28,3.28,0,0,1,3.19,2.2l-1.79.82a1.35,1.35,0,0,0-1.36-1.16,1.19,1.19,0,0,0-1.28,1.19c0,2.09,4.87,1.59,4.87,5.41a3.5,3.5,0,0,1-3.65,3.6A3.9,3.9,0,0,1,144.26,23Z"/><path class="cls-1" d="M153.3,13.8h2v4.89h4.28V13.8h2V25.55h-2V20.67h-4.28v4.88h-2Z"/></g></g></svg>