<svg xmlns="http://www.w3.org/2000/svg" viewBox="0 0 150.33 109.28"><defs><style>.cls-1{fill:none;stroke:#344154;stroke-linecap:round;stroke-linejoin:round;stroke-width:2px;}</style></defs><title>Ресурс 1</title><g id="Слой_2" data-name="Слой 2"><g id="Режим_изоляции" data-name="Режим изоляции"><path class="cls-1" d="M88,38.56a18.06,18.06,0,0,1,5.47,13"/><path class="cls-1" d="M60.73,40.9a18.1,18.1,0,0,1,22.68-5.59"/><path class="cls-1" d="M58,59.46A18.05,18.05,0,0,1,58.82,45"/><path class="cls-1" d="M65.72,43.92l.1-.11a12.32,12.32,0,0,1,9.55-4.47c5,0,8.75,2.69,11,7a17.11,17.11,0,0,1,1.83,7.27,61.5,61.5,0,0,1-.79,12.55"/><path class="cls-1" d="M62.36,64.25c1.92-3.93,1.51-9,1.13-11.6a11.69,11.69,0,0,1-.05-3.18"/><path class="cls-1" d="M82,57.77a39.94,39.94,0,0,1-1.81,11.47"/><path class="cls-1" d="M67.18,68A15.9,15.9,0,0,0,69.51,55.6S67.89,48,73,46a6.19,6.19,0,0,1,2.7-.4,6.1,6.1,0,0,1,5.69,4.57,9.64,9.64,0,0,1,.28,1.4c.08.62.2,1.64.27,3"/><path class="cls-1" d="M75.61,62.32A22.83,22.83,0,0,1,73,70.18"/><path class="cls-1" d="M75.28,50.94a31.16,31.16,0,0,1,.64,5.41"/><circle class="cls-1" cx="75.17" cy="51.81" r="25.58"/><path class="cls-1" d="M1,91.84H149.33a0,0,0,0,1,0,0v5a11.42,11.42,0,0,1-11.42,11.42H12.42A11.42,11.42,0,0,1,1,96.85v-5a0,0,0,0,1,0,0Z"/><path class="cls-1" d="M139.37,91.84V6.48A5.48,5.48,0,0,0,133.89,1H16.45A5.48,5.48,0,0,0,11,6.48V91.84"/><polyline class="cls-1" points="127.83 81.08 127.83 12.54 22.5 12.54 22.5 81.08"/><path class="cls-1" d="M91.32,91.84v3.37a3.61,3.61,0,0,1-3.61,3.61H62.62A3.61,3.61,0,0,1,59,95.21V91.84"/></g></g></svg>