<svg width="209" height="69" viewBox="0 0 209 69" fill="none" xmlns="http://www.w3.org/2000/svg">
<g clip-path="url(#clip0)">
<path fill-rule="evenodd" clip-rule="evenodd" d="M46.687 30.6129C46.1956 30.684 45.7008 30.5078 45.363 30.1414C42.3788 26.8389 38.3251 24.7129 33.9268 24.1438C32.4202 23.9376 30.8955 23.902 29.381 24.0376C28.5994 24.1298 27.8887 23.574 27.784 22.7887C27.7586 22.4083 27.8851 22.0333 28.1355 21.7472C28.3858 21.4611 28.7393 21.2876 29.1174 21.2651C30.8644 21.1094 32.6233 21.1513 34.361 21.39C39.4515 22.0472 44.1438 24.5062 47.5987 28.3275C47.8519 28.6041 47.9785 28.9748 47.9478 29.3497C47.9172 29.7246 47.7321 30.0694 47.4374 30.3007C47.2202 30.4716 46.9608 30.5796 46.687 30.6129Z" fill="white"/>
<path fill-rule="evenodd" clip-rule="evenodd" d="M51.1182 51.4565C50.9184 51.4844 50.7151 51.4727 50.5197 51.4222C50.1535 51.3385 49.8371 51.1078 49.6439 50.7835C49.4507 50.4593 49.3975 50.0697 49.4964 49.705C49.6794 49.0805 49.8344 48.4374 49.9646 47.7942C50.4694 45.3105 50.5293 42.7559 50.1414 40.251C50.0924 39.8733 50.1962 39.4915 50.4294 39.1916C50.6627 38.8916 51.0058 38.6985 51.3817 38.6556C52.1582 38.5301 52.8931 39.0487 53.0407 39.8264C53.4771 42.6423 53.4099 45.5141 52.8422 48.3062C52.6996 49.0243 52.5322 49.7424 52.3182 50.4418C52.1489 50.9867 51.6805 51.3827 51.1182 51.4565Z" fill="white"/>
<path fill-rule="evenodd" clip-rule="evenodd" d="M31.4059 68.7346C29.2885 69.0265 27.1415 69.0265 25.0242 68.7346C23.8113 68.5695 22.6136 68.3064 21.4427 67.9478C21.0818 67.8458 20.7782 67.5996 20.6025 67.2663C20.4267 66.933 20.3942 66.5418 20.5124 66.1838C20.7958 65.433 21.6139 65.0376 22.3729 65.2846C23.3866 65.5961 24.4236 65.8247 25.4738 65.9683C34.24 67.1766 43.1489 62.4715 47.6266 54.2664C48.0283 53.5719 48.8951 53.3087 49.6112 53.6638C49.9477 53.8214 50.2048 54.1115 50.3222 54.4659C50.4395 54.8204 50.4067 55.2079 50.2313 55.5372C46.2498 62.8368 39.1178 67.6699 31.4059 68.7346Z" fill="white"/>
<path fill-rule="evenodd" clip-rule="evenodd" d="M13.6903 62.8899C13.2195 62.958 12.7442 62.7996 12.4066 62.4622C7.21261 57.1701 5.02031 49.4583 6.54285 41.8277C6.72336 41.0486 7.48399 40.5532 8.26378 40.7069C8.63685 40.7603 8.97236 40.964 9.19337 41.2713C9.41438 41.5786 9.50193 41.9631 9.43593 42.3367C8.08704 49.093 10.0034 55.9025 14.5648 60.5452C14.8302 60.8103 14.9732 61.1752 14.959 61.5513C14.9449 61.9275 14.7749 62.2805 14.4904 62.5246C14.2656 62.7235 13.9871 62.8507 13.6903 62.8899Z" fill="white"/>
<path fill-rule="evenodd" clip-rule="evenodd" d="M46.5598 45.0374C46.4968 45.0411 46.4337 45.0411 46.3707 45.0374C45.5821 45.0708 44.9158 44.4545 44.8823 43.6605C44.8657 42.1953 44.6359 40.7405 44.2001 39.3425C43.1287 35.8448 40.731 32.9135 37.527 31.1843C37.193 31.0154 36.9439 30.7142 36.8392 30.353C36.7345 29.9918 36.7837 29.603 36.975 29.2798C37.4011 28.5994 38.2769 28.3663 38.9813 28.7459C42.8396 30.8151 45.7312 34.3336 47.028 38.537C47.5418 40.1815 47.8134 41.8929 47.8343 43.6168C47.832 44.3484 47.2825 44.9608 46.5598 45.0374Z" fill="white"/>
<path fill-rule="evenodd" clip-rule="evenodd" d="M43.3442 54.9814C43.0415 55.0246 42.7334 54.957 42.476 54.791C42.2115 54.625 42.0278 54.3555 41.9689 54.0474C41.9101 53.7393 41.9815 53.4204 42.1659 53.1674C43.3501 51.5342 44.168 49.6614 44.5629 47.6787C44.7168 47.0309 45.3486 46.6188 45.9986 46.742C46.3099 46.787 46.5896 46.9574 46.7738 47.214C46.9579 47.4707 47.0307 47.7916 46.9754 48.1033C46.5143 50.4067 45.5621 52.582 44.1846 54.4788C43.9846 54.7551 43.6809 54.9367 43.3442 54.9814Z" fill="white"/>
<path fill-rule="evenodd" clip-rule="evenodd" d="M30.9934 63.2021C29.3791 63.4244 27.7424 63.4244 26.1281 63.2021C20.7386 62.5137 16.0254 59.2119 13.5106 54.3632C13.341 54.0276 13.3163 53.6363 13.4425 53.2818C13.5687 52.9272 13.8345 52.6407 14.1773 52.4899C14.8952 52.1397 15.7598 52.4135 16.1495 53.1144C18.2202 57.1245 22.1099 59.8595 26.5622 60.4359C30.6988 61.0041 34.8912 59.8114 38.3642 57.0983C38.997 56.6053 39.9002 56.687 40.4356 57.2856C40.682 57.5682 40.8001 57.9416 40.7612 58.3157C40.7223 58.6898 40.5301 59.0305 40.231 59.2557C37.5492 61.3647 34.3633 62.7258 30.9934 63.2021Z" fill="white"/>
<path fill-rule="evenodd" clip-rule="evenodd" d="M13.5694 51.0256C12.8186 51.1448 12.1024 50.6641 11.9229 49.9204C11.4233 47.4911 11.4233 44.9845 11.9229 42.5552C12.1034 41.776 12.8641 41.2806 13.6439 41.4343C14.0169 41.4877 14.3524 41.6914 14.5735 41.9987C14.7945 42.306 14.882 42.6905 14.816 43.0641C14.389 45.1412 14.389 47.2844 14.816 49.3615C14.8842 49.7351 14.7999 50.1206 14.5822 50.4308C14.3646 50.7411 14.0319 50.9499 13.6594 51.01L13.5694 51.0256Z" fill="white"/>
<path fill-rule="evenodd" clip-rule="evenodd" d="M17.3247 28.3774C17.1423 28.4051 16.9564 28.3998 16.7758 28.3618C16.4054 28.295 16.0779 28.0792 15.869 27.764C15.6601 27.4488 15.5878 27.0615 15.6688 26.6914C16.2549 24.2467 16.8533 21.7584 17.427 19.3824C17.9634 17.1657 18.4751 15.0426 18.9278 13.1381C19.1372 12.3659 19.9143 11.8976 20.6891 12.0765C21.0596 12.1433 21.387 12.3591 21.5959 12.6743C21.8048 12.9895 21.8771 13.3768 21.7962 13.7469C21.3403 15.6483 20.8286 17.7714 20.2922 19.9912C19.7185 22.3672 19.1201 24.8524 18.534 27.2971C18.3859 27.8709 17.9081 28.2977 17.3247 28.3774Z" fill="white"/>
<path fill-rule="evenodd" clip-rule="evenodd" d="M40.0883 41.1003C39.449 41.1962 38.8216 40.864 38.5379 40.2791C37.2794 37.5211 34.704 35.6058 31.7159 35.2056C30.0122 34.9797 28.2795 35.2101 26.6925 35.8737C25.9597 36.1862 25.112 35.8684 24.7606 35.1494C24.6097 34.8035 24.6065 34.4103 24.7519 34.0619C24.8974 33.7136 25.1786 33.4407 25.5297 33.3073C27.622 32.436 29.9055 32.1355 32.15 32.4362C36.1205 32.9576 39.5486 35.4912 41.2325 39.1489C41.3858 39.4943 41.3908 39.888 41.2465 40.2372C41.1021 40.5864 40.8211 40.8602 40.4697 40.9941C40.3476 41.0457 40.2194 41.0814 40.0883 41.1003Z" fill="white"/>
<path fill-rule="evenodd" clip-rule="evenodd" d="M28.0228 57.5447C27.8828 57.5641 27.7409 57.5641 27.601 57.5447C24.4918 57.2133 21.645 55.6384 19.6999 53.1737C17.5673 50.402 16.7131 46.8447 17.3525 43.3982C17.7929 40.9004 19.9046 32.2114 21.7713 24.5371C21.9834 23.7658 22.761 23.2993 23.5357 23.4787C23.9061 23.546 24.2332 23.7628 24.4411 24.0788C24.6489 24.3948 24.7195 24.7825 24.6365 25.1522C22.776 32.7859 20.6798 41.4374 20.255 43.8446C19.7464 46.5363 20.4041 49.3186 22.0628 51.4908C23.5153 53.3378 25.6436 54.5201 27.97 54.7722C28.3468 54.8036 28.695 54.9873 28.9352 55.2814C29.1753 55.5755 29.2869 55.955 29.2445 56.3333C29.1458 56.9635 28.6501 57.4551 28.0228 57.5447Z" fill="white"/>
<path fill-rule="evenodd" clip-rule="evenodd" d="M25.694 16.4538C25.5219 16.4861 25.3452 16.4861 25.173 16.4538C24.8334 16.3925 24.5334 16.1941 24.3425 15.9046C24.1517 15.6152 24.0865 15.2598 24.1621 14.9208C24.5156 13.4597 24.8629 12.0172 25.0087 11.3928C25.1959 10.6828 25.9057 10.2477 26.6181 10.4062C26.9581 10.4649 27.2597 10.6605 27.4534 10.948C27.6471 11.2355 27.716 11.59 27.6444 11.9298C27.4956 12.5542 27.1483 14.0123 26.7917 15.4828C26.6501 15.9975 26.2192 16.3788 25.694 16.4538Z" fill="white"/>
<path fill-rule="evenodd" clip-rule="evenodd" d="M49.8343 36.2609C49.239 36.2971 48.6901 35.9371 48.4824 35.3742C48.2601 34.7301 48.0013 34.0994 47.7072 33.4853C47.5615 33.1736 47.55 32.8152 47.6757 32.4948C47.8013 32.1744 48.0529 31.9204 48.3707 31.7931C49.0406 31.5014 49.8202 31.7827 50.1537 32.4362C50.489 33.1367 50.7841 33.856 51.0375 34.5905C51.1487 34.9187 51.1193 35.2788 50.9564 35.5843C50.7935 35.8899 50.5117 36.1135 50.1786 36.2016C50.0667 36.2356 49.9511 36.2555 49.8343 36.2609Z" fill="white" fill-opacity="0.4"/>
<path fill-rule="evenodd" clip-rule="evenodd" d="M18.3263 66.4367C18.0077 66.4832 17.6825 66.4286 17.3961 66.2806C16.6911 65.913 16.0068 65.5065 15.3463 65.063C15.0311 64.8604 14.8143 64.5345 14.7483 64.1639C14.6824 63.7932 14.7733 63.4117 14.9991 63.1116C15.4902 62.4756 16.3854 62.3286 17.0518 62.7744C17.6214 63.1565 18.2115 63.5067 18.8193 63.8235C19.1558 63.9879 19.4091 64.2859 19.5185 64.6461C19.6279 65.0062 19.5836 65.3959 19.3961 65.7217C19.1662 66.1116 18.7724 66.3748 18.3263 66.4367Z" fill="white" fill-opacity="0.4"/>
<path fill-rule="evenodd" clip-rule="evenodd" d="M8.98944 37.5628C8.83545 37.5886 8.67829 37.5886 8.5243 37.5628C8.18297 37.5055 7.87957 37.3107 7.68412 37.0231C7.48868 36.7356 7.41804 36.3803 7.48858 36.0392C8.77855 30.2039 10.5895 22.6888 12.171 16.0573C12.6082 14.2308 13.033 12.4574 13.4361 10.7777C13.6287 10.0716 14.3396 9.64347 15.0486 9.8067C15.3883 9.86749 15.6887 10.065 15.8806 10.3536C16.0725 10.6423 16.1393 10.9972 16.0657 11.3366C15.6657 13.0163 15.2377 14.7928 14.8005 16.6193C13.2128 23.2383 11.4143 30.7409 10.1274 36.5544C9.99486 37.097 9.5409 37.4993 8.98944 37.5628Z" fill="white" fill-opacity="0.4"/>
<path fill-rule="evenodd" clip-rule="evenodd" d="M1.53801 68.7096C1.38402 68.7354 1.22686 68.7354 1.07287 68.7096C0.732373 68.6537 0.429091 68.4608 0.232619 68.1753C0.0361461 67.8897 -0.0366028 67.536 0.0310152 67.1954C1.32099 61.36 2.40628 57.4292 2.8063 55.7495C2.99888 55.0433 3.70974 54.6153 4.41874 54.7785C4.75842 54.8393 5.05884 55.0368 5.25075 55.3254C5.44265 55.6141 5.50949 55.969 5.43585 56.3084C5.03583 57.9881 3.95675 61.9002 2.66988 67.7168C2.53258 68.2514 2.08279 68.6459 1.53801 68.7096Z" fill="white" fill-opacity="0.4"/>
<path fill-rule="evenodd" clip-rule="evenodd" d="M16.3665 7.00302C16.2044 7.02487 16.0397 7.01854 15.8797 6.98429C15.5382 6.9234 15.2361 6.72538 15.0425 6.4357C14.849 6.14602 14.7806 5.78957 14.8533 5.44819C15.3029 3.54054 15.6378 2.09185 15.8735 1.01783C16.0539 0.303051 16.7638 -0.13984 17.4798 0.0156013C17.8226 0.0715244 18.1279 0.265533 18.3256 0.552958C18.5234 0.840384 18.5964 1.19646 18.5279 1.53922C18.2891 2.62574 17.9511 4.08692 17.4983 6.00393C17.3609 6.53955 16.9119 6.9359 16.3665 7.00302Z" fill="white" fill-opacity="0.4"/>
<path fill-rule="evenodd" clip-rule="evenodd" d="M33.2075 29.4545C33.0647 29.4776 32.9192 29.4776 32.7764 29.4545C32.578 29.4171 32.3764 29.3859 32.178 29.3578C30.7764 29.1661 29.3533 29.2041 27.9638 29.4702C27.2848 29.6145 26.6152 29.1881 26.4537 28.5085C26.399 28.1818 26.4754 27.8467 26.6662 27.5767C26.8569 27.3068 27.1464 27.1242 27.4708 27.0692C29.1477 26.7484 30.865 26.7031 32.5563 26.935C32.7981 26.9693 33.0431 27.0068 33.2819 27.0536C33.6077 27.1037 33.8993 27.285 34.0899 27.5557C34.2805 27.8265 34.3538 28.1636 34.2928 28.4898C34.1676 29.0086 33.7343 29.3937 33.2075 29.4545Z" fill="white" fill-opacity="0.4"/>
<path fill-rule="evenodd" clip-rule="evenodd" d="M14.6672 39.9607C14.5032 39.9837 14.3364 39.9784 14.1741 39.945C13.8264 39.8841 13.5182 39.6833 13.3205 39.3889C13.1228 39.0944 13.0526 38.7316 13.1261 38.384C13.5943 36.3795 14.2238 33.8006 15.0424 30.5005C15.2463 29.7783 15.9791 29.346 16.7045 29.5201C17.0487 29.5854 17.352 29.7882 17.5454 30.0822C17.7387 30.3763 17.8056 30.7366 17.7309 31.0812C16.9122 34.3688 16.289 36.9353 15.8207 38.9303C15.6851 39.4811 15.2265 39.8907 14.6672 39.9607Z" fill="white" fill-opacity="0.4"/>
<path fill-rule="evenodd" clip-rule="evenodd" d="M21.3031 9.72245C21.1379 9.74533 20.97 9.73899 20.807 9.70372C20.4619 9.64115 20.1575 9.43852 19.9652 9.14331C19.7728 8.8481 19.7095 8.48627 19.7899 8.14263C19.9915 7.31213 20.1496 6.64398 20.2613 6.1538C20.4458 5.4394 21.1571 4.99869 21.8737 5.15471C22.2168 5.21208 22.522 5.40749 22.7191 5.69604C22.9162 5.98458 22.9882 6.34144 22.9187 6.68457C22.8039 7.19661 22.6458 7.86162 22.4381 8.71397C22.3027 9.25374 21.8519 9.65433 21.3031 9.72245Z" fill="white" fill-opacity="0.4"/>
<path fill-rule="evenodd" clip-rule="evenodd" d="M39.372 50.0359C39.1425 50.0682 38.9087 50.0324 38.6991 49.9329C38.4336 49.8151 38.2287 49.5915 38.1334 49.3155C38.0381 49.0396 38.0611 48.7362 38.1968 48.478C38.5781 47.7593 38.8529 46.9882 39.0123 46.1894C39.1675 45.4223 39.2082 44.6363 39.1332 43.8571C39.1128 43.5625 39.2101 43.2719 39.4034 43.0497C39.5966 42.8276 39.87 42.6923 40.1628 42.6738C40.7713 42.602 41.3241 43.0362 41.4031 43.648C41.4979 44.6305 41.4467 45.6217 41.2512 46.589C41.0508 47.5886 40.706 48.5532 40.2279 49.4521C40.0511 49.7728 39.7333 49.9896 39.372 50.0359Z" fill="white" fill-opacity="0.4"/>
<path fill-rule="evenodd" clip-rule="evenodd" d="M36.3734 54.7192C35.8933 54.7891 35.409 54.6231 35.0711 54.2727C34.8111 54.0026 34.6753 53.6353 34.6965 53.2599C34.7177 52.8844 34.894 52.535 35.1826 52.2964C35.4028 52.109 35.6168 51.9092 35.8028 51.7063C36.379 51.1519 37.2787 51.1276 37.8835 51.6501C38.1651 51.8974 38.3311 52.2521 38.3411 52.6282C38.3511 53.0043 38.2043 53.3674 37.9363 53.6295C37.682 53.8856 37.4091 54.1353 37.1331 54.3726C36.9172 54.5577 36.6539 54.6778 36.3734 54.7192Z" fill="white" fill-opacity="0.4"/>
<path fill-rule="evenodd" clip-rule="evenodd" d="M32.119 56.861C31.5343 56.9523 30.9669 56.615 30.7639 56.0555C30.6674 55.7503 30.6989 55.4187 30.8512 55.1375C31.0034 54.8563 31.2631 54.6499 31.5701 54.5662C31.8275 54.4881 32.0849 54.3945 32.3361 54.2883C32.959 54.025 33.6777 54.2996 33.9702 54.9127C34.1 55.2053 34.104 55.5387 33.9813 55.8343C33.8586 56.1299 33.62 56.3613 33.3221 56.4738C32.9965 56.6081 32.6616 56.7299 32.3267 56.8329C32.2583 56.8478 32.1889 56.8572 32.119 56.861Z" fill="white" fill-opacity="0.4"/>
<path fill-rule="evenodd" clip-rule="evenodd" d="M13.3803 68.0353C13.1367 68.5784 12.546 68.8725 11.9695 68.7378C11.6627 68.6521 11.404 68.444 11.2535 68.1615C11.103 67.8791 11.0737 67.547 11.1725 67.2423C11.2469 66.9831 11.312 66.7146 11.3616 66.4461C11.4728 65.7742 12.0882 65.3085 12.7601 65.3877C13.0716 65.4416 13.3475 65.6217 13.5233 65.8861C13.6991 66.1505 13.7595 66.4759 13.6904 66.7864C13.6253 67.1361 13.5416 67.4827 13.4455 67.823C13.4297 67.8955 13.4079 67.9665 13.3803 68.0353Z" fill="white" fill-opacity="0.4"/>
<path fill-rule="evenodd" clip-rule="evenodd" d="M24.3171 21.2745C24.1552 21.3049 23.9891 21.3049 23.8272 21.2745C23.5068 21.2253 23.2203 21.0464 23.0341 20.7794C22.8479 20.5123 22.7782 20.1802 22.8411 19.8601L23.0396 18.9453C23.2119 18.2832 23.8681 17.872 24.5342 18.0087C24.8546 18.0578 25.1411 18.2367 25.3273 18.5038C25.5135 18.7708 25.5832 19.1029 25.5203 19.423L25.3218 20.3378C25.2039 20.8247 24.8083 21.1935 24.3171 21.2745Z" fill="white" fill-opacity="0.4"/>
<path fill-rule="evenodd" clip-rule="evenodd" d="M7.37702 68.7658C7.18948 68.801 6.99708 68.801 6.80954 68.7658C6.43921 68.6992 6.11198 68.4832 5.90357 68.1678C5.69517 67.8525 5.62364 67.4651 5.7056 67.0955C6.09011 65.5 6.46842 63.9327 6.63587 63.249C6.83987 62.4745 7.61387 61.9995 8.39102 62.1718C8.76219 62.2349 9.0916 62.448 9.30297 62.7616C9.51433 63.0753 9.58925 63.4622 9.5104 63.8328C9.34915 64.5259 8.96774 66.1026 8.58013 67.7043C8.42575 68.2684 7.9527 68.6858 7.37702 68.7658Z" fill="white" fill-opacity="0.4"/>
<path fill-rule="evenodd" clip-rule="evenodd" d="M30.2027 19.0577C30.0134 19.0836 29.8211 19.0741 29.6352 19.0296C29.2662 18.954 28.9439 18.7299 28.7431 18.4091C28.5422 18.0884 28.4802 17.699 28.5716 17.3311L28.8538 16.2821C29.0833 15.5151 29.8721 15.0664 30.643 15.2643C31.012 15.3399 31.3343 15.564 31.5351 15.8847C31.736 16.2054 31.798 16.5949 31.7066 16.9627L31.4245 18.0118C31.2622 18.5754 30.7813 18.9871 30.2027 19.0577Z" fill="white" fill-opacity="0.4"/>
<path d="M72.8864 55.7901C72.4141 55.5673 72.0195 55.206 71.7546 54.7535L71.5933 55.4998C71.5708 55.6403 71.4953 55.7667 71.3825 55.8526C71.2777 55.9369 71.1476 55.9831 71.0135 55.9837H69.3917C69.2717 55.991 69.1558 55.9385 69.0816 55.8432C69.0137 55.7426 68.9922 55.6174 69.0227 55.4998L71.8445 42.1556C71.867 42.015 71.9426 41.8886 72.0554 41.8028C72.1602 41.7185 72.2902 41.6722 72.4244 41.6716H74.1577C74.2778 41.6643 74.3937 41.7169 74.4678 41.8121C74.5354 41.9128 74.5569 42.0379 74.5268 42.1556L73.5965 46.6296C74.0115 46.227 74.4878 45.8939 75.0074 45.643C75.5523 45.4028 76.143 45.2855 76.7377 45.2996C77.8995 45.2996 78.7833 45.6253 79.389 46.2768C80.0221 46.9996 80.3493 47.9432 80.3006 48.9057C80.2954 49.2772 80.2622 49.6477 80.2014 50.0141C80.1231 50.4959 80.0196 50.9732 79.8913 51.444C79.6156 52.7515 78.9768 53.9533 78.0494 54.9097C77.1636 55.7639 75.9729 56.2221 74.747 56.1804C74.105 56.1987 73.4677 56.065 72.8864 55.7901ZM77.1811 51.3379C77.2988 50.9437 77.3788 50.5391 77.4199 50.1296C77.4628 49.8284 77.4897 49.5251 77.5005 49.2211C77.5276 48.7595 77.3926 48.303 77.1191 47.9316C76.8648 47.6236 76.4307 47.4685 75.8168 47.4664C75.1154 47.4495 74.4346 47.7056 73.9159 48.1814C73.4116 48.6319 73.0557 49.2266 72.8957 49.8861C72.7614 50.4647 72.658 50.9851 72.5857 51.4472C72.5468 51.6803 72.527 51.9163 72.5267 52.1528C72.5055 52.6354 72.6549 53.11 72.9484 53.4922C73.2998 53.8649 73.8015 54.0547 74.3097 54.0073C75.6761 54.0073 76.6333 53.1175 77.1811 51.3379Z" fill="white"/>
<path d="M87.2404 55.84C87.1654 55.7427 87.1391 55.616 87.1691 55.4966L89.1908 45.9833C89.2131 45.8427 89.2887 45.7162 89.4018 45.6305C89.5066 45.5462 89.6366 45.5 89.7708 45.4994H91.4731C91.5939 45.488 91.7117 45.5413 91.7832 45.6399C91.8508 45.7406 91.8722 45.8657 91.8421 45.9833L89.839 55.4966C89.8127 55.6309 89.7416 55.7521 89.6374 55.84C89.5391 55.9304 89.4108 55.9805 89.2777 55.9805H87.5753C87.4476 55.9913 87.3227 55.9389 87.2404 55.84ZM89.7428 43.6448C89.6677 43.5475 89.6414 43.4208 89.6715 43.3014L89.9816 41.8308C89.9967 41.693 90.0646 41.5664 90.1708 41.478C90.2775 41.3801 90.4171 41.3266 90.5615 41.3282H92.4034C92.5224 41.3262 92.636 41.3777 92.7135 41.4687C92.7954 41.5699 92.8253 41.7041 92.7941 41.8308L92.484 43.3014C92.4566 43.4375 92.3818 43.5592 92.2732 43.6448C92.1707 43.7343 92.0398 43.7842 91.9041 43.7853H90.0436C89.9275 43.7893 89.8163 43.7385 89.7428 43.6479V43.6448Z" fill="white"/>
<path d="M99.8331 55.2063C99.0708 54.5371 98.654 53.554 98.7013 52.5368C98.6997 52.2321 98.7267 51.9279 98.782 51.6282C98.8776 51.0307 99.0049 50.4387 99.1634 49.8549C99.4467 48.5449 100.151 47.3653 101.167 46.4985C102.14 45.6992 103.408 45.2996 104.971 45.2996C106.319 45.2996 107.373 45.6285 108.134 46.2862C108.904 46.9641 109.324 47.9586 109.275 48.9869C109.265 49.2776 109.238 49.5674 109.195 49.8549C108.988 50.8227 108.861 51.4139 108.813 51.6282C108.52 52.9343 107.818 54.111 106.81 54.9846C105.849 55.7839 104.574 56.1835 102.987 56.1835C101.639 56.1835 100.588 55.8578 99.8331 55.2063ZM104.999 53.4828C105.546 52.9567 105.919 52.2746 106.069 51.5283C106.162 51.1516 106.276 50.6312 106.41 49.9673C106.464 49.6811 106.491 49.3905 106.491 49.0993C106.491 47.917 105.917 47.3259 104.77 47.3259C104.104 47.3099 103.458 47.5551 102.968 48.0097C102.432 48.5425 102.063 49.2221 101.908 49.9641C101.752 50.4743 101.638 50.9964 101.567 51.5252C101.512 51.8176 101.485 52.1145 101.486 52.4119C101.486 53.5671 102.053 54.1447 103.188 54.1447C103.853 54.1608 104.5 53.9246 104.999 53.4828Z" fill="white"/>
<path fill-rule="evenodd" clip-rule="evenodd" d="M116.187 55.84C116.112 55.7428 116.086 55.616 116.116 55.4966L118.138 45.9834C118.16 45.8427 118.235 45.7162 118.349 45.6306C118.453 45.5462 118.583 45.5 118.718 45.4994H120.299C120.418 45.4876 120.534 45.537 120.609 45.6306C120.679 45.734 120.7 45.8627 120.668 45.9834L120.528 46.6702C120.921 46.263 121.374 45.9196 121.871 45.6524C122.389 45.4029 122.959 45.2819 123.533 45.2996C124.198 45.2757 124.857 45.4401 125.434 45.7742C125.928 46.0733 126.299 46.5424 126.476 47.0949C127.437 45.898 128.574 45.2996 129.887 45.2996C130.721 45.2593 131.539 45.5444 132.169 46.0958C132.742 46.6265 133.029 47.4029 133.031 48.4249C133.031 48.8585 132.984 49.2908 132.892 49.7143L131.651 55.4997C131.629 55.6383 131.558 55.7638 131.45 55.8525C131.349 55.9375 131.222 55.984 131.09 55.9837H129.428C129.301 55.9934 129.178 55.9411 129.096 55.8432C129.021 55.7459 128.995 55.6192 129.025 55.4997L130.225 49.8798C130.293 49.5819 130.326 49.277 130.324 48.9713C130.324 47.9763 129.857 47.4789 128.923 47.4789C128.363 47.488 127.824 47.6946 127.4 48.0627C126.874 48.5343 126.527 49.1757 126.42 49.8767L125.22 55.4966C125.198 55.6351 125.126 55.7607 125.019 55.8494C124.918 55.9344 124.79 55.9809 124.659 55.9805H122.978C122.858 55.9868 122.743 55.9345 122.668 55.84C122.593 55.7428 122.567 55.616 122.597 55.4966L123.778 49.8767C123.846 49.5788 123.88 49.2739 123.877 48.9682C123.912 48.5543 123.774 48.1446 123.496 47.8379C123.217 47.5867 122.85 47.4566 122.476 47.4757C121.916 47.4849 121.377 47.6915 120.953 48.0596C120.427 48.5312 120.081 49.1726 119.973 49.8736L118.792 55.4935C118.769 55.634 118.694 55.7604 118.581 55.8463C118.476 55.9306 118.346 55.9768 118.212 55.9774H116.51C116.387 55.9849 116.267 55.9341 116.187 55.84Z" fill="white"/>
<path d="M141.804 55.2156C141.109 54.5704 140.762 53.6504 140.762 52.4556C140.758 52.0434 140.791 51.6317 140.861 51.2255C140.873 51.1318 140.947 50.7957 141.081 50.217C141.393 48.8073 142.156 47.5395 143.252 46.6078C144.321 45.731 145.665 45.2662 147.044 45.2965C148.365 45.2965 149.363 45.6358 150.037 46.3143C150.71 46.9929 151.047 47.9233 151.047 49.1056C151.04 49.6132 150.986 50.1191 150.886 50.6167L150.787 51.0413C150.759 51.1774 150.685 51.2991 150.576 51.3847C150.467 51.477 150.328 51.5268 150.185 51.5252H143.559L143.518 51.6876C143.48 51.9145 143.46 52.1443 143.46 52.3745C143.438 52.8711 143.591 53.3594 143.891 53.7544C144.198 54.118 144.657 54.3155 145.131 54.2883C145.917 54.2756 146.663 53.9367 147.193 53.3517C147.29 53.2422 147.406 53.1504 147.534 53.0801C147.65 53.0412 147.772 53.0243 147.894 53.0301H149.655C149.762 53.0249 149.865 53.0699 149.934 53.1519C150.005 53.2393 150.027 53.3567 149.993 53.4641C149.812 53.9089 149.52 54.2985 149.143 54.5943C148.592 55.0717 147.962 55.4499 147.283 55.7121C146.477 56.0353 145.617 56.1966 144.75 56.1866C143.478 56.1846 142.496 55.8609 141.804 55.2156ZM148.316 49.8143V49.7768C148.369 49.518 148.396 49.2544 148.396 48.99C148.422 48.5036 148.265 48.0253 147.956 47.6506C147.621 47.3051 147.153 47.1247 146.675 47.1573C146.017 47.1485 145.382 47.4061 144.914 47.8723C144.397 48.3888 144.052 49.0543 143.928 49.7768V49.8174H148.312L148.316 49.8143Z" fill="white"/>
<path fill-rule="evenodd" clip-rule="evenodd" d="M159.77 55.3468C159.221 54.8745 158.928 54.1675 158.98 53.4422C158.98 53.0282 159.027 52.6156 159.119 52.2121L160.099 47.6569H158.518C158.398 47.6642 158.282 47.6116 158.207 47.5164C158.139 47.4158 158.118 47.2906 158.149 47.1729L158.387 45.9834C158.415 45.8473 158.49 45.7255 158.598 45.6399C158.707 45.5474 158.846 45.4976 158.989 45.4994H160.539L161.259 42.1525C161.28 42.0138 161.352 41.8882 161.46 41.7997C161.561 41.7146 161.688 41.6682 161.82 41.6685H163.482C163.609 41.6593 163.732 41.7115 163.814 41.809C163.888 41.9065 163.915 42.033 163.885 42.1525L163.153 45.4994H165.656C165.776 45.4921 165.892 45.5446 165.966 45.6399C166.033 45.7406 166.055 45.8657 166.025 45.9834L165.764 47.1729C165.751 47.3087 165.682 47.4329 165.575 47.5164C165.466 47.6088 165.327 47.6587 165.184 47.6569H162.704L161.773 51.9904C161.7 52.2974 161.659 52.6114 161.653 52.9271C161.634 53.1574 161.714 53.3848 161.873 53.5515C162.094 53.7073 162.364 53.7781 162.632 53.7513H164.093C164.213 53.7446 164.328 53.797 164.403 53.8918C164.471 53.9925 164.492 54.1176 164.462 54.2353L164.201 55.506C164.179 55.6466 164.103 55.7729 163.991 55.8588C163.886 55.9431 163.756 55.9893 163.622 55.9899H162.223C161.115 55.9858 160.297 55.7714 159.77 55.3468Z" fill="white"/>
<path fill-rule="evenodd" clip-rule="evenodd" d="M171.941 55.84C171.866 55.7427 171.84 55.616 171.87 55.4966L173.892 46.0021C173.916 45.8595 173.991 45.7307 174.103 45.6399C174.205 45.5504 174.336 45.5006 174.472 45.4994H176.112C176.24 45.4902 176.365 45.5465 176.444 45.6493C176.518 45.7506 176.544 45.8796 176.515 46.0021L176.335 46.8294C177.003 45.9427 178.003 45.4994 179.337 45.4994H180.338C180.458 45.4921 180.574 45.5446 180.649 45.6399C180.716 45.7406 180.738 45.8656 180.707 45.9833L180.397 47.4539C180.384 47.5897 180.315 47.7139 180.208 47.7973C180.099 47.8898 179.96 47.9397 179.817 47.9378H178.236C177.658 47.9206 177.093 48.1135 176.645 48.4811C176.2 48.865 175.899 49.3922 175.796 49.9735L174.627 55.4997C174.599 55.6358 174.524 55.7576 174.416 55.8431C174.313 55.9327 174.182 55.9825 174.047 55.9836H172.264C172.14 55.9896 172.02 55.9364 171.941 55.84Z" fill="white"/>
<path d="M186.255 55.84C186.18 55.7427 186.154 55.616 186.184 55.4966L188.205 45.9833C188.228 45.8427 188.303 45.7162 188.416 45.6305C188.521 45.5462 188.651 45.5 188.785 45.4994H190.488C190.608 45.488 190.726 45.5413 190.798 45.6399C190.865 45.7406 190.887 45.8657 190.857 45.9833L188.854 55.4966C188.827 55.6309 188.756 55.7521 188.652 55.84C188.554 55.9304 188.425 55.9805 188.292 55.9805H186.59C186.462 55.9913 186.337 55.9389 186.255 55.84ZM188.757 43.6448C188.682 43.5475 188.656 43.4208 188.686 43.3014L188.996 41.8308C189.011 41.693 189.079 41.5664 189.185 41.478C189.292 41.3801 189.432 41.3266 189.576 41.3282H191.418C191.537 41.3262 191.651 41.3777 191.728 41.4687C191.81 41.5699 191.84 41.7041 191.809 41.8308L191.499 43.3014C191.471 43.4375 191.396 43.5592 191.288 43.6448C191.185 43.7343 191.054 43.7842 190.919 43.7853H189.058C188.942 43.7893 188.831 43.7385 188.757 43.6479V43.6448Z" fill="white"/>
<path d="M198.618 55.2156C198.031 54.5704 197.738 53.6899 197.738 52.5743C197.742 52.1831 197.775 51.7928 197.837 51.4066C197.905 50.9583 197.998 50.5142 198.116 50.0765C198.411 48.7724 199.047 47.5715 199.958 46.5984C200.846 45.7185 202.056 45.2483 203.301 45.2996C203.928 45.2688 204.553 45.3898 205.124 45.6524C205.56 45.8839 205.926 46.2289 206.184 46.6515L206.324 45.9865C206.346 45.8458 206.422 45.7193 206.535 45.6337C206.64 45.5493 206.77 45.5031 206.904 45.5025H208.507C208.633 45.4938 208.755 45.546 208.836 45.643C208.91 45.7405 208.937 45.867 208.907 45.9865L206.904 55.4997C206.881 55.6403 206.806 55.7667 206.693 55.8525C206.588 55.9369 206.458 55.9831 206.324 55.9837H204.721C204.596 55.9958 204.474 55.945 204.394 55.8482C204.314 55.7513 204.286 55.6209 204.321 55.4997L204.482 54.7535C204.065 55.1857 203.582 55.5464 203.049 55.8213C202.474 56.0813 201.847 56.2052 201.217 56.1835C200.071 56.1835 199.205 55.8609 198.618 55.2156ZM204.045 53.2611C204.55 52.7669 204.904 52.1375 205.065 51.4472C205.197 50.8956 205.301 50.3752 205.375 49.8861C205.413 49.6728 205.433 49.4565 205.434 49.2398C205.454 48.7755 205.304 48.32 205.012 47.9597C204.66 47.6015 204.168 47.4206 203.67 47.4664C202.322 47.4664 201.391 48.3531 200.879 50.1265C200.765 50.5227 200.677 50.9265 200.618 51.3348C200.574 51.6285 200.547 51.9246 200.538 52.2215C200.508 52.6868 200.635 53.1485 200.897 53.5328C201.137 53.8429 201.551 53.9969 202.138 53.9949C202.845 54.0194 203.532 53.7548 204.042 53.2611H204.045Z" fill="white"/>
<path opacity="0.599261" fill-rule="evenodd" clip-rule="evenodd" d="M77.8236 23.1041L77.1067 21.2146H73.4061L72.6892 23.1041H72.0988L74.9665 15.6733H75.5569L78.414 23.1041H77.8236ZM73.617 20.6838H76.9064L75.2617 16.3633L73.617 20.6838ZM82.6313 20.3653C83.2498 20.5706 83.5591 20.9952 83.5591 21.6392C83.5591 22.0638 83.4202 22.4141 83.1426 22.6901C82.865 22.9661 82.4626 23.1041 81.9354 23.1041H79.384V17.7964H81.7351C82.2341 17.7964 82.6207 17.9273 82.8948 18.1892C83.1689 18.451 83.3061 18.7836 83.3061 19.187C83.3061 19.7532 83.0811 20.146 82.6313 20.3653ZM81.7351 18.3166H79.9112V20.153H81.7351C82.0725 20.153 82.3291 20.0716 82.5048 19.9089C82.6805 19.7461 82.7683 19.5161 82.7683 19.2189C82.7683 18.9358 82.6787 18.7147 82.4995 18.5554C82.3203 18.3962 82.0654 18.3166 81.7351 18.3166ZM81.9354 22.5839C82.2868 22.5839 82.5575 22.499 82.7473 22.3292C82.937 22.1593 83.0319 21.9223 83.0319 21.6179C83.0319 21.3207 82.9353 21.089 82.742 20.9226C82.5487 20.7563 82.2798 20.6732 81.9354 20.6732H79.9112V22.5839H81.9354ZM88.2085 17.7964V18.3166H86.2897V23.1041H85.7625V18.3166H83.8437V17.7964H88.2085ZM91.3609 23.2209C90.5877 23.2209 89.9324 22.9537 89.3947 22.4194C88.857 21.8851 88.5881 21.2287 88.5881 20.4503C88.5881 19.6718 88.857 19.0154 89.3947 18.4811C89.9324 17.9468 90.5877 17.6796 91.3609 17.6796C92.127 17.6796 92.7789 17.9468 93.3166 18.4811C93.8543 19.0154 94.1231 19.6718 94.1231 20.4503C94.1231 21.2287 93.8543 21.8851 93.3166 22.4194C92.7789 22.9537 92.127 23.2209 91.3609 23.2209ZM89.7689 22.0532C90.2046 22.4919 90.7353 22.7113 91.3609 22.7113C91.9864 22.7113 92.5136 22.4919 92.9424 22.0532C93.3711 21.6144 93.5855 21.0801 93.5855 20.4503C93.5855 19.8204 93.3711 19.2861 92.9424 18.8473C92.5136 18.4086 91.9864 18.1892 91.3609 18.1892C90.7353 18.1892 90.2064 18.4086 89.7742 18.8473C89.3419 19.2861 89.1257 19.8204 89.1257 20.4503C89.1257 21.0801 89.3401 21.6144 89.7689 22.0532ZM100.481 17.7964V23.1041H99.9429V18.6032L97.9714 21.7347H97.8976L95.9155 18.5819V23.1041H95.3883V17.7964H96.0104L97.9292 20.843L99.848 17.7964H100.481ZM106.743 17.7964H107.281V23.1041H106.743V21.9046C106.518 22.315 106.209 22.637 105.815 22.8706C105.422 23.1041 104.975 23.2209 104.476 23.2209C103.724 23.2209 103.081 22.9537 102.547 22.4194C102.013 21.8851 101.746 21.2287 101.746 20.4503C101.746 19.6718 102.013 19.0154 102.547 18.4811C103.081 17.9468 103.724 17.6796 104.476 17.6796C104.975 17.6796 105.422 17.7964 105.815 18.0299C106.209 18.2635 106.518 18.5855 106.743 18.9959V17.7964ZM102.927 22.0532C103.362 22.4919 103.893 22.7113 104.519 22.7113C105.144 22.7113 105.671 22.4919 106.1 22.0532C106.529 21.6144 106.743 21.0801 106.743 20.4503C106.743 19.8204 106.529 19.2861 106.1 18.8473C105.671 18.4086 105.144 18.1892 104.519 18.1892C103.893 18.1892 103.364 18.4086 102.932 18.8473C102.5 19.2861 102.283 19.8204 102.283 20.4503C102.283 21.0801 102.498 21.6144 102.927 22.0532ZM112.595 17.7964V18.3166H110.676V23.1041H110.149V18.3166H108.23V17.7964H112.595ZM117.434 17.7964H117.898V23.1041H117.36V18.72L114.007 23.1041H113.543V17.7964H114.071V22.1806L117.434 17.7964ZM122.052 20.3653C122.368 20.4715 122.614 20.6413 122.79 20.8749C122.965 21.1084 123.053 21.3773 123.053 21.6816C123.053 22.1133 122.885 22.4778 122.547 22.775C122.21 23.0723 121.732 23.2209 121.113 23.2209C120.059 23.2209 119.374 22.8033 119.057 21.9683L119.511 21.7029C119.736 22.3752 120.27 22.7113 121.113 22.7113C121.549 22.7113 121.892 22.614 122.141 22.4194C122.391 22.2248 122.516 21.9683 122.516 21.6498C122.516 21.3596 122.41 21.1243 122.199 20.9439C121.988 20.7634 121.707 20.6732 121.356 20.6732H120.628V20.153H121.155C121.5 20.153 121.771 20.0646 121.967 19.8876C122.164 19.7107 122.263 19.4736 122.263 19.1764C122.263 18.8933 122.148 18.658 121.92 18.4705C121.691 18.2829 121.391 18.1892 121.018 18.1892C120.302 18.1892 119.827 18.4758 119.595 19.049L119.152 18.7943C119.3 18.4546 119.532 18.1839 119.848 17.9822C120.164 17.7805 120.555 17.6796 121.018 17.6796C121.56 17.6796 121.99 17.8229 122.31 18.1096C122.63 18.3962 122.79 18.7447 122.79 19.1552C122.79 19.7284 122.544 20.1318 122.052 20.3653ZM128.103 17.7964H128.567V23.1041H128.03V18.72L124.677 23.1041H124.213V17.7964H124.74V22.1806L128.103 17.7964ZM132.985 17.6796C133.744 17.6796 134.389 17.9468 134.919 18.4811C135.45 19.0154 135.715 19.6718 135.715 20.4503C135.715 21.2287 135.45 21.8851 134.919 22.4194C134.389 22.9537 133.744 23.2209 132.985 23.2209C132.486 23.2209 132.038 23.1006 131.641 22.86C131.243 22.6193 130.936 22.2903 130.718 21.8727V25.2272H130.191V17.7964H130.718V19.0278C130.936 18.6102 131.243 18.2812 131.641 18.0406C132.038 17.7999 132.486 17.6796 132.985 17.6796ZM131.361 22.0532C131.797 22.4919 132.328 22.7113 132.953 22.7113C133.579 22.7113 134.108 22.4919 134.54 22.0532C134.972 21.6144 135.188 21.0801 135.188 20.4503C135.188 19.8204 134.972 19.2861 134.54 18.8473C134.108 18.4086 133.579 18.1892 132.953 18.1892C132.328 18.1892 131.799 18.4086 131.366 18.8473C130.934 19.2861 130.718 19.8204 130.718 20.4503C130.718 21.0801 130.932 21.6144 131.361 22.0532ZM139.405 23.2209C138.632 23.2209 137.977 22.9537 137.439 22.4194C136.902 21.8851 136.633 21.2287 136.633 20.4503C136.633 19.6718 136.902 19.0154 137.439 18.4811C137.977 17.9468 138.632 17.6796 139.405 17.6796C140.172 17.6796 140.824 17.9468 141.361 18.4811C141.899 19.0154 142.168 19.6718 142.168 20.4503C142.168 21.2287 141.899 21.8851 141.361 22.4194C140.824 22.9537 140.172 23.2209 139.405 23.2209ZM137.813 22.0532C138.249 22.4919 138.78 22.7113 139.405 22.7113C140.031 22.7113 140.558 22.4919 140.987 22.0532C141.416 21.6144 141.63 21.0801 141.63 20.4503C141.63 19.8204 141.416 19.2861 140.987 18.8473C140.558 18.4086 140.031 18.1892 139.405 18.1892C138.78 18.1892 138.251 18.4086 137.819 18.8473C137.386 19.2861 137.17 19.8204 137.17 20.4503C137.17 21.0801 137.385 21.6144 137.813 22.0532ZM146.68 20.3653C147.299 20.5706 147.608 20.9952 147.608 21.6392C147.608 22.0638 147.469 22.4141 147.192 22.6901C146.914 22.9661 146.511 23.1041 145.984 23.1041H143.433V17.7964H145.784C146.283 17.7964 146.67 17.9273 146.944 18.1892C147.218 18.451 147.355 18.7836 147.355 19.187C147.355 19.7532 147.13 20.146 146.68 20.3653ZM145.784 18.3166H143.96V20.153H145.784C146.121 20.153 146.378 20.0716 146.554 19.9089C146.729 19.7461 146.817 19.5161 146.817 19.2189C146.817 18.9358 146.728 18.7147 146.548 18.5554C146.369 18.3962 146.114 18.3166 145.784 18.3166ZM145.984 22.5839C146.336 22.5839 146.606 22.499 146.796 22.3292C146.986 22.1593 147.081 21.9223 147.081 21.6179C147.081 21.3207 146.984 21.089 146.791 20.9226C146.598 20.7563 146.329 20.6732 145.984 20.6732H143.96V22.5839H145.984ZM153.417 17.7964H153.955V23.1041H153.417V21.9046C153.192 22.315 152.883 22.637 152.489 22.8706C152.096 23.1041 151.649 23.2209 151.15 23.2209C150.398 23.2209 149.755 22.9537 149.221 22.4194C148.687 21.8851 148.42 21.2287 148.42 20.4503C148.42 19.6718 148.687 19.0154 149.221 18.4811C149.755 17.9468 150.398 17.6796 151.15 17.6796C151.649 17.6796 152.096 17.7964 152.489 18.0299C152.883 18.2635 153.192 18.5855 153.417 18.9959V17.7964ZM149.601 22.0532C150.036 22.4919 150.567 22.7113 151.193 22.7113C151.818 22.7113 152.345 22.4919 152.774 22.0532C153.203 21.6144 153.417 21.0801 153.417 20.4503C153.417 19.8204 153.203 19.2861 152.774 18.8473C152.345 18.4086 151.818 18.1892 151.193 18.1892C150.567 18.1892 150.038 18.4086 149.606 18.8473C149.174 19.2861 148.957 19.8204 148.957 20.4503C148.957 21.0801 149.172 21.6144 149.601 22.0532ZM159.395 17.7964H159.933V23.1041H159.395V20.705H156.106V23.1041H155.578V17.7964H156.106V20.1955H159.395V17.7964ZM165.373 17.7964H165.911V23.1041H165.373V20.705H162.084V23.1041H161.556V17.7964H162.084V20.1955H165.373V17.7964ZM169.622 19.8558C170.107 19.8558 170.518 20.0079 170.855 20.3123C171.193 20.6166 171.361 21.0058 171.361 21.4799C171.361 21.9541 171.193 22.3433 170.855 22.6477C170.518 22.952 170.107 23.1041 169.622 23.1041H167.534V17.7964H168.061V19.8558H169.622ZM172.173 17.7964H172.7V23.1041H172.173V17.7964ZM169.622 22.5839C169.959 22.5839 170.244 22.4813 170.476 22.2761C170.708 22.0709 170.824 21.8055 170.824 21.4799C170.824 21.1473 170.709 20.8802 170.481 20.6785C170.253 20.4768 169.966 20.376 169.622 20.376H168.061V22.5839H169.622ZM176.696 17.6796C177.469 17.6796 178.097 17.9556 178.578 18.5076C179.06 19.0597 179.3 19.7143 179.3 20.4715C179.3 20.4998 179.299 20.5423 179.295 20.5989C179.292 20.6555 179.29 20.6979 179.29 20.7262H174.514C174.577 21.3207 174.814 21.8002 175.225 22.1647C175.637 22.5291 176.144 22.7113 176.749 22.7113C177.171 22.7113 177.54 22.6229 177.856 22.446C178.172 22.269 178.411 22.0355 178.573 21.7453L179.037 22.0213C178.819 22.3893 178.51 22.6812 178.109 22.8971C177.708 23.1129 177.251 23.2209 176.738 23.2209C175.93 23.2209 175.266 22.9608 174.746 22.4406C174.226 21.9205 173.966 21.257 173.966 20.4503C173.966 19.6576 174.22 18.9977 174.73 18.4705C175.239 17.9433 175.895 17.6796 176.696 17.6796ZM176.696 18.1892C176.099 18.1892 175.6 18.3767 175.199 18.7518C174.798 19.1269 174.57 19.6116 174.514 20.2061H178.752C178.696 19.5763 178.473 19.0826 178.083 18.7253C177.692 18.3679 177.23 18.1892 176.696 18.1892ZM75.1668 33.8363C74.3726 33.8363 73.7119 33.5709 73.1847 33.0401C72.6575 32.5093 72.394 31.8512 72.394 31.0656C72.394 30.2801 72.6575 29.622 73.1847 29.0912C73.7119 28.5604 74.3726 28.295 75.1668 28.295C75.6799 28.295 76.1438 28.4171 76.5585 28.6613C76.9732 28.9054 77.2754 29.2363 77.4652 29.6538L77.033 29.9086C76.8783 29.5689 76.6341 29.3 76.3002 29.1018C75.9663 28.9036 75.5885 28.8046 75.1668 28.8046C74.5342 28.8046 74.0036 29.0222 73.5748 29.4574C73.1461 29.8926 72.9317 30.4287 72.9317 31.0656C72.9317 31.7026 73.1461 32.2386 73.5748 32.6739C74.0036 33.1091 74.5342 33.3267 75.1668 33.3267C75.5885 33.3267 75.9663 33.2276 76.3002 33.0295C76.6341 32.8313 76.8888 32.5624 77.0645 32.2227L77.5073 32.4881C77.2965 32.8986 76.9819 33.2259 76.5637 33.47C76.1455 33.7142 75.6799 33.8363 75.1668 33.8363ZM82.5575 28.4118H83.0213V33.7195H82.4837V29.3353L79.131 33.7195H78.6671V28.4118H79.1943V32.7959L82.5575 28.4118ZM87.0594 33.8363C86.2651 33.8363 85.6044 33.5709 85.0773 33.0401C84.5501 32.5093 84.2865 31.8512 84.2865 31.0656C84.2865 30.2801 84.5501 29.622 85.0773 29.0912C85.6044 28.5604 86.2651 28.295 87.0594 28.295C87.5725 28.295 88.0363 28.4171 88.451 28.6613C88.8657 28.9054 89.1679 29.2363 89.3577 29.6538L88.9254 29.9086C88.7708 29.5689 88.5265 29.3 88.1927 29.1018C87.8588 28.9036 87.4811 28.8046 87.0594 28.8046C86.4268 28.8046 85.8961 29.0222 85.4674 29.4574C85.0386 29.8926 84.8242 30.4287 84.8242 31.0656C84.8242 31.7026 85.0386 32.2386 85.4674 32.6739C85.8961 33.1091 86.4268 33.3267 87.0594 33.3267C87.4811 33.3267 87.8588 33.2276 88.1927 33.0295C88.5265 32.8313 88.7814 32.5624 88.9571 32.2227L89.3999 32.4881C89.189 32.8986 88.8745 33.2259 88.4563 33.47C88.0381 33.7142 87.5725 33.8363 87.0594 33.8363ZM94.1443 28.4118V28.932H92.2254V33.7195H91.6983V28.932H89.7795V28.4118H94.1443ZM97.2545 28.295C98.0276 28.295 98.6549 28.571 99.1363 29.123C99.6178 29.675 99.8586 30.3296 99.8586 31.0869C99.8586 31.1152 99.8568 31.1576 99.8533 31.2143C99.8498 31.2709 99.848 31.3133 99.848 31.3416H95.072C95.1353 31.9361 95.3725 32.4156 95.7837 32.78C96.1949 33.1445 96.7027 33.3267 97.3071 33.3267C97.7289 33.3267 98.0979 33.2383 98.4142 33.0613C98.7305 32.8844 98.9695 32.6509 99.1311 32.3607L99.595 32.6367C99.3771 33.0047 99.0678 33.2966 98.6672 33.5125C98.2666 33.7283 97.8097 33.8363 97.2966 33.8363C96.4883 33.8363 95.8241 33.5762 95.304 33.056C94.7839 32.5359 94.5238 31.8724 94.5238 31.0656C94.5238 30.273 94.7786 29.6131 95.2882 29.0859C95.7977 28.5586 96.4532 28.295 97.2545 28.295ZM97.2545 28.8046C96.657 28.8046 96.1579 28.9921 95.7573 29.3672C95.3567 29.7423 95.1283 30.227 95.072 30.8215H99.3103C99.2541 30.1916 99.0309 29.698 98.6408 29.3406C98.2508 28.9832 97.7886 28.8046 97.2545 28.8046ZM106.184 28.4118V33.7195H105.647V29.2186L103.675 32.3501H103.601L101.619 29.1973V33.7195H101.092V28.4118H101.714L103.633 31.4584L105.552 28.4118H106.184ZM109.896 30.4712C110.38 30.4712 110.792 30.6233 111.129 30.9276C111.466 31.2319 111.635 31.6212 111.635 32.0953C111.635 32.5695 111.466 32.9587 111.129 33.263C110.792 33.5673 110.38 33.7195 109.896 33.7195H107.808V28.4118H108.335V30.4712H109.896ZM112.447 28.4118H112.974V33.7195H112.447V28.4118ZM109.896 33.1993C110.233 33.1993 110.518 33.0967 110.75 32.8915C110.981 32.6863 111.097 32.4209 111.097 32.0953C111.097 31.7627 110.983 31.4956 110.755 31.2939C110.526 31.0922 110.24 30.9913 109.896 30.9913H108.335V33.1993H109.896ZM120.207 28.295C120.966 28.295 121.611 28.5622 122.141 29.0965C122.672 29.6308 122.937 30.2872 122.937 31.0656C122.937 31.8441 122.672 32.5005 122.141 33.0348C121.611 33.5691 120.966 33.8363 120.207 33.8363C119.708 33.8363 119.259 33.716 118.862 33.4753C118.465 33.2347 118.158 32.9057 117.94 32.4881V35.8426H117.413V28.4118H117.94V29.6432C118.158 29.2256 118.465 28.8966 118.862 28.6559C119.259 28.4153 119.708 28.295 120.207 28.295ZM118.583 32.6686C119.019 33.1073 119.549 33.3267 120.175 33.3267C120.801 33.3267 121.329 33.1073 121.762 32.6686C122.194 32.2298 122.41 31.6955 122.41 31.0656C122.41 30.4358 122.194 29.9015 121.762 29.4627C121.329 29.024 120.801 28.8046 120.175 28.8046C119.549 28.8046 119.021 29.024 118.588 29.4627C118.156 29.9015 117.94 30.4358 117.94 31.0656C117.94 31.6955 118.154 32.2298 118.583 32.6686ZM128.852 28.4118H129.39V33.7195H128.852V32.52C128.627 32.9304 128.318 33.2524 127.924 33.486C127.531 33.7195 127.084 33.8363 126.585 33.8363C125.833 33.8363 125.19 33.5691 124.656 33.0348C124.122 32.5005 123.855 31.8441 123.855 31.0656C123.855 30.2872 124.122 29.6308 124.656 29.0965C125.19 28.5622 125.833 28.295 126.585 28.295C127.084 28.295 127.531 28.4118 127.924 28.6453C128.318 28.8789 128.627 29.2009 128.852 29.6113V28.4118ZM125.035 32.6686C125.471 33.1073 126.002 33.3267 126.627 33.3267C127.253 33.3267 127.78 33.1073 128.209 32.6686C128.638 32.2298 128.852 31.6955 128.852 31.0656C128.852 30.4358 128.638 29.9015 128.209 29.4627C127.78 29.024 127.253 28.8046 126.627 28.8046C126.002 28.8046 125.473 29.024 125.041 29.4627C124.608 29.9015 124.392 30.4358 124.392 31.0656C124.392 31.6955 124.607 32.2298 125.035 32.6686ZM133.428 33.8363C132.633 33.8363 131.973 33.5709 131.445 33.0401C130.918 32.5093 130.655 31.8512 130.655 31.0656C130.655 30.2801 130.918 29.622 131.445 29.0912C131.973 28.5604 132.633 28.295 133.428 28.295C133.941 28.295 134.405 28.4171 134.819 28.6613C135.234 28.9054 135.536 29.2363 135.726 29.6538L135.294 29.9086C135.139 29.5689 134.895 29.3 134.561 29.1018C134.227 28.9036 133.849 28.8046 133.428 28.8046C132.795 28.8046 132.264 29.0222 131.836 29.4574C131.407 29.8926 131.192 30.4287 131.192 31.0656C131.192 31.7026 131.407 32.2386 131.836 32.6739C132.264 33.1091 132.795 33.3267 133.428 33.3267C133.849 33.3267 134.227 33.2276 134.561 33.0295C134.895 32.8313 135.15 32.5624 135.325 32.2227L135.768 32.4881C135.557 32.8986 135.243 33.2259 134.825 33.47C134.406 33.7142 133.941 33.8363 133.428 33.8363ZM141.282 28.4118V33.7195H140.744V28.932H137.455V33.7195H136.928V28.4118H141.282ZM145.32 33.8363C144.547 33.8363 143.892 33.5691 143.354 33.0348C142.816 32.5005 142.547 31.8441 142.547 31.0656C142.547 30.2872 142.816 29.6308 143.354 29.0965C143.892 28.5622 144.547 28.295 145.32 28.295C146.086 28.295 146.738 28.5622 147.276 29.0965C147.814 29.6308 148.082 30.2872 148.082 31.0656C148.082 31.8441 147.814 32.5005 147.276 33.0348C146.738 33.5691 146.086 33.8363 145.32 33.8363ZM143.728 32.6686C144.164 33.1073 144.695 33.3267 145.32 33.3267C145.946 33.3267 146.473 33.1073 146.902 32.6686C147.33 32.2298 147.545 31.6955 147.545 31.0656C147.545 30.4358 147.33 29.9015 146.902 29.4627C146.473 29.024 145.946 28.8046 145.32 28.8046C144.695 28.8046 144.166 29.024 143.733 29.4627C143.301 29.9015 143.085 30.4358 143.085 31.0656C143.085 31.6955 143.299 32.2298 143.728 32.6686ZM151.667 30.9807C151.983 31.0869 152.229 31.2567 152.405 31.4903C152.581 31.7238 152.669 31.9927 152.669 32.297C152.669 32.7287 152.5 33.0932 152.163 33.3904C151.825 33.6876 151.347 33.8363 150.729 33.8363C149.674 33.8363 148.989 33.4187 148.673 32.5836L149.126 32.3183C149.351 32.9906 149.885 33.3267 150.729 33.3267C151.164 33.3267 151.507 33.2294 151.757 33.0348C152.006 32.8402 152.131 32.5836 152.131 32.2652C152.131 31.975 152.025 31.7397 151.815 31.5593C151.604 31.3788 151.323 31.2886 150.971 31.2886H150.244V30.7684H150.771C151.115 30.7684 151.386 30.6799 151.583 30.503C151.779 30.3261 151.878 30.089 151.878 29.7918C151.878 29.5087 151.764 29.2734 151.535 29.0859C151.307 28.8983 151.006 28.8046 150.634 28.8046C149.917 28.8046 149.442 29.0912 149.21 29.6644L148.768 29.4096C148.915 29.0699 149.147 28.7992 149.464 28.5976C149.78 28.3959 150.17 28.295 150.634 28.295C151.175 28.295 151.605 28.4383 151.925 28.7249C152.245 29.0116 152.405 29.3601 152.405 29.7706C152.405 30.3438 152.159 30.7472 151.667 30.9807ZM157.645 28.4118H158.183V33.7195H157.645V31.3204H154.356V33.7195H153.828V28.4118H154.356V30.8109H157.645V28.4118ZM164.445 28.4118H164.983V33.7195H164.445V32.52C164.22 32.9304 163.911 33.2524 163.517 33.486C163.124 33.7195 162.677 33.8363 162.178 33.8363C161.426 33.8363 160.783 33.5691 160.249 33.0348C159.715 32.5005 159.448 31.8441 159.448 31.0656C159.448 30.2872 159.715 29.6308 160.249 29.0965C160.783 28.5622 161.426 28.295 162.178 28.295C162.677 28.295 163.124 28.4118 163.517 28.6453C163.911 28.8789 164.22 29.2009 164.445 29.6113V28.4118ZM160.629 32.6686C161.064 33.1073 161.595 33.3267 162.221 33.3267C162.846 33.3267 163.373 33.1073 163.802 32.6686C164.231 32.2298 164.445 31.6955 164.445 31.0656C164.445 30.4358 164.231 29.9015 163.802 29.4627C163.373 29.024 162.846 28.8046 162.221 28.8046C161.595 28.8046 161.066 29.024 160.634 29.4627C160.202 29.9015 159.985 30.4358 159.985 31.0656C159.985 31.6955 160.2 32.2298 160.629 32.6686ZM169.854 30.9807C170.472 31.186 170.782 31.6106 170.782 32.2546C170.782 32.6792 170.643 33.0295 170.365 33.3055C170.087 33.5815 169.685 33.7195 169.158 33.7195H166.606V28.4118H168.958C169.457 28.4118 169.843 28.5427 170.117 28.8046C170.391 29.0664 170.529 29.399 170.529 29.8024C170.529 30.3686 170.304 30.7613 169.854 30.9807ZM168.958 28.932H167.134V30.7684H168.958C169.295 30.7684 169.552 30.687 169.727 30.5243C169.903 30.3615 169.991 30.1315 169.991 29.8343C169.991 29.5512 169.901 29.33 169.722 29.1708C169.543 29.0116 169.288 28.932 168.958 28.932ZM169.158 33.1993C169.509 33.1993 169.78 33.1144 169.97 32.9446C170.16 32.7747 170.254 32.5376 170.254 32.2333C170.254 31.9361 170.158 31.7043 169.964 31.538C169.771 31.3717 169.502 31.2886 169.158 31.2886H167.134V33.1993H169.158ZM176.591 28.4118H177.128V33.7195H176.591V32.52C176.366 32.9304 176.057 33.2524 175.663 33.486C175.269 33.7195 174.823 33.8363 174.324 33.8363C173.572 33.8363 172.929 33.5691 172.395 33.0348C171.86 32.5005 171.593 31.8441 171.593 31.0656C171.593 30.2872 171.86 29.6308 172.395 29.0965C172.929 28.5622 173.572 28.295 174.324 28.295C174.823 28.295 175.269 28.4118 175.663 28.6453C176.057 28.8789 176.366 29.2009 176.591 29.6113V28.4118ZM172.774 32.6686C173.21 33.1073 173.741 33.3267 174.366 33.3267C174.992 33.3267 175.519 33.1073 175.948 32.6686C176.376 32.2298 176.591 31.6955 176.591 31.0656C176.591 30.4358 176.376 29.9015 175.948 29.4627C175.519 29.024 174.992 28.8046 174.366 28.8046C173.741 28.8046 173.212 29.024 172.779 29.4627C172.347 29.9015 172.131 30.4358 172.131 31.0656C172.131 31.6955 172.345 32.2298 172.774 32.6686ZM182.569 28.4118H183.106V33.7195H182.569V31.3204H179.279V33.7195H178.752V28.4118H179.279V30.8109H182.569V28.4118ZM188.62 28.4118H189.084V33.7195H188.547V29.3353L185.194 33.7195H184.73V28.4118H185.257V32.7959L188.62 28.4118ZM194.356 28.4118V33.7195H193.829V31.6495H192.69L191.035 33.7195H190.349L192.036 31.6389C191.607 31.5893 191.249 31.4177 190.961 31.124C190.673 30.8303 190.529 30.4677 190.529 30.036C190.529 29.5618 190.697 29.1726 191.035 28.8682C191.372 28.5639 191.783 28.4118 192.268 28.4118H194.356ZM192.268 31.1399H193.829V28.932H192.268C191.931 28.932 191.646 29.0346 191.414 29.2398C191.182 29.445 191.066 29.7104 191.066 30.036C191.066 30.3686 191.181 30.6357 191.409 30.8374C191.637 31.0391 191.924 31.1399 192.268 31.1399Z" fill="white"/>
</g>
<defs>
<clipPath id="clip0">
<rect width="209" height="69" fill="white"/>
</clipPath>
</defs>
</svg>
